<svg width="52" height="42" viewBox="0 0 52 42" fill="none" xmlns="http://www.w3.org/2000/svg">
<g clip-path="url(#clip0_2_258)">
<path d="M35.0001 42.0001C31.2851 42.0001 27.9901 40.1501 26.0001 37.3201C24.0101 40.1501 20.7151 42.0001 17.0001 42.0001C10.9351 42.0001 6.00007 37.0651 6.00007 31.0001V11.0701L0.890073 7.66508C-0.0299274 7.05008 -0.274927 5.81008 0.335073 4.89008C0.945073 3.97008 2.19007 3.72008 3.11007 4.33508L10.0001 8.93008V31.0001C10.0001 34.8601 13.1401 38.0001 17.0001 38.0001C20.8601 38.0001 24.0001 34.8601 24.0001 31.0001V30.0001H28.0001V31.0001C28.0001 34.8601 31.1401 38.0001 35.0001 38.0001C38.8601 38.0001 42.0001 34.8601 42.0001 31.0001V8.93008L48.8901 4.33508C49.8101 3.72008 51.0501 3.97008 51.6651 4.89008C52.2801 5.81008 52.0301 7.05008 51.1101 7.66508L46.0001 11.0701V31.0001C46.0001 37.0651 41.0651 42.0001 35.0001 42.0001Z" fill="#FF6636"/>
<path d="M26 33C27.6569 33 29 31.6569 29 30C29 28.3431 27.6569 27 26 27C24.3431 27 23 28.3431 23 30C23 31.6569 24.3431 33 26 33Z" fill="#FF6636"/>
<path d="M33 21.5C33 20.6716 32.3284 20 31.5 20C30.6716 20 30 20.6716 30 21.5V23.5C30 24.3284 30.6716 25 31.5 25C32.3284 25 33 24.3284 33 23.5V21.5Z" fill="#FF6636"/>
<path d="M22 21.5C22 20.6716 21.3284 20 20.5 20C19.6716 20 19 20.6716 19 21.5V23.5C19 24.3284 19.6716 25 20.5 25C21.3284 25 22 24.3284 22 23.5V21.5Z" fill="#FF6636"/>
</g>
<defs>
<clipPath id="clip0_2_258">
<rect width="52" height="42" fill="white"/>
</clipPath>
</defs>
</svg>
