<svg width="46" height="52" viewBox="0 0 46 52" fill="none" xmlns="http://www.w3.org/2000/svg">
<path d="M37.2418 50.4982C37.1584 50.6186 37.0611 50.6974 36.9499 50.7344C36.8388 50.7715 36.7276 50.7761 36.6164 50.7483C36.5145 50.7113 36.4219 50.6511 36.3385 50.5677C36.2551 50.475 36.2088 50.3592 36.1995 50.2203C36.181 50.0906 36.1717 50.0072 36.1717 49.9701C36.1532 49.896 36.1393 49.8219 36.1301 49.7478C36.1208 49.6737 36.1069 49.5996 36.0884 49.5254C36.0513 49.3402 36.0143 49.1549 35.9772 48.9696C35.9494 48.7843 35.9123 48.599 35.866 48.4137C35.7641 47.9413 35.6576 47.478 35.5464 47.0241C35.4352 46.5609 35.3287 46.0977 35.2268 45.6344C35.1249 45.2175 35.023 44.8007 34.9211 44.3838C34.8192 43.9576 34.7173 43.5361 34.6153 43.1192C34.5783 42.9802 34.5459 42.8413 34.5181 42.7023C34.4903 42.5633 34.4579 42.4244 34.4208 42.2854C34.4023 42.2113 34.3837 42.1325 34.3652 42.0492C34.3467 41.9565 34.342 41.8731 34.3513 41.799C34.3698 41.6415 34.4254 41.5118 34.5181 41.4099C34.62 41.2987 34.7497 41.2432 34.9072 41.2432C35.0461 41.2432 35.1758 41.2987 35.2963 41.4099C35.426 41.5118 35.4816 41.6415 35.463 41.799C35.4723 41.8546 35.4769 41.9009 35.4769 41.938C35.4862 41.975 35.5001 42.0167 35.5186 42.0631C35.5464 42.2113 35.5742 42.3549 35.602 42.4938C35.639 42.6328 35.6715 42.7718 35.6993 42.9107C35.8012 43.3462 35.9031 43.7769 36.005 44.2031C36.1162 44.62 36.2227 45.0415 36.3246 45.4677C36.4265 45.9309 36.5284 46.3895 36.6303 46.8434C36.7415 47.2974 36.848 47.756 36.9499 48.2192C36.9685 48.3118 36.987 48.3998 37.0055 48.4832C37.0241 48.5666 37.0426 48.65 37.0611 48.7333C37.3668 48.2609 37.6587 47.7838 37.9366 47.302C38.2238 46.811 38.4925 46.3107 38.7426 45.8012C39.0483 45.1805 39.3216 44.5366 39.5625 43.8696C39.8034 43.2026 39.9469 42.5216 39.9933 41.8268C40.0025 41.6786 40.0581 41.5582 40.16 41.4655C40.2619 41.3729 40.3731 41.3173 40.4935 41.2987C40.614 41.2802 40.7298 41.3034 40.841 41.3682C40.9614 41.4238 41.0401 41.5304 41.0772 41.6879C41.2347 42.2808 41.3737 42.8829 41.4941 43.4944C41.6238 44.1058 41.7535 44.7126 41.8832 45.3148C42.0222 45.917 42.175 46.5146 42.3418 47.1075C42.5178 47.7004 42.7355 48.2794 42.9949 48.8445C43.2636 48.4925 43.4998 48.1265 43.7036 47.7467C43.9074 47.3576 44.0742 46.9453 44.2039 46.5099C44.4262 45.7873 44.5745 45.0554 44.6486 44.3143C44.732 43.5639 44.8107 42.8135 44.8848 42.0631C44.9033 41.9148 44.9589 41.7851 45.0516 41.674C45.1535 41.5628 45.2832 41.5072 45.4407 41.5072C45.5796 41.5072 45.7093 41.5628 45.8298 41.674C45.9595 41.7759 46.0151 41.9056 45.9965 42.0631C45.9132 42.8876 45.8298 43.7075 45.7464 44.5227C45.663 45.3287 45.4963 46.1254 45.2461 46.9129C45.033 47.5522 44.7598 48.1404 44.4262 48.6778C44.102 49.2151 43.7175 49.7339 43.2728 50.2342C43.1524 50.3639 42.9949 50.4195 42.8004 50.4009C42.6151 50.3731 42.4807 50.2805 42.3974 50.123C42.1472 49.6783 41.9295 49.2197 41.7442 48.7472C41.5589 48.2748 41.3968 47.7977 41.2578 47.3159C41.1189 46.8342 40.9938 46.3478 40.8826 45.8568C40.7715 45.3565 40.6649 44.8609 40.563 44.3699C40.3222 45.0091 40.0489 45.6391 39.7431 46.2598C39.3818 47.0009 38.9881 47.7235 38.5619 48.4276C38.1358 49.1225 37.6957 49.8126 37.2418 50.4982Z" fill="black"/>
<path d="M29.2062 50.7063C29.2062 50.8823 29.146 51.012 29.0256 51.0954C28.9144 51.1881 28.7893 51.2344 28.6504 51.2344C28.5114 51.2344 28.3863 51.1881 28.2752 51.0954C28.164 51.012 28.1084 50.8823 28.1084 50.7063C28.1084 49.9837 28.1918 49.2889 28.3585 48.6218C28.5253 47.9548 28.7337 47.2924 28.9839 46.6347C28.919 46.5142 28.9005 46.3799 28.9283 46.2317C28.9839 46.0371 29.1043 45.9167 29.2896 45.8703C29.4749 45.4257 29.6648 44.9856 29.8594 44.5502C30.0632 44.1055 30.2577 43.6608 30.443 43.2161C30.6283 42.7714 30.7997 42.3221 30.9572 41.8682C31.1147 41.4142 31.2444 40.951 31.3463 40.4785C31.3741 40.3396 31.4296 40.2191 31.513 40.1172C31.6057 40.0153 31.7307 39.9644 31.8882 39.9644C32.0365 39.9644 32.1708 40.0199 32.2912 40.1311C32.4117 40.233 32.4626 40.3627 32.4441 40.5202C32.4163 41.0575 32.4256 41.5532 32.4719 42.0071C32.5182 42.4518 32.5877 42.8965 32.6803 43.3412C32.773 43.7766 32.8749 44.2167 32.9861 44.6614C33.1065 45.0968 33.2177 45.5322 33.3196 45.9676C33.4215 46.3845 33.5141 46.8014 33.5975 47.2183C33.6809 47.6352 33.8152 48.0382 34.0005 48.4273C34.0931 48.6218 34.1904 48.8118 34.2923 48.997C34.3942 49.1731 34.5054 49.3537 34.6258 49.539C34.737 49.7058 34.8389 49.8818 34.9316 50.0671C35.0242 50.2431 35.089 50.4376 35.1261 50.6507C35.1446 50.799 35.1215 50.9379 35.0566 51.0676C35.001 51.1973 34.8945 51.2853 34.737 51.3316C34.6073 51.3687 34.4683 51.3502 34.3201 51.2761C34.1719 51.202 34.0839 51.0908 34.0561 50.9425C34.019 50.7295 33.9449 50.5396 33.8337 50.3728C33.7318 50.206 33.6253 50.0346 33.5141 49.8586C33.3844 49.6548 33.264 49.451 33.1528 49.2472C33.0509 49.0341 32.9583 48.8164 32.8749 48.594C32.7822 48.3624 32.7035 48.1308 32.6386 47.8992C32.5738 47.6584 32.5136 47.4175 32.458 47.1766C32.0411 47.1488 31.6288 47.1303 31.2212 47.121C30.8228 47.1025 30.4198 47.0701 30.0122 47.0238C29.7899 47.6167 29.6 48.2188 29.4425 48.8303C29.2942 49.4417 29.2155 50.0671 29.2062 50.7063ZM30.5125 45.787C30.494 45.8148 30.4801 45.8472 30.4708 45.8842C30.4708 45.912 30.4615 45.9398 30.443 45.9676C30.7395 45.9954 31.0313 46.0139 31.3185 46.0232C31.6057 46.0232 31.8975 46.0325 32.194 46.051C32.092 45.6063 31.9809 45.1663 31.8604 44.7308C31.7493 44.2862 31.6474 43.8368 31.5547 43.3829C31.388 43.7905 31.2166 44.1935 31.0405 44.5919C30.8645 44.981 30.6885 45.3793 30.5125 45.787Z" fill="black"/>
<path d="M23.5594 42.8412C23.5409 42.6929 23.5177 42.5493 23.4899 42.4104C23.4714 42.2714 23.4575 42.1324 23.4482 41.9935C23.4297 41.8267 23.4251 41.6507 23.4343 41.4654C23.4528 41.2801 23.4899 41.1041 23.5455 40.9373C23.6103 40.7706 23.6984 40.6224 23.8095 40.4927C23.9207 40.363 24.0736 40.2703 24.2681 40.2147C24.5646 40.1314 24.8657 40.1453 25.1714 40.2564C25.4771 40.3583 25.7643 40.4741 26.033 40.6038C26.2924 40.7335 26.5471 40.8725 26.7973 41.0207C27.0474 41.169 27.3068 41.3079 27.5755 41.4376C27.7144 41.5025 27.8534 41.572 27.9924 41.6461C28.1313 41.7202 28.2518 41.8082 28.3537 41.9101C28.4648 42.0027 28.5528 42.1185 28.6177 42.2575C28.6918 42.3872 28.7335 42.5401 28.7428 42.7161C28.752 42.9014 28.7196 43.082 28.6455 43.2581C28.5806 43.4341 28.5112 43.6055 28.437 43.7722C28.0201 44.6987 27.4875 45.5649 26.8389 46.3709C26.5981 46.6673 26.3248 46.9452 26.0191 47.2046C25.7226 47.4548 25.3845 47.6169 25.0046 47.691C25.088 48.2191 25.1806 48.7379 25.2825 49.2474C25.3937 49.757 25.5188 50.2711 25.6578 50.7899C25.7041 50.966 25.6809 51.1095 25.5883 51.2207C25.5049 51.3412 25.3984 51.4199 25.2687 51.457C25.139 51.494 25.0046 51.4848 24.8657 51.4292C24.7267 51.3736 24.634 51.2578 24.5877 51.0818C24.2913 49.9515 24.0643 48.8213 23.9068 47.691C23.7493 46.5515 23.6474 45.3935 23.6011 44.2169C23.5918 44.0594 23.5872 43.9066 23.5872 43.7583C23.5872 43.6101 23.5825 43.4572 23.5733 43.2997C23.5733 43.2349 23.5733 43.1747 23.5733 43.1191C23.5733 43.0542 23.5687 42.994 23.5594 42.9384V42.8412ZM24.546 41.4932C24.5368 41.697 24.546 41.9147 24.5738 42.1463C24.5831 42.2482 24.5877 42.3131 24.5877 42.3409C24.597 42.3687 24.6016 42.3918 24.6016 42.4104L24.6433 42.6605C24.6711 42.9384 24.685 43.221 24.685 43.5082C24.7035 43.9158 24.7174 44.3234 24.7267 44.7311C24.7452 45.1294 24.773 45.5324 24.8101 45.9401C24.8193 46.0512 24.824 46.1624 24.824 46.2736C24.8332 46.3848 24.8471 46.4913 24.8657 46.5932C24.9583 46.5654 25.0231 46.5422 25.0602 46.5237C25.0973 46.4959 25.1343 46.4728 25.1714 46.4542C25.227 46.4172 25.2687 46.3848 25.2964 46.357C25.5281 46.1717 25.7226 45.9864 25.8801 45.8011C26.0376 45.6158 26.1858 45.4259 26.3248 45.2314C26.6305 44.8052 26.9038 44.3651 27.1447 43.9112C27.191 43.8093 27.2373 43.7166 27.2836 43.6333C27.33 43.5406 27.3763 43.4433 27.4226 43.3414C27.4411 43.2951 27.4597 43.2534 27.4782 43.2164C27.4967 43.1793 27.5152 43.1376 27.5338 43.0913C27.5801 42.9801 27.6125 42.8875 27.631 42.8134C27.631 42.7485 27.6172 42.7022 27.5894 42.6744C27.4597 42.6003 27.3624 42.5493 27.2975 42.5215C27.0289 42.3918 26.7695 42.2621 26.5193 42.1324C26.2692 41.9935 26.0098 41.8499 25.7411 41.7017C25.6114 41.6275 25.4771 41.5581 25.3381 41.4932C25.2084 41.4284 25.0695 41.3728 24.9212 41.3264C24.8934 41.3172 24.861 41.3079 24.824 41.2987C24.7962 41.2894 24.7684 41.2848 24.7406 41.2848C24.6757 41.2755 24.6387 41.2755 24.6294 41.2848C24.6201 41.2848 24.6109 41.2848 24.6016 41.2848C24.5831 41.3126 24.5692 41.3403 24.5599 41.3681C24.5599 41.3959 24.5553 41.4191 24.546 41.4376V41.4932Z" fill="black"/>
<path d="M18.8688 50.5397C18.7947 50.6694 18.6789 50.7574 18.5214 50.8037C18.3732 50.8501 18.2342 50.8269 18.1045 50.7342C17.8544 50.549 17.6135 50.359 17.3819 50.1645C17.1503 49.9607 16.9002 49.78 16.6315 49.6225C16.3906 49.4743 16.1498 49.34 15.9089 49.2195C15.668 49.0898 15.4364 48.9416 15.2141 48.7748C14.9454 48.571 14.6953 48.3487 14.4637 48.1078C14.4544 48.571 14.459 49.0342 14.4776 49.4975C14.4961 49.9514 14.5239 50.41 14.5609 50.8732C14.5795 51.0307 14.5285 51.1604 14.4081 51.2623C14.2876 51.3735 14.1579 51.4291 14.019 51.4291C13.8522 51.4291 13.7225 51.3735 13.6299 51.2623C13.5372 51.1604 13.4816 51.0307 13.4631 50.8732C13.4075 50.2062 13.3751 49.553 13.3658 48.9138C13.3566 48.2653 13.3705 47.6122 13.4075 46.9544C13.3334 46.8525 13.2593 46.7506 13.1852 46.6487C13.1111 46.5375 13.0416 46.4263 12.9767 46.3152C12.9212 46.204 12.898 46.0975 12.9073 45.9956C12.9258 45.8937 12.9628 45.8056 13.0184 45.7315C13.0833 45.6574 13.1574 45.5972 13.2408 45.5509C13.3334 45.5046 13.4307 45.486 13.5326 45.4953C13.5511 45.2822 13.5743 45.0691 13.6021 44.8561C13.6299 44.6337 13.6577 44.416 13.6855 44.2029C13.7133 44.0547 13.7364 43.9111 13.7549 43.7721C13.7827 43.6239 13.8059 43.4757 13.8244 43.3274C13.843 43.2533 13.8522 43.1838 13.8522 43.119C13.8615 43.0541 13.8754 42.9847 13.8939 42.9105C13.8939 42.8735 13.9032 42.8272 13.9217 42.7716C13.931 42.6511 13.9356 42.5353 13.9356 42.4242C13.9356 42.3037 13.9402 42.1833 13.9495 42.0629C13.9588 41.9146 13.9727 41.7571 13.9912 41.5904C14.019 41.4144 14.056 41.2476 14.1024 41.0901C14.1579 40.9234 14.2321 40.7705 14.3247 40.6315C14.4173 40.4926 14.5424 40.386 14.6999 40.3119C14.8481 40.2471 14.9964 40.21 15.1446 40.2007C15.3021 40.1915 15.4549 40.2007 15.6032 40.2285C15.7607 40.2563 15.9135 40.298 16.0618 40.3536C16.21 40.3999 16.3536 40.4509 16.4925 40.5065C16.8168 40.6269 17.1364 40.7659 17.4514 40.9234C17.7756 41.0716 18.0628 41.2661 18.313 41.507C18.5538 41.7479 18.7623 42.0351 18.9383 42.3686C19.1143 42.6928 19.1931 43.031 19.1746 43.383C19.156 43.5961 19.1097 43.786 19.0356 43.9528C18.9707 44.1103 18.8781 44.2724 18.7577 44.4392C18.4612 44.8561 18.1416 45.2544 17.7988 45.6343C17.456 46.0141 17.0901 46.3615 16.701 46.6765C16.5157 46.8247 16.3119 46.9729 16.0895 47.1212C15.8765 47.2694 15.6495 47.3945 15.4086 47.4964C15.492 47.5705 15.5754 47.6446 15.6588 47.7187C15.7421 47.7928 15.8301 47.8577 15.9228 47.9133C16.1637 48.0708 16.4045 48.219 16.6454 48.358C16.8955 48.4877 17.1364 48.6313 17.368 48.7887C17.5904 48.9462 17.8081 49.113 18.0212 49.289C18.2342 49.465 18.4473 49.6318 18.6604 49.7893C18.7901 49.8727 18.8735 49.9838 18.9105 50.1228C18.9568 50.2618 18.9429 50.4007 18.8688 50.5397ZM15.1168 46.4125C15.3391 46.292 15.5383 46.1669 15.7143 46.0372C15.8996 45.8983 16.0803 45.7501 16.2563 45.5926C16.4416 45.4258 16.6222 45.2498 16.7983 45.0645C16.9743 44.8792 17.1457 44.6939 17.3124 44.5086C17.3773 44.4253 17.4375 44.3511 17.4931 44.2863C17.5487 44.2214 17.5996 44.1612 17.6459 44.1056C17.6923 44.0408 17.7386 43.9759 17.7849 43.9111C17.8405 43.837 17.8961 43.7536 17.9517 43.661C17.9702 43.6332 17.9887 43.6054 18.0073 43.5776C18.0258 43.5498 18.0443 43.522 18.0628 43.4942C18.0721 43.2348 18.0165 42.9939 17.8961 42.7716C17.7386 42.5029 17.5394 42.2852 17.2985 42.1184C17.0669 41.9517 16.8075 41.8127 16.5203 41.7016C16.3536 41.6274 16.1868 41.5626 16.0201 41.507C15.8533 41.4514 15.6773 41.4005 15.492 41.3541C15.4457 41.3356 15.3762 41.3171 15.2836 41.2986C15.228 41.3171 15.1909 41.3449 15.1724 41.3819C15.1353 41.5024 15.1168 41.5858 15.1168 41.6321C15.1075 41.6599 15.0936 41.7108 15.0751 41.7849C15.0658 41.8776 15.0566 41.9517 15.0473 42.0073C15.0473 42.0536 15.0473 42.1046 15.0473 42.1601C15.0195 42.7994 14.95 43.4293 14.8389 44.0501C14.737 44.6708 14.6536 45.3007 14.5887 45.94C14.5702 46.0419 14.5563 46.1484 14.547 46.2596C14.547 46.3615 14.5424 46.4634 14.5331 46.5653C14.6165 46.5746 14.6628 46.5746 14.6721 46.5653C14.774 46.5468 14.8528 46.5283 14.9083 46.5097C14.9732 46.4819 15.0427 46.4495 15.1168 46.4125Z" fill="black"/>
<path d="M7.5813 50.2058C7.36822 50.0483 7.17367 49.8722 6.99764 49.6777C6.83089 49.4739 6.67803 49.2608 6.53906 49.0384C6.40936 48.8439 6.28429 48.6355 6.16386 48.4131C6.04342 48.1908 5.93688 47.9638 5.84424 47.7322C5.7516 47.5006 5.67748 47.2643 5.6219 47.0235C5.57557 46.7826 5.56168 46.5417 5.58021 46.3008C5.608 45.8284 5.65432 45.3652 5.71917 44.9112C5.79329 44.448 5.89056 43.994 6.011 43.5494C6.04805 43.3826 6.09438 43.1973 6.14996 42.9935C6.20555 42.7897 6.27503 42.5951 6.35841 42.4098C6.45105 42.2153 6.55759 42.0393 6.67803 41.8818C6.79846 41.7243 6.95132 41.6038 7.13661 41.5205C7.41454 41.4 7.69247 41.3583 7.9704 41.3954C8.24832 41.4232 8.51699 41.4973 8.77639 41.6177C9.04505 41.7382 9.29982 41.8864 9.54069 42.0624C9.78157 42.2292 10.0085 42.3959 10.2216 42.5627C10.4162 42.7202 10.6061 42.887 10.7914 43.063C10.9859 43.2297 11.1851 43.3919 11.3889 43.5494C11.6298 43.7624 11.8707 43.9755 12.1115 44.1886C12.3617 44.4017 12.5655 44.6472 12.723 44.9251C12.9083 45.2401 13.0148 45.5597 13.0426 45.884C13.0704 46.1989 13.0472 46.5139 12.9731 46.8289C12.899 47.1346 12.7832 47.4357 12.6257 47.7322C12.4682 48.0286 12.2968 48.3158 12.1115 48.5938C11.9448 48.8346 11.7502 49.0894 11.5279 49.3581C11.3148 49.6267 11.0739 49.8722 10.8053 50.0946C10.5459 50.3169 10.2633 50.4929 9.95759 50.6226C9.66113 50.7523 9.34614 50.7987 9.01263 50.7616C8.81808 50.7338 8.67448 50.6597 8.58184 50.5393C8.40582 50.5115 8.23443 50.4744 8.06767 50.4281C7.90091 50.3818 7.73879 50.3077 7.5813 50.2058ZM6.69192 46.2036C6.67339 46.4352 6.68266 46.6483 6.71972 46.8428C6.76604 47.0374 6.84015 47.2551 6.94206 47.4959C7.07176 47.7646 7.21536 48.0379 7.37285 48.3158C7.53034 48.5845 7.71563 48.83 7.92871 49.0523C8.11399 49.2562 8.32707 49.3812 8.56794 49.4275C8.72544 49.4553 8.8783 49.4831 9.02653 49.5109C9.17475 49.5295 9.32298 49.5619 9.47121 49.6082C9.5268 49.5897 9.58238 49.5711 9.63797 49.5526C9.69356 49.5248 9.74914 49.4878 9.80473 49.4414C9.96222 49.3395 10.1058 49.2284 10.2355 49.1079C10.3652 48.9875 10.4903 48.8624 10.6107 48.7327C10.8423 48.4733 11.0647 48.1908 11.2778 47.885C11.5001 47.5793 11.6761 47.2643 11.8058 46.9401C11.9355 46.6158 11.9865 46.3101 11.9587 46.0229C11.9309 45.7357 11.7966 45.4578 11.5557 45.1891C11.3333 44.939 11.0878 44.712 10.8192 44.5082C10.5598 44.2951 10.305 44.082 10.0549 43.869C9.84178 43.6837 9.63334 43.5077 9.42952 43.3409C9.22571 43.1741 9.00337 43.0167 8.76249 42.8684C8.54015 42.7202 8.32244 42.609 8.10936 42.5349C8.08157 42.5256 8.05377 42.521 8.02598 42.521C8.00745 42.5118 7.98429 42.5025 7.9565 42.4932L7.74805 42.4793C7.67394 42.4979 7.62762 42.5164 7.60909 42.5349C7.54424 42.609 7.50718 42.6461 7.49792 42.6461C7.43307 42.7573 7.39138 42.836 7.37285 42.8823C7.35432 42.9286 7.32653 43.0028 7.28947 43.1047C7.19683 43.3733 7.11808 43.6466 7.05323 43.9246C6.98838 44.1932 6.93279 44.4619 6.88647 44.7306C6.84015 44.9992 6.79846 45.2447 6.7614 45.4671C6.73361 45.6894 6.71045 45.9349 6.69192 46.2036Z" fill="black"/>
<path d="M0.559564 51.3314C0.420599 51.3314 0.286267 51.2758 0.156567 51.1647C0.0361308 51.0535 -0.0148229 50.9238 0.00370572 50.7756C0.151935 49.2933 0.226049 47.811 0.226049 46.3287C0.226049 44.8464 0.221417 43.3595 0.212152 41.8679C0.138038 41.7568 0.0963487 41.6317 0.0870844 41.4927C0.0870844 41.3445 0.138038 41.2194 0.239945 41.1175C0.295531 40.9508 0.406703 40.8442 0.57346 40.7979C0.740217 40.7516 0.897711 40.7655 1.04594 40.8396C1.48136 40.747 1.92142 40.696 2.3661 40.6867C2.81079 40.6682 3.25547 40.6682 3.70016 40.6867C4.14485 40.696 4.58953 40.7099 5.03422 40.7284C5.48817 40.7377 5.93749 40.7284 6.38217 40.7006C6.5582 40.6914 6.6879 40.7423 6.77128 40.8535C6.86392 40.9554 6.91024 41.0758 6.91024 41.2148C6.91024 41.3538 6.86392 41.4881 6.77128 41.6178C6.6879 41.7382 6.5582 41.8031 6.38217 41.8124C5.96528 41.8402 5.54376 41.8448 5.1176 41.8263C4.69144 41.8077 4.26528 41.7938 3.83913 41.7846C3.41297 41.766 2.99144 41.7614 2.57455 41.7707C2.15766 41.7799 1.74076 41.8263 1.32387 41.9096C1.32387 42.5489 1.32387 43.1835 1.32387 43.8134C1.33313 44.4434 1.33776 45.078 1.33776 45.7173C1.62496 45.7173 1.91678 45.7126 2.21324 45.7034C2.5097 45.6941 2.80152 45.6895 3.08872 45.6895C3.38517 45.6895 3.677 45.7034 3.96419 45.7312C4.26065 45.7497 4.55248 45.7914 4.83967 45.8562C5.01569 45.9025 5.13149 45.9906 5.18708 46.1203C5.24267 46.25 5.25193 46.3843 5.21487 46.5233C5.17782 46.653 5.09907 46.7641 4.97863 46.8568C4.86746 46.9494 4.72387 46.9726 4.54784 46.9263C4.01978 46.8058 3.48245 46.7595 2.93586 46.7873C2.39853 46.8151 1.8612 46.829 1.32387 46.829C1.30534 47.4867 1.28218 48.1445 1.25439 48.8023C1.22659 49.4508 1.18027 50.1085 1.11542 50.7756C1.09689 50.9238 1.03668 51.0535 0.934768 51.1647C0.842125 51.2758 0.717057 51.3314 0.559564 51.3314Z" fill="black"/>
<g clip-path="url(#clip0_2000_205)">
<path d="M29.2956 30.4003C26.6066 30.4003 24.2216 29.0612 22.7812 27.0128C21.3408 29.0612 18.9559 30.4003 16.2669 30.4003C11.8769 30.4003 8.30488 26.8283 8.30488 22.4383V8.0126L4.60616 5.548C3.94025 5.10285 3.76292 4.20531 4.20445 3.5394C4.64597 2.87349 5.54713 2.69253 6.21304 3.13768L11.2001 6.46363V22.4383C11.2001 25.2322 13.4729 27.505 16.2669 27.505C19.0608 27.505 21.3336 25.2322 21.3336 22.4383V21.7145H24.2289V22.4383C24.2289 25.2322 26.5017 27.505 29.2956 27.505C32.0895 27.505 34.3623 25.2322 34.3623 22.4383V6.46363L39.3494 3.13768C40.0154 2.69253 40.9129 2.87349 41.358 3.5394C41.8032 4.20531 41.6222 5.10285 40.9563 5.548L37.2576 8.0126V22.4383C37.2576 26.8283 33.6856 30.4003 29.2956 30.4003Z" fill="#FF6636"/>
<path d="M22.7808 23.8859C23.9801 23.8859 24.9523 22.9137 24.9523 21.7144C24.9523 20.5152 23.9801 19.543 22.7808 19.543C21.5816 19.543 20.6094 20.5152 20.6094 21.7144C20.6094 22.9137 21.5816 23.8859 22.7808 23.8859Z" fill="#FF6636"/>
<path d="M27.8482 15.5623C27.8482 14.9627 27.3621 14.4766 26.7625 14.4766C26.1629 14.4766 25.6768 14.9627 25.6768 15.5623V17.0099C25.6768 17.6096 26.1629 18.0957 26.7625 18.0957C27.3621 18.0957 27.8482 17.6096 27.8482 17.0099V15.5623Z" fill="#FF6636"/>
<path d="M19.8863 15.5623C19.8863 14.9627 19.4002 14.4766 18.8006 14.4766C18.2009 14.4766 17.7148 14.9627 17.7148 15.5623V17.0099C17.7148 17.6096 18.2009 18.0957 18.8006 18.0957C19.4002 18.0957 19.8863 17.6096 19.8863 17.0099V15.5623Z" fill="#FF6636"/>
</g>
<defs>
<clipPath id="clip0_2000_205">
<rect width="37.6386" height="30.4004" fill="white" transform="translate(3.96191)"/>
</clipPath>
</defs>
</svg>
