<svg width="124" height="139" viewBox="0 0 124 139" fill="none" xmlns="http://www.w3.org/2000/svg">
<path d="M100.132 135.774C99.9075 136.097 99.646 136.309 99.3471 136.409C99.0482 136.508 98.7492 136.521 98.4503 136.446C98.1763 136.347 97.9272 136.185 97.7031 135.96C97.4789 135.711 97.3543 135.4 97.3294 135.026C97.2796 134.678 97.2547 134.453 97.2547 134.354C97.2049 134.155 97.1675 133.955 97.1426 133.756C97.1177 133.557 97.0803 133.357 97.0305 133.158C96.9309 132.66 96.8313 132.162 96.7316 131.664C96.6569 131.165 96.5573 130.667 96.4327 130.169C96.1587 128.899 95.8723 127.653 95.5734 126.433C95.2745 125.187 94.988 123.942 94.714 122.696C94.44 121.576 94.166 120.455 93.892 119.334C93.618 118.188 93.344 117.055 93.07 115.934C92.9704 115.56 92.8832 115.186 92.8085 114.813C92.7337 114.439 92.6466 114.066 92.5469 113.692C92.4971 113.493 92.4473 113.281 92.3975 113.057C92.3477 112.808 92.3352 112.583 92.3601 112.384C92.4099 111.961 92.5594 111.612 92.8085 111.338C93.0825 111.039 93.4312 110.89 93.8546 110.89C94.2283 110.89 94.577 111.039 94.9008 111.338C95.2495 111.612 95.399 111.961 95.3492 112.384C95.3741 112.534 95.3865 112.658 95.3865 112.758C95.4115 112.857 95.4488 112.97 95.4986 113.094C95.5734 113.493 95.6481 113.879 95.7228 114.252C95.8224 114.626 95.9096 115 95.9844 115.373C96.2584 116.544 96.5324 117.702 96.8063 118.848C97.1053 119.969 97.3917 121.102 97.6657 122.248C97.9397 123.494 98.2137 124.727 98.4877 125.947C98.7866 127.168 99.0731 128.401 99.3471 129.646C99.3969 129.895 99.4467 130.132 99.4965 130.356C99.5463 130.58 99.5961 130.804 99.646 131.028C100.468 129.758 101.253 128.475 102 127.18C102.772 125.86 103.494 124.515 104.167 123.145C104.989 121.476 105.724 119.745 106.371 117.951C107.019 116.158 107.405 114.327 107.53 112.459C107.555 112.06 107.704 111.737 107.978 111.487C108.252 111.238 108.551 111.089 108.875 111.039C109.199 110.989 109.51 111.052 109.809 111.226C110.133 111.375 110.344 111.662 110.444 112.085C110.867 113.679 111.241 115.299 111.565 116.943C111.914 118.586 112.262 120.218 112.611 121.837C112.985 123.456 113.396 125.063 113.844 126.657C114.317 128.251 114.903 129.808 115.6 131.327C116.322 130.381 116.958 129.397 117.506 128.376C118.054 127.33 118.502 126.221 118.851 125.05C119.449 123.107 119.847 121.14 120.046 119.147C120.271 117.129 120.482 115.112 120.682 113.094C120.731 112.696 120.881 112.347 121.13 112.048C121.404 111.749 121.753 111.6 122.176 111.6C122.55 111.6 122.898 111.749 123.222 112.048C123.571 112.322 123.72 112.671 123.671 113.094C123.446 115.311 123.222 117.515 122.998 119.707C122.774 121.874 122.326 124.017 121.653 126.134C121.08 127.853 120.345 129.434 119.449 130.879C118.577 132.324 117.543 133.719 116.347 135.064C116.024 135.412 115.6 135.562 115.077 135.512C114.579 135.437 114.218 135.188 113.993 134.765C113.321 133.569 112.736 132.336 112.237 131.066C111.739 129.796 111.303 128.513 110.93 127.217C110.556 125.922 110.22 124.614 109.921 123.294C109.622 121.949 109.336 120.617 109.062 119.296C108.414 121.015 107.679 122.709 106.857 124.378C105.886 126.371 104.827 128.313 103.681 130.206C102.535 132.075 101.352 133.93 100.132 135.774Z" fill="white"/>
<path d="M78.5252 136.334C78.5252 136.807 78.3633 137.156 78.0395 137.38C77.7406 137.629 77.4043 137.754 77.0307 137.754C76.657 137.754 76.3208 137.629 76.0218 137.38C75.7229 137.156 75.5735 136.807 75.5735 136.334C75.5735 134.391 75.7977 132.523 76.246 130.73C76.6944 128.936 77.2548 127.155 77.9274 125.387C77.753 125.063 77.7032 124.702 77.7779 124.303C77.9274 123.78 78.2512 123.456 78.7494 123.332C79.2475 122.136 79.7582 120.953 80.2813 119.782C80.8293 118.586 81.3524 117.391 81.8505 116.195C82.3487 115 82.8095 113.791 83.233 112.571C83.6564 111.35 84.0051 110.105 84.2791 108.835C84.3539 108.461 84.5033 108.137 84.7275 107.863C84.9766 107.589 85.3129 107.452 85.7363 107.452C86.1349 107.452 86.496 107.602 86.8199 107.901C87.1437 108.175 87.2807 108.523 87.2308 108.947C87.1561 110.391 87.181 111.724 87.3056 112.945C87.4301 114.14 87.6169 115.336 87.866 116.531C88.1151 117.702 88.3891 118.885 88.688 120.081C89.0118 121.252 89.3107 122.422 89.5847 123.593C89.8587 124.714 90.1078 125.835 90.332 126.956C90.5562 128.077 90.9174 129.16 91.4155 130.206C91.6646 130.73 91.9262 131.24 92.2002 131.738C92.4742 132.212 92.7731 132.697 93.0969 133.195C93.3958 133.644 93.6698 134.117 93.9189 134.615C94.168 135.089 94.3423 135.612 94.442 136.185C94.4918 136.583 94.4295 136.957 94.2552 137.305C94.1057 137.654 93.8193 137.891 93.3958 138.015C93.0471 138.115 92.6734 138.065 92.2749 137.866C91.8764 137.667 91.6397 137.368 91.565 136.969C91.4654 136.396 91.2661 135.886 90.9672 135.437C90.6932 134.989 90.4067 134.528 90.1078 134.055C89.7591 133.507 89.4353 132.959 89.1364 132.411C88.8624 131.838 88.6133 131.253 88.3891 130.655C88.14 130.032 87.9283 129.409 87.7539 128.787C87.5796 128.139 87.4177 127.491 87.2682 126.844C86.1473 126.769 85.0389 126.719 83.9429 126.694C82.8718 126.644 81.7883 126.557 80.6923 126.433C80.0945 128.027 79.5838 129.646 79.1604 131.29C78.7618 132.934 78.5501 134.615 78.5252 136.334ZM82.0373 123.107C81.9875 123.182 81.9502 123.269 81.9253 123.369C81.9253 123.444 81.9003 123.518 81.8505 123.593C82.6476 123.668 83.4322 123.718 84.2044 123.743C84.9766 123.743 85.7612 123.767 86.5583 123.817C86.2843 122.622 85.9854 121.438 85.6616 120.268C85.3627 119.072 85.0887 117.864 84.8396 116.644C84.3912 117.74 83.9304 118.823 83.4572 119.894C82.9839 120.94 82.5106 122.011 82.0373 123.107Z" fill="white"/>
<path d="M63.3453 115.186C63.2955 114.788 63.2332 114.402 63.1585 114.028C63.1087 113.654 63.0713 113.281 63.0464 112.907C62.9966 112.459 62.9841 111.985 63.009 111.487C63.0589 110.989 63.1585 110.516 63.3079 110.067C63.4823 109.619 63.7189 109.221 64.0178 108.872C64.3168 108.523 64.7278 108.274 65.2508 108.125C66.0479 107.9 66.8575 107.938 67.6795 108.237C68.5014 108.511 69.2736 108.822 69.996 109.171C70.6934 109.519 71.3784 109.893 72.051 110.292C72.7235 110.69 73.421 111.064 74.1433 111.413C74.5169 111.587 74.8906 111.774 75.2642 111.973C75.6378 112.172 75.9617 112.409 76.2357 112.683C76.5346 112.932 76.7712 113.243 76.9456 113.617C77.1448 113.966 77.2569 114.377 77.2818 114.85C77.3067 115.348 77.2196 115.834 77.0203 116.307C76.8459 116.78 76.6591 117.241 76.4598 117.69C75.3389 120.18 73.9067 122.509 72.1631 124.677C71.5154 125.474 70.7806 126.221 69.9586 126.918C69.1615 127.591 68.2524 128.027 67.2311 128.226C67.4553 129.646 67.7044 131.041 67.9784 132.411C68.2773 133.781 68.6135 135.163 68.9872 136.558C69.1117 137.031 69.0494 137.417 68.8004 137.716C68.5762 138.04 68.2897 138.252 67.941 138.352C67.5923 138.451 67.2311 138.426 66.8575 138.277C66.4838 138.127 66.2347 137.816 66.1102 137.343C65.3131 134.304 64.7028 131.265 64.2794 128.226C63.8559 125.162 63.5819 122.049 63.4574 118.885C63.4325 118.462 63.42 118.051 63.42 117.652C63.42 117.254 63.4076 116.843 63.3827 116.419C63.3827 116.245 63.3827 116.083 63.3827 115.934C63.3827 115.759 63.3702 115.597 63.3453 115.448V115.186ZM65.9981 111.562C65.9732 112.11 65.9981 112.695 66.0728 113.318C66.0977 113.592 66.1102 113.766 66.1102 113.841C66.1351 113.916 66.1476 113.978 66.1476 114.028L66.2596 114.701C66.3344 115.448 66.3717 116.208 66.3717 116.98C66.4216 118.076 66.4589 119.172 66.4838 120.268C66.5336 121.339 66.6084 122.422 66.708 123.518C66.7329 123.817 66.7454 124.116 66.7454 124.415C66.7703 124.714 66.8076 125 66.8575 125.274C67.1065 125.2 67.2809 125.137 67.3805 125.088C67.4802 125.013 67.5798 124.951 67.6795 124.901C67.8289 124.801 67.941 124.714 68.0157 124.639C68.6384 124.141 69.1615 123.643 69.585 123.145C70.0084 122.646 70.407 122.136 70.7806 121.613C71.6026 120.467 72.3374 119.284 72.9851 118.063C73.1096 117.789 73.2341 117.54 73.3587 117.316C73.4832 117.067 73.6078 116.805 73.7323 116.531C73.7821 116.407 73.832 116.295 73.8818 116.195C73.9316 116.095 73.9814 115.983 74.0312 115.859C74.1558 115.56 74.2429 115.311 74.2928 115.112C74.2928 114.937 74.2554 114.813 74.1807 114.738C73.832 114.539 73.5704 114.402 73.396 114.327C72.6737 113.978 71.9762 113.629 71.3037 113.281C70.6312 112.907 69.9337 112.521 69.2114 112.122C68.8626 111.923 68.5014 111.736 68.1278 111.562C67.7791 111.388 67.4055 111.238 67.0069 111.114C66.9322 111.089 66.845 111.064 66.7454 111.039C66.6706 111.014 66.5959 111.002 66.5212 111.002C66.3468 110.977 66.2472 110.977 66.2223 111.002C66.1974 111.002 66.1725 111.002 66.1476 111.002C66.0977 111.076 66.0604 111.151 66.0355 111.226C66.0355 111.3 66.023 111.363 65.9981 111.413V111.562Z" fill="white"/>
<path d="M50.7329 135.886C50.5337 136.235 50.2223 136.471 49.7989 136.596C49.4003 136.72 49.0267 136.658 48.678 136.409C48.0054 135.911 47.3578 135.4 46.7351 134.877C46.1123 134.329 45.4398 133.843 44.7174 133.42C44.0698 133.021 43.4222 132.66 42.7746 132.336C42.1269 131.988 41.5042 131.589 40.9064 131.141C40.184 130.593 39.5115 129.995 38.8888 129.347C38.8639 130.593 38.8763 131.838 38.9261 133.084C38.9759 134.304 39.0507 135.537 39.1503 136.783C39.2001 137.206 39.0631 137.555 38.7393 137.829C38.4155 138.128 38.0668 138.277 37.6931 138.277C37.2448 138.277 36.8961 138.128 36.647 137.829C36.3979 137.555 36.2484 137.206 36.1986 136.783C36.0491 134.989 35.962 133.233 35.9371 131.514C35.9121 129.771 35.9495 128.015 36.0491 126.246C35.8499 125.972 35.6506 125.698 35.4513 125.424C35.2521 125.125 35.0652 124.826 34.8909 124.527C34.7414 124.228 34.6792 123.942 34.7041 123.668C34.7539 123.394 34.8535 123.157 35.003 122.958C35.1773 122.759 35.3766 122.597 35.6008 122.472C35.8499 122.348 36.1114 122.298 36.3854 122.323C36.4352 121.75 36.4975 121.177 36.5722 120.604C36.647 120.006 36.7217 119.421 36.7964 118.848C36.8711 118.45 36.9334 118.063 36.9832 117.69C37.058 117.291 37.1202 116.893 37.17 116.494C37.2199 116.295 37.2448 116.108 37.2448 115.934C37.2697 115.759 37.307 115.573 37.3569 115.373C37.3569 115.274 37.3818 115.149 37.4316 115C37.4565 114.676 37.469 114.365 37.469 114.066C37.469 113.742 37.4814 113.418 37.5063 113.094C37.5312 112.696 37.5686 112.272 37.6184 111.824C37.6931 111.351 37.7928 110.902 37.9173 110.479C38.0668 110.03 38.266 109.619 38.5151 109.246C38.7642 108.872 39.1005 108.586 39.5239 108.386C39.9225 108.212 40.321 108.112 40.7196 108.087C41.143 108.063 41.554 108.087 41.9526 108.162C42.376 108.237 42.787 108.349 43.1855 108.498C43.5841 108.623 43.9702 108.76 44.3438 108.909C45.2156 109.233 46.075 109.607 46.9219 110.03C47.7937 110.429 48.5659 110.952 49.2384 111.6C49.886 112.247 50.4465 113.019 50.9198 113.916C51.393 114.788 51.6048 115.697 51.5549 116.644C51.5051 117.217 51.3806 117.727 51.1813 118.176C51.0069 118.599 50.7579 119.035 50.434 119.483C49.637 120.604 48.7776 121.675 47.856 122.697C46.9343 123.718 45.9504 124.652 44.9043 125.499C44.4061 125.897 43.8581 126.296 43.2603 126.694C42.6874 127.093 42.0771 127.429 41.4295 127.703C41.6536 127.902 41.8778 128.102 42.102 128.301C42.3262 128.5 42.5628 128.675 42.8119 128.824C43.4595 129.248 44.1072 129.646 44.7548 130.02C45.4273 130.368 46.075 130.755 46.6977 131.178C47.2955 131.601 47.8809 132.05 48.4538 132.523C49.0267 132.996 49.5996 133.445 50.1725 133.868C50.5212 134.092 50.7454 134.391 50.845 134.765C50.9696 135.139 50.9322 135.512 50.7329 135.886ZM40.6448 124.789C41.2427 124.465 41.7782 124.129 42.2515 123.78C42.7496 123.406 43.2354 123.008 43.7086 122.584C44.2068 122.136 44.6925 121.663 45.1658 121.165C45.6391 120.666 46.0999 120.168 46.5482 119.67C46.7226 119.446 46.8845 119.247 47.034 119.072C47.1834 118.898 47.3204 118.736 47.445 118.587C47.5695 118.412 47.6941 118.238 47.8186 118.063C47.9681 117.864 48.1175 117.64 48.267 117.391C48.3168 117.316 48.3666 117.241 48.4164 117.167C48.4662 117.092 48.5161 117.017 48.5659 116.943C48.5908 116.245 48.4413 115.597 48.1175 115C47.6941 114.277 47.1585 113.692 46.5109 113.244C45.8882 112.795 45.1907 112.422 44.4185 112.123C43.9702 111.923 43.5218 111.749 43.0735 111.6C42.6251 111.45 42.1518 111.313 41.6536 111.189C41.5291 111.139 41.3423 111.089 41.0932 111.039C40.9437 111.089 40.8441 111.164 40.7943 111.263C40.6947 111.587 40.6448 111.811 40.6448 111.936C40.6199 112.011 40.5826 112.148 40.5327 112.347C40.5078 112.596 40.4829 112.795 40.458 112.945C40.458 113.069 40.458 113.206 40.458 113.356C40.3833 115.074 40.1965 116.768 39.8976 118.437C39.6236 120.106 39.3994 121.8 39.225 123.519C39.1752 123.793 39.1379 124.079 39.1129 124.378C39.1129 124.652 39.1005 124.926 39.0756 125.2C39.2998 125.225 39.4243 125.225 39.4492 125.2C39.7232 125.15 39.9349 125.1 40.0844 125.05C40.2588 124.976 40.4456 124.889 40.6448 124.789Z" fill="white"/>
<path d="M20.3834 134.989C19.8105 134.565 19.2874 134.092 18.8141 133.569C18.3657 133.021 17.9547 132.448 17.5811 131.85C17.2324 131.327 16.8961 130.767 16.5723 130.169C16.2485 129.571 15.962 128.961 15.7129 128.338C15.4639 127.715 15.2646 127.08 15.1151 126.432C14.9906 125.785 14.9532 125.137 15.003 124.49C15.0778 123.219 15.2023 121.974 15.3767 120.753C15.5759 119.508 15.8375 118.287 16.1613 117.092C16.2609 116.643 16.3855 116.145 16.5349 115.597C16.6844 115.049 16.8712 114.526 17.0954 114.028C17.3445 113.505 17.6309 113.031 17.9547 112.608C18.2786 112.185 18.6896 111.861 19.1877 111.637C19.935 111.313 20.6823 111.201 21.4295 111.3C22.1768 111.375 22.8992 111.574 23.5966 111.898C24.319 112.222 25.004 112.62 25.6516 113.094C26.2992 113.542 26.9095 113.99 27.4824 114.439C28.0055 114.862 28.5161 115.311 29.0143 115.784C29.5374 116.232 30.0729 116.668 30.6209 117.092C31.2685 117.665 31.9162 118.237 32.5638 118.81C33.2364 119.383 33.7843 120.043 34.2078 120.791C34.706 121.637 34.9924 122.497 35.0672 123.369C35.1419 124.216 35.0796 125.062 34.8803 125.909C34.6811 126.731 34.3697 127.541 33.9463 128.338C33.5228 129.135 33.062 129.907 32.5638 130.655C32.1155 131.302 31.5924 131.987 30.9946 132.709C30.4216 133.432 29.774 134.092 29.0517 134.69C28.3542 135.288 27.5945 135.761 26.7725 136.11C25.9754 136.458 25.1285 136.583 24.2318 136.483C23.7087 136.408 23.3226 136.209 23.0735 135.885C22.6003 135.811 22.1394 135.711 21.6911 135.586C21.2427 135.462 20.8068 135.263 20.3834 134.989ZM17.9921 124.228C17.9423 124.851 17.9672 125.424 18.0668 125.947C18.1914 126.47 18.3907 127.055 18.6646 127.703C19.0134 128.425 19.3995 129.16 19.8229 129.907C20.2464 130.63 20.7445 131.29 21.3174 131.888C21.8156 132.436 22.3885 132.772 23.0362 132.896C23.4596 132.971 23.8706 133.046 24.2691 133.12C24.6677 133.17 25.0662 133.257 25.4648 133.382C25.6142 133.332 25.7637 133.282 25.9131 133.233C26.0626 133.158 26.212 133.058 26.3615 132.934C26.7849 132.66 27.171 132.361 27.5198 132.037C27.8685 131.713 28.2048 131.377 28.5286 131.028C29.1513 130.331 29.7491 129.571 30.322 128.749C30.9198 127.927 31.3931 127.08 31.7418 126.208C32.0905 125.336 32.2275 124.514 32.1528 123.742C32.0781 122.97 31.7169 122.223 31.0693 121.5C30.4715 120.828 29.8114 120.218 29.089 119.67C28.3916 119.097 27.7066 118.524 27.034 117.951C26.4611 117.453 25.9007 116.98 25.3527 116.531C24.8047 116.083 24.2069 115.659 23.5592 115.261C22.9614 114.862 22.3761 114.563 21.8032 114.364C21.7284 114.339 21.6537 114.327 21.579 114.327C21.5292 114.302 21.4669 114.277 21.3922 114.252L20.8317 114.215C20.6325 114.264 20.5079 114.314 20.4581 114.364C20.2837 114.563 20.1841 114.663 20.1592 114.663C19.9848 114.962 19.8727 115.174 19.8229 115.298C19.7731 115.423 19.6984 115.622 19.5987 115.896C19.3496 116.618 19.1379 117.353 18.9636 118.1C18.7892 118.823 18.6397 119.545 18.5152 120.268C18.3907 120.99 18.2786 121.65 18.1789 122.248C18.1042 122.846 18.0419 123.506 17.9921 124.228Z" fill="white"/>
<path d="M1.5045 138.016C1.13086 138.016 0.769685 137.866 0.42096 137.567C0.0971447 137.268 -0.0398542 136.92 0.00996356 136.521C0.408506 132.536 0.607777 128.55 0.607777 124.565C0.607777 120.579 0.595323 116.581 0.570414 112.571C0.371143 112.272 0.259053 111.936 0.234144 111.562C0.234144 111.164 0.371143 110.828 0.64514 110.554C0.794594 110.105 1.0935 109.819 1.54186 109.694C1.99022 109.57 2.41367 109.607 2.81221 109.806C3.98293 109.557 5.16611 109.42 6.36173 109.395C7.55736 109.345 8.75299 109.345 9.94861 109.395C11.1442 109.42 12.3399 109.458 13.5355 109.507C14.756 109.532 15.9641 109.507 17.1597 109.433C17.633 109.408 17.9817 109.545 18.2059 109.844C18.455 110.118 18.5795 110.441 18.5795 110.815C18.5795 111.189 18.455 111.55 18.2059 111.899C17.9817 112.222 17.633 112.397 17.1597 112.422C16.0388 112.496 14.9055 112.509 13.7597 112.459C12.6139 112.409 11.4681 112.372 10.3222 112.347C9.17644 112.297 8.04308 112.285 6.92218 112.31C5.80128 112.335 4.68038 112.459 3.55948 112.683C3.55948 114.402 3.55948 116.108 3.55948 117.802C3.58439 119.496 3.59684 121.202 3.59684 122.921C4.36902 122.921 5.15365 122.908 5.95074 122.883C6.74782 122.859 7.53245 122.846 8.30463 122.846C9.10171 122.846 9.88634 122.883 10.6585 122.958C11.4556 123.008 12.2402 123.12 13.0124 123.294C13.4857 123.419 13.797 123.656 13.9465 124.004C14.0959 124.353 14.1209 124.714 14.0212 125.088C13.9216 125.437 13.7099 125.736 13.386 125.985C13.0871 126.234 12.701 126.296 12.2278 126.171C10.808 125.848 9.36325 125.723 7.89363 125.798C6.44891 125.873 5.0042 125.91 3.55948 125.91C3.50966 127.678 3.44739 129.447 3.37266 131.215C3.29794 132.959 3.17339 134.728 2.99903 136.521C2.94921 136.92 2.78731 137.268 2.51331 137.567C2.26422 137.866 1.92795 138.016 1.5045 138.016Z" fill="white"/>
<g clip-path="url(#clip0_2_4)">
<path d="M78.7663 81.7376C71.5364 81.7376 65.1239 78.1372 61.2511 72.6297C57.3783 78.1372 50.9658 81.7376 43.7359 81.7376C31.9327 81.7376 22.3285 72.1334 22.3285 60.3302V21.5438L12.3838 14.9173C10.5934 13.7204 10.1166 11.3072 11.3037 9.51675C12.4908 7.72632 14.9138 7.23978 16.7042 8.43665L30.113 17.3791V60.3302C30.113 67.8422 36.2239 73.9531 43.7359 73.9531C51.248 73.9531 57.3588 67.8422 57.3588 60.3302V58.384H65.1433V60.3302C65.1433 67.8422 71.2542 73.9531 78.7663 73.9531C86.2783 73.9531 92.3892 67.8422 92.3892 60.3302V17.3791L105.798 8.43665C107.588 7.23978 110.002 7.72632 111.198 9.51675C112.395 11.3072 111.909 13.7204 110.118 14.9173L100.174 21.5438V60.3302C100.174 72.1334 90.5695 81.7376 78.7663 81.7376Z" fill="white"/>
<path d="M61.251 64.2227C64.4754 64.2227 67.0894 61.6087 67.0894 58.3843C67.0894 55.1598 64.4754 52.5459 61.251 52.5459C58.0265 52.5459 55.4126 55.1598 55.4126 58.3843C55.4126 61.6087 58.0265 64.2227 61.251 64.2227Z" fill="white"/>
<path d="M74.874 41.8416C74.874 40.2293 73.5671 38.9224 71.9548 38.9224C70.3426 38.9224 69.0356 40.2293 69.0356 41.8416V45.7338C69.0356 47.346 70.3426 48.653 71.9548 48.653C73.5671 48.653 74.874 47.346 74.874 45.7338V41.8416Z" fill="white"/>
<path d="M53.4668 41.8416C53.4668 40.2293 52.1598 38.9224 50.5476 38.9224C48.9354 38.9224 47.6284 40.2293 47.6284 41.8416V45.7338C47.6284 47.346 48.9354 48.653 50.5476 48.653C52.1598 48.653 53.4668 47.346 53.4668 45.7338V41.8416Z" fill="white"/>
</g>
<defs>
<clipPath id="clip0_2_4">
<rect width="101.199" height="81.7374" fill="white" transform="translate(10.6519)"/>
</clipPath>
</defs>
</svg>
