<svg width="88" height="64" viewBox="0 0 88 64" fill="none" xmlns="http://www.w3.org/2000/svg">
<path fill-rule="evenodd" clip-rule="evenodd" d="M0.494413 32.2706C0.494413 33.2054 0.823652 34.102 1.4097 34.7631C1.99576 35.4242 2.79061 35.7956 3.61941 35.7956L77.3257 35.7955L57.6569 57.9748C57.3664 58.3026 57.1359 58.6917 56.9786 59.1199C56.8214 59.5481 56.7405 60.0071 56.7405 60.4706C56.7405 60.934 56.8214 61.393 56.9786 61.8212C57.1359 62.2494 57.3664 62.6385 57.6569 62.9663C57.9475 63.294 58.2924 63.554 58.672 63.7313C59.0516 63.9087 59.4585 64 59.8694 64C60.2803 64 60.6872 63.9087 61.0668 63.7313C61.4464 63.554 61.7914 63.294 62.0819 62.9663L87.0819 34.7662C87.3729 34.4388 87.6038 34.0498 87.7614 33.6216C87.9189 33.1933 88 32.7342 88 32.2705C88 31.8069 87.9189 31.3478 87.7614 30.9195C87.6038 30.4913 87.3729 30.1023 87.0819 29.7748L62.0819 1.57485C61.7914 1.24711 61.4464 0.987132 61.0668 0.80976C60.6872 0.632388 60.2803 0.541098 59.8694 0.541099C59.4585 0.541099 59.0516 0.632388 58.672 0.80976C58.2924 0.987132 57.9475 1.24711 57.6569 1.57485C57.3664 1.90259 57.1359 2.29167 56.9786 2.71989C56.8214 3.1481 56.7405 3.60705 56.7405 4.07055C56.7405 4.53405 56.8214 4.993 56.9786 5.42121C57.1359 5.84943 57.3664 6.23851 57.6569 6.56625L77.3257 28.7455L3.61941 28.7456C2.79061 28.7456 1.99576 29.1169 1.4097 29.778C0.823652 30.4391 0.494413 31.3357 0.494413 32.2706Z" fill="black"/>
</svg>
