<svg width="37" height="35" viewBox="0 0 37 35" fill="none" xmlns="http://www.w3.org/2000/svg">
<g opacity="0.5">
<path d="M25.6846 12.7878C26.0728 13.8052 26.5936 14.4968 27.4363 14.8941C28.5658 15.4259 29.7988 15.1037 30.7092 14.0782C32.0995 12.5115 32.0684 9.82745 30.6438 8.34229C29.4448 7.09168 27.5772 7.18925 26.4802 8.56577C25.4109 9.90857 25.2581 11.3867 25.6846 12.7878Z" fill="white"/>
<path d="M10.7501 22.8862C10.1982 21.4193 8.53857 20.425 6.88453 20.57C5.19844 20.7178 4.19819 22.1117 4.66475 23.6618C5.1158 25.1595 6.9911 26.3169 8.63159 26.1108C10.4042 25.888 11.3415 24.4604 10.7493 22.8865L10.7501 22.8862Z" fill="white"/>
<path d="M32.3673 22.4893C32.0803 21.8724 31.7038 21.3652 31.187 20.9724C29.1019 19.3874 27.0591 17.7406 24.9022 16.2574C22.9099 14.8876 20.6947 14.7865 18.463 15.779C16.3847 16.7042 15.1368 18.3253 14.6158 20.5007C14.0693 22.7845 13.5575 25.076 13.012 27.3602C12.3832 29.9929 14.6202 32.0707 17.0085 31.6264C17.7822 31.4826 18.4075 31.0686 18.9821 30.5496C20.6821 29.0157 22.6567 27.9904 24.8867 27.4627C26.1406 27.1661 27.4126 27.065 28.7012 27.1193C30.7317 27.2052 32.29 25.9034 32.4714 23.9488C32.5161 23.4685 32.4062 22.9763 32.3673 22.4893Z" fill="white"/>
<path d="M22.609 7.20254C22.1288 5.99113 21.128 4.77484 19.4241 4.31719C17.9724 3.92763 16.5142 4.62514 15.8526 6.00207C14.5961 8.61653 15.8504 12.0436 18.4936 13.2155C20.3274 14.0287 22.3486 12.9946 22.8996 10.9744C23.2107 9.83375 23.1577 8.71179 22.609 7.20254Z" fill="white"/>
<path d="M7.6898 14.3997C8.50979 16.2399 9.63277 17.4597 11.4433 17.7882C13.448 18.1522 14.9022 16.8817 14.9571 14.8031C15.0188 12.4765 13.0202 10.1247 10.7608 9.86581C8.91655 9.65421 7.46026 10.9703 7.48693 12.8719C7.4953 13.4419 7.63517 14.012 7.6898 14.3997Z" fill="white"/>
</g>
</svg>
