<svg width="59" height="55" viewBox="0 0 59 55" fill="none" xmlns="http://www.w3.org/2000/svg">
<g opacity="0.5">
<path d="M17.7684 19.4928C17.1488 21.1166 16.3175 22.2204 14.9727 22.8544C13.1699 23.7033 11.202 23.189 9.74904 21.5522C7.53009 19.0517 7.57968 14.768 9.85344 12.3977C11.7671 10.4016 14.7477 10.5574 16.4986 12.7543C18.2052 14.8975 18.449 17.2566 17.7684 19.4928Z" fill="white"/>
<path d="M41.6043 35.6103C42.485 33.2691 45.1339 31.6822 47.7738 31.9136C50.4648 32.1495 52.0613 34.3742 51.3166 36.8482C50.5967 39.2385 47.6037 41.0857 44.9854 40.7568C42.1562 40.4013 40.6604 38.1228 41.6055 35.6107L41.6043 35.6103Z" fill="white"/>
<path d="M7.10258 34.9766C7.56063 33.9921 8.16161 33.1825 8.98642 32.5556C12.3142 30.0259 15.5746 27.3976 19.0171 25.0304C22.1968 22.8441 25.7324 22.6828 29.2942 24.2669C32.6112 25.7435 34.603 28.3307 35.4345 31.8028C36.3067 35.4477 37.1235 39.1051 37.9942 42.7507C38.9977 46.9525 35.4275 50.2688 31.6156 49.5596C30.3808 49.3301 29.3828 48.6694 28.4658 47.8411C25.7524 45.3929 22.6009 43.7566 19.0418 42.9144C17.0405 42.4409 15.0104 42.2795 12.9537 42.3663C9.71303 42.5033 7.22606 40.4256 6.9365 37.306C6.86509 36.5394 7.04086 35.7528 7.10297 34.9755L7.10258 34.9766Z" fill="white"/>
<path d="M22.677 10.5787C23.4434 8.64522 25.0408 6.70399 27.7601 5.97357C30.0771 5.35182 32.4044 6.46507 33.4603 8.66268C35.4658 12.8354 33.4638 18.305 29.2453 20.1754C26.3185 21.4734 23.0926 19.8229 22.2133 16.5986C21.7167 14.7781 21.8013 12.9875 22.677 10.5787Z" fill="white"/>
<path d="M46.4884 22.0654C45.1796 25.0024 43.3873 26.9493 40.4977 27.4735C37.2981 28.0546 34.9772 26.0267 34.8896 22.7093C34.7912 18.996 37.981 15.2425 41.5869 14.8292C44.5304 14.4915 46.8547 16.592 46.8121 19.6271C46.7988 20.5367 46.5756 21.4467 46.4884 22.0654Z" fill="white"/>
</g>
</svg>
