<svg width="24" height="24" viewBox="0 0 24 24" fill="none" xmlns="http://www.w3.org/2000/svg">
<path d="M17.6129 15.5161C19.0653 13.5342 19.7159 11.0769 19.4343 8.63587C19.1528 6.19486 17.96 3.95016 16.0945 2.35085C14.2291 0.751532 11.8285 -0.0844439 9.37314 0.0101658C6.91777 0.104776 4.58866 1.12299 2.85178 2.86111C1.11491 4.59923 0.0983577 6.92907 0.00550496 9.3845C-0.0873478 11.8399 0.750346 14.2399 2.35099 16.1042C3.95164 17.9685 6.1972 19.1598 8.63841 19.4395C11.0796 19.7193 13.5365 19.067 15.5174 17.6131H15.5159C15.5609 17.6731 15.6089 17.7302 15.6629 17.7857L21.4379 23.5606C21.7191 23.8421 22.1007 24.0003 22.4986 24.0005C22.8965 24.0006 23.2782 23.8427 23.5596 23.5614C23.8411 23.2801 23.9993 22.8986 23.9994 22.5007C23.9996 22.1028 23.8416 21.7211 23.5604 21.4397L17.7854 15.6646C17.7318 15.6104 17.6741 15.5617 17.6129 15.5161ZM17.9999 9.75015C17.9999 10.8336 17.7865 11.9064 17.3719 12.9073C16.9573 13.9082 16.3496 14.8177 15.5835 15.5838C14.8174 16.3499 13.908 16.9576 12.907 17.3722C11.9061 17.7868 10.8333 18.0002 9.74988 18.0002C8.66648 18.0002 7.59368 17.7868 6.59274 17.3722C5.59181 16.9576 4.68233 16.3499 3.91625 15.5838C3.15017 14.8177 2.54248 13.9082 2.12788 12.9073C1.71327 11.9064 1.49988 10.8336 1.49988 9.75015C1.49988 7.56211 2.36908 5.4637 3.91625 3.91652C5.46343 2.36935 7.56185 1.50015 9.74988 1.50015C11.9379 1.50015 14.0363 2.36935 15.5835 3.91652C17.1307 5.4637 17.9999 7.56211 17.9999 9.75015Z" fill="black"/>
</svg>
