<svg width="30" height="30" viewBox="0 0 30 30" fill="none" xmlns="http://www.w3.org/2000/svg">
<path d="M0 0H30V30H0V0Z" fill="white" fill-opacity="0.01"/>
<path d="M0 0H30V30H0V0Z" fill="white" fill-opacity="0.01"/>
<path d="M17.25 11.625V7.125C17.25 5.26104 15.7389 3.75 13.875 3.75L9.375 13.875V26.25H22.4475C23.5694 26.2627 24.5293 25.4468 24.6975 24.3375L26.25 14.2125C26.3491 13.5598 26.1565 12.8966 25.7233 12.3984C25.2902 11.9003 24.6601 11.6175 24 11.625H17.25Z" fill="#FF6636"/>
<path d="M8 14.0004H5.864C4.92681 13.978 4.12564 15.026 4 16.2799V23.8397C4.12564 25.0936 4.92681 26.022 5.864 25.9996H8V14.0004Z" fill="#FF6636"/>
</svg>
