<svg width="14" height="16" viewBox="0 0 14 16" fill="none" xmlns="http://www.w3.org/2000/svg">
<path d="M1.22289 5.75997C1.22183 5.00093 1.37187 4.24919 1.66439 3.54808C1.9569 2.84697 2.38609 2.21035 2.92722 1.67493C3.46836 1.1395 4.11073 0.715855 4.81731 0.428407C5.52389 0.14096 6.2807 -0.00460196 7.04413 0.000110884C10.2297 0.0236566 12.7778 2.65623 12.7778 5.83228V6.39997C12.7778 9.26523 13.3807 10.9279 13.9117 11.8366C13.9689 11.9337 13.9994 12.0441 14 12.1566C14.0006 12.2692 13.9713 12.3799 13.9152 12.4776C13.859 12.5753 13.7779 12.6565 13.6801 12.7131C13.5823 12.7697 13.4712 12.7997 13.358 12.8H0.641986C0.528789 12.7997 0.417671 12.7697 0.319841 12.7131C0.222011 12.6565 0.140929 12.5752 0.0847763 12.4775C0.0286232 12.3798 -0.000615482 12.2691 9.82308e-06 12.1565C0.000635128 12.044 0.0311022 11.9336 0.0883378 11.8365C0.619668 10.9277 1.22289 9.26508 1.22289 6.39997L1.22289 5.75997ZM4.42514 12.8V13.44C4.42514 14.1189 4.69642 14.7701 5.1793 15.2502C5.66218 15.7303 6.31711 16 7 16C7.6829 16 8.33783 15.7303 8.82071 15.2502C9.30359 14.7701 9.57487 14.1189 9.57487 13.44V12.8" fill="#FF6636"/>
</svg>
