<svg width="23" height="23" viewBox="0 0 23 23" fill="none" xmlns="http://www.w3.org/2000/svg">
<path d="M3.83329 19.1667H19.1666C19.675 19.1667 20.1625 18.9647 20.5219 18.6053C20.8814 18.2458 21.0833 17.7583 21.0833 17.25V7.66667C21.0833 7.15833 20.8814 6.67082 20.5219 6.31138C20.1625 5.95193 19.675 5.75 19.1666 5.75H11.567C11.2514 5.74837 10.941 5.66878 10.6634 5.51831C10.3859 5.36785 10.1498 5.15116 9.97621 4.8875L9.19038 3.7375C9.01675 3.47384 8.78068 3.25715 8.50316 3.10669C8.22563 2.95622 7.91523 2.87663 7.59954 2.875H3.83329C3.32496 2.875 2.83745 3.07693 2.478 3.43638C2.11856 3.79582 1.91663 4.28334 1.91663 4.79167V17.25C1.91663 18.3042 2.77913 19.1667 3.83329 19.1667Z" stroke="black" stroke-width="2" stroke-linecap="round" stroke-linejoin="round"/>
<path d="M1.91663 9.5835H21.0833" stroke="black" stroke-width="2" stroke-linecap="round" stroke-linejoin="round"/>
</svg>
