<svg width="23" height="23" viewBox="0 0 23 23" fill="none" xmlns="http://www.w3.org/2000/svg">
<path d="M15.3333 20.125V18.2083C15.3333 17.1917 14.9294 16.2166 14.2105 15.4978C13.4916 14.7789 12.5166 14.375 11.5 14.375H5.74996C4.7333 14.375 3.75827 14.7789 3.03938 15.4978C2.32049 16.2166 1.91663 17.1917 1.91663 18.2083V20.125" stroke="black" stroke-width="2" stroke-linecap="round" stroke-linejoin="round"/>
<path d="M8.62496 10.5417C10.7421 10.5417 12.4583 8.82543 12.4583 6.70833C12.4583 4.59124 10.7421 2.875 8.62496 2.875C6.50787 2.875 4.79163 4.59124 4.79163 6.70833C4.79163 8.82543 6.50787 10.5417 8.62496 10.5417Z" stroke="black" stroke-width="2" stroke-linecap="round" stroke-linejoin="round"/>
<path d="M21.0834 20.1249V18.2083C21.0827 17.3589 20.8 16.5338 20.2797 15.8626C19.7593 15.1913 19.0307 14.7118 18.2084 14.4995" stroke="black" stroke-width="2" stroke-linecap="round" stroke-linejoin="round"/>
<path d="M15.3334 2.99951C16.1579 3.21063 16.8888 3.69018 17.4107 4.36256C17.9326 5.03493 18.2159 5.86189 18.2159 6.71305C18.2159 7.56422 17.9326 8.39117 17.4107 9.06355C16.8888 9.73592 16.1579 10.2155 15.3334 10.4266" stroke="black" stroke-width="2" stroke-linecap="round" stroke-linejoin="round"/>
</svg>
