<svg width="18" height="18" viewBox="0 0 18 18" fill="none" xmlns="http://www.w3.org/2000/svg">
<path d="M9 17C13.4182 17 17 13.4182 17 9C17 4.58172 13.4182 1 9 1C4.58172 1 1 4.58172 1 9C1 10.4571 1.38958 11.8233 2.07026 13L1.4 16.6L5 15.9298C6.1767 16.6104 7.54288 17 9 17Z" stroke="black" stroke-linecap="round" stroke-linejoin="round"/>
<path d="M12.7905 10.0271C13.2617 10.0271 13.6438 9.645 13.6438 9.17383C13.6438 8.70265 13.2617 8.32056 12.7905 8.32056C12.3193 8.32056 11.9373 8.70265 11.9373 9.17383C11.9373 9.645 12.3193 10.0271 12.7905 10.0271Z" fill="black"/>
<path d="M9.37768 10.0271C9.84886 10.0271 10.231 9.645 10.231 9.17383C10.231 8.70265 9.84886 8.32056 9.37768 8.32056C8.90651 8.32056 8.52441 8.70265 8.52441 9.17383C8.52441 9.645 8.90651 10.0271 9.37768 10.0271Z" fill="black"/>
<path d="M5.9646 10.0271C6.43584 10.0271 6.81787 9.645 6.81787 9.17383C6.81787 8.70265 6.43584 8.32056 5.9646 8.32056C5.49335 8.32056 5.11133 8.70265 5.11133 9.17383C5.11133 9.645 5.49335 10.0271 5.9646 10.0271Z" fill="black"/>
</svg>
