<svg width="44" height="44" viewBox="0 0 44 44" fill="none" xmlns="http://www.w3.org/2000/svg">
<mask id="mask0_21_5705" style="mask-type:alpha" maskUnits="userSpaceOnUse" x="0" y="0" width="44" height="44">
<rect y="6.10352e-05" width="44" height="44" fill="#D9D9D9"/>
</mask>
<g mask="url(#mask0_21_5705)">
<path fill-rule="evenodd" clip-rule="evenodd" d="M4 20.9213C4 15.442 8.43238 11.0001 13.9 11.0001C16.7376 11.0001 19.2964 12.1965 21.1015 14.1134C21.5764 14.6177 22.4236 14.6177 22.8985 14.1134C24.7036 12.1965 27.2624 11.0001 30.1 11.0001C35.5676 11.0001 40 15.442 40 20.9213C40 30.6822 28.6754 39.57 22.3098 41.8529C22.1063 41.9258 21.8937 41.9258 21.6902 41.8529C15.3246 39.57 4 30.6822 4 20.9213ZM25.2614 32.9915C26.7633 33.0501 28.0011 31.9971 27.9996 30.6905C27.9996 30.6904 27.9997 30.6902 27.9998 30.6902C27.9999 30.6902 28 30.6901 28 30.69C27.999 29.9655 27.6179 29.3199 27.0222 28.8987C26.1039 28.2491 25.4294 27.3695 25.1189 26.37C24.7599 25.2167 23.9236 23.9982 21.9922 24.0001C20.0401 24.0018 19.2072 25.2163 18.8567 26.3681C18.5546 27.3597 17.9141 28.2552 16.9974 28.891C16.3596 29.3338 15.9618 30.0319 16.0029 30.8094C16.0658 31.9886 17.1564 32.9451 18.4984 32.9978C18.901 33.0135 19.2845 32.9495 19.6302 32.8224C20.3615 32.5531 21.1452 32.4118 21.9382 32.4111H22.1454C22.9153 32.4103 23.6719 32.56 24.383 32.8197C24.6564 32.9194 24.9523 32.9796 25.2614 32.9915ZM17.6751 24.9243C17.6765 26.029 16.7822 26.9249 15.6773 26.9259C14.5727 26.9267 13.6765 26.0321 13.6751 24.9275C13.6737 23.8228 14.568 22.9269 15.6726 22.9259C16.777 22.9249 17.6737 23.8197 17.6751 24.9241V24.9243ZM29.0023 26.9259C30.1071 26.9249 31.0015 26.029 31 24.9243V24.9241C30.9986 23.8197 30.1019 22.9249 28.9975 22.9259C27.8929 22.9269 26.9986 23.8228 27 24.9275C27.0015 26.0321 27.8977 26.9267 29.0023 26.9259ZM21 20.9986C21.0015 22.1032 20.1071 22.9991 19.0023 23.0001C17.8977 23.0009 17.0015 22.1063 17 21.0017C16.9986 19.8971 17.8929 19.0011 18.9975 19.0001C20.1019 18.9991 20.9986 19.8939 21 20.9984V20.9986ZM25.0023 23.0001C26.1071 22.9991 27.0015 22.1032 27 20.9986V20.9984C26.9986 19.8939 26.1019 18.9991 24.9975 19.0001C23.8929 19.0011 22.9986 19.8971 23 21.0017C23.0015 22.1063 23.8977 23.0009 25.0023 23.0001Z" fill="#FF6636"/>
</g>
</svg>
