<svg width="44" height="44" viewBox="0 0 44 44" fill="none" xmlns="http://www.w3.org/2000/svg">
<mask id="mask0_2_236" style="mask-type:alpha" maskUnits="userSpaceOnUse" x="0" y="0" width="44" height="44">
<rect width="44" height="44" fill="#D9D9D9"/>
</mask>
<g mask="url(#mask0_2_236)">
<path fill-rule="evenodd" clip-rule="evenodd" d="M4 20.9213C4 15.4419 8.43238 11 13.9 11C16.7376 11 19.2964 12.1964 21.1015 14.1134C21.5764 14.6176 22.4236 14.6176 22.8985 14.1134C24.7036 12.1964 27.2624 11 30.1 11C35.5676 11 40 15.4419 40 20.9213C40 30.6821 28.6754 39.57 22.3098 41.8528C22.1063 41.9258 21.8937 41.9258 21.6902 41.8528C15.3246 39.57 4 30.6821 4 20.9213ZM25.2614 32.9915C26.7633 33.05 28.0011 31.997 27.9996 30.6904C27.9996 30.6903 27.9997 30.6902 27.9998 30.6902C27.9999 30.6902 28 30.6901 28 30.6899C27.999 29.9654 27.6179 29.3199 27.0222 28.8986C26.1039 28.2491 25.4294 27.3695 25.1189 26.3699C24.7599 25.2167 23.9236 23.9982 21.9922 24.0001C20.0401 24.0017 19.2072 25.2162 18.8567 26.368C18.5546 27.3597 17.9141 28.2551 16.9974 28.8909C16.3596 29.3337 15.9618 30.0318 16.0029 30.8094C16.0658 31.9885 17.1564 32.945 18.4984 32.9977C18.901 33.0134 19.2845 32.9494 19.6302 32.8223C20.3615 32.553 21.1452 32.4117 21.9382 32.4111H22.1454C22.9153 32.4102 23.6719 32.5599 24.383 32.8196C24.6564 32.9193 24.9523 32.9795 25.2614 32.9915ZM17.6751 24.9243C17.6765 26.0289 16.7822 26.9249 15.6773 26.9258C14.5727 26.9266 13.6765 26.032 13.6751 24.9274C13.6737 23.8228 14.568 22.9268 15.6726 22.9258C16.777 22.9249 17.6737 23.8196 17.6751 24.9241V24.9243ZM29.0023 26.9258C30.1071 26.9249 31.0015 26.0289 31 24.9243V24.9241C30.9986 23.8196 30.1019 22.9249 28.9975 22.9258C27.8929 22.9268 26.9986 23.8228 27 24.9274C27.0015 26.032 27.8977 26.9266 29.0023 26.9258ZM21 20.9985C21.0015 22.1031 20.1071 22.9991 19.0023 23.0001C17.8977 23.0008 17.0015 22.1062 17 21.0016C16.9986 19.897 17.8929 19.001 18.9975 19.0001C20.1019 18.9991 20.9986 19.8939 21 20.9983V20.9985ZM25.0023 23.0001C26.1071 22.9991 27.0015 22.1031 27 20.9985V20.9983C26.9986 19.8939 26.1019 18.9991 24.9975 19.0001C23.8929 19.001 22.9986 19.897 23 21.0016C23.0015 22.1062 23.8977 23.0008 25.0023 23.0001Z" fill="#CCCCCC"/>
</g>
</svg>
