<svg width="44" height="44" viewBox="0 0 44 44" fill="none" xmlns="http://www.w3.org/2000/svg">
<mask id="mask0_2_247" style="mask-type:alpha" maskUnits="userSpaceOnUse" x="0" y="0" width="44" height="44">
<rect width="44" height="44" fill="#D9D9D9"/>
</mask>
<g mask="url(#mask0_2_247)">
<path d="M4 12.3157C4 11.1711 4.47411 10.0734 5.31802 9.26405C6.16193 8.45469 7.30653 8 8.5 8H35.5C36.6935 8 37.8381 8.45469 38.682 9.26405C39.5259 10.0734 40 11.1711 40 12.3157V29.5786C40 30.7233 39.5259 31.821 38.682 32.6303C37.8381 33.4397 36.6935 33.8944 35.5 33.8944H13.9315C13.3348 33.8945 12.7626 34.1219 12.3407 34.5266L5.9215 40.683C5.76429 40.8342 5.56386 40.9372 5.34558 40.9791C5.1273 41.0209 4.90097 40.9997 4.69525 40.9182C4.48953 40.8366 4.31365 40.6984 4.18989 40.5209C4.06613 40.3435 4.00005 40.1348 4 39.9213V12.3157ZM11.875 14.4736C11.5766 14.4736 11.2905 14.5873 11.0795 14.7896C10.8685 14.9919 10.75 15.2664 10.75 15.5525C10.75 15.8387 10.8685 16.1131 11.0795 16.3154C11.2905 16.5178 11.5766 16.6315 11.875 16.6315H32.125C32.4234 16.6315 32.7095 16.5178 32.9205 16.3154C33.1315 16.1131 33.25 15.8387 33.25 15.5525C33.25 15.2664 33.1315 14.9919 32.9205 14.7896C32.7095 14.5873 32.4234 14.4736 32.125 14.4736H11.875ZM11.875 19.8683C11.5766 19.8683 11.2905 19.9819 11.0795 20.1843C10.8685 20.3866 10.75 20.661 10.75 20.9472C10.75 21.2333 10.8685 21.5078 11.0795 21.7101C11.2905 21.9124 11.5766 22.0261 11.875 22.0261H32.125C32.4234 22.0261 32.7095 21.9124 32.9205 21.7101C33.1315 21.5078 33.25 21.2333 33.25 20.9472C33.25 20.661 33.1315 20.3866 32.9205 20.1843C32.7095 19.9819 32.4234 19.8683 32.125 19.8683H11.875ZM11.875 25.2629C11.5766 25.2629 11.2905 25.3766 11.0795 25.5789C10.8685 25.7813 10.75 26.0557 10.75 26.3419C10.75 26.628 10.8685 26.9024 11.0795 27.1048C11.2905 27.3071 11.5766 27.4208 11.875 27.4208H23.125C23.4234 27.4208 23.7095 27.3071 23.9205 27.1048C24.1315 26.9024 24.25 26.628 24.25 26.3419C24.25 26.0557 24.1315 25.7813 23.9205 25.5789C23.7095 25.3766 23.4234 25.2629 23.125 25.2629H11.875Z" fill="#CCCCCC"/>
</g>
</svg>
