<svg width="44" height="44" viewBox="0 0 44 44" fill="none" xmlns="http://www.w3.org/2000/svg">
<mask id="mask0_2_250" style="mask-type:alpha" maskUnits="userSpaceOnUse" x="0" y="0" width="44" height="44">
<rect width="44" height="44" fill="#D9D9D9"/>
</mask>
<g mask="url(#mask0_2_250)">
<path d="M4.00049 25.7772C4.83805 24.2056 6.17998 23.1664 7.67938 22.2654C7.0997 21.5257 6.68206 20.7192 6.447 19.816C5.5113 16.2305 7.93726 12.5643 11.5751 12.0712C14.2247 11.714 16.7328 13.0206 17.9424 15.3917C18.4216 16.3319 18.1501 17.3411 17.2942 17.8043C16.4316 18.2675 15.4571 17.931 14.9527 16.9955C14.3799 15.9332 13.273 15.2995 12.2187 15.4286C10.9634 15.583 10.0414 16.3664 9.72878 17.5485C9.3294 19.0486 10.1738 20.4911 11.7531 21.0073C12.4674 21.24 12.9467 21.8069 12.9946 22.4751C13.0539 23.2954 12.6591 24.0835 12.0041 24.4015C11.8079 24.496 11.5842 24.5467 11.3697 24.5859C9.60326 24.9108 8.16548 25.7772 7.05406 27.2081C6.56567 27.8372 5.87645 28.0538 5.18266 27.8326C4.69884 27.6759 4.35423 27.3625 4.14198 26.8971C4.1009 26.8049 4.04841 26.7196 4.00049 26.6298C4.00049 26.3463 4.00049 26.0629 4.00049 25.7772Z" fill="#CCCCCC"/>
<path d="M27.142 31.4965C28.2762 32.1394 29.3078 32.9182 30.1088 33.9506C30.6542 34.6534 31.1449 35.4092 31.5763 36.188C32.0601 37.0591 31.7063 38.0845 30.8596 38.5177C30.0198 38.9463 29.043 38.6352 28.5866 37.7527C27.5025 35.665 25.8571 34.3123 23.5726 33.7754C20.4688 33.0473 17.1391 34.5612 15.6055 37.3955C15.5325 37.5291 15.4663 37.6674 15.391 37.8011C14.9163 38.6398 13.9509 38.9394 13.1248 38.5085C12.3054 38.0799 11.97 37.0913 12.3899 36.2318C13.3438 34.2663 14.7702 32.7408 16.6348 31.6301C16.7055 31.5887 16.7763 31.5495 16.8744 31.4919C15.254 29.8028 14.4986 27.7912 14.7223 25.4615C14.914 23.4706 15.8063 21.8231 17.3217 20.5234C20.1265 18.1154 24.401 18.279 27.0849 20.8829C29.7893 23.5052 30.2937 28.2405 27.1442 31.4988L27.142 31.4965ZM18.0611 26.1989C18.0588 28.3673 19.8458 30.1738 21.9933 30.1761C24.1409 30.1784 25.9301 28.3765 25.9324 26.2058C25.9347 24.0352 24.15 22.2309 22.0002 22.2286C19.8526 22.2263 18.0634 24.0283 18.0611 26.1989Z" fill="#CCCCCC"/>
<path d="M36.3301 22.2886C37.3183 22.8324 38.2038 23.5053 38.9615 24.3394C39.2057 24.609 39.4453 24.8879 39.6598 25.1828C40.219 25.9524 40.0729 26.9848 39.3403 27.5539C38.6009 28.1277 37.5762 28.0217 36.9897 27.2659C35.9627 25.9432 34.6687 25.0561 33.0392 24.6782C32.868 24.639 32.6969 24.6044 32.5234 24.5745C31.4417 24.3809 30.741 23.2311 31.0628 22.1688C31.2636 21.5075 31.7361 21.1595 32.3682 20.9567C33.4705 20.6019 34.1301 19.8322 34.3126 18.6755C34.5249 17.3321 33.7604 16.0555 32.4892 15.5946C31.2408 15.143 29.8555 15.6384 29.1595 16.7859C29.0864 16.9058 29.0248 17.0348 28.9518 17.1569C28.4862 17.9496 27.5277 18.2354 26.7244 17.8229C25.9119 17.4058 25.5741 16.4334 25.9507 15.5831C27.0142 13.1843 29.7734 11.6681 32.3545 12.0621C35.0977 12.4792 37.1152 14.3803 37.6378 17.1178C37.9778 18.9013 37.567 20.5396 36.5058 22.0098C36.4579 22.0766 36.4077 22.1411 36.3575 22.208C36.3506 22.2172 36.3506 22.231 36.3301 22.2886Z" fill="#CCCCCC"/>
</g>
</svg>
