<svg width="44" height="44" viewBox="0 0 44 44" fill="none" xmlns="http://www.w3.org/2000/svg">
<mask id="mask0_21_6896" style="mask-type:alpha" maskUnits="userSpaceOnUse" x="0" y="0" width="44" height="44">
<rect width="44" height="44" fill="#D9D9D9"/>
</mask>
<g mask="url(#mask0_21_6896)">
<path d="M4.00049 25.7774C4.83805 24.2059 6.17998 23.1667 7.67938 22.2657C7.0997 21.526 6.68206 20.7195 6.447 19.8162C5.5113 16.2307 7.93726 12.5646 11.5751 12.0715C14.2247 11.7143 16.7328 13.0208 17.9424 15.3919C18.4216 16.3321 18.1501 17.3414 17.2942 17.8045C16.4316 18.2677 15.4571 17.9313 14.9527 16.9957C14.3799 15.9335 13.273 15.2998 12.2187 15.4288C10.9634 15.5832 10.0414 16.3667 9.72878 17.5488C9.3294 19.0489 10.1738 20.4914 11.7531 21.0075C12.4674 21.2403 12.9467 21.8071 12.9946 22.4754C13.0539 23.2957 12.6591 24.0838 12.0041 24.4018C11.8079 24.4962 11.5842 24.5469 11.3697 24.5861C9.60326 24.911 8.16548 25.7774 7.05406 27.2084C6.56567 27.8375 5.87645 28.0541 5.18266 27.8329C4.69884 27.6762 4.35423 27.3628 4.14198 26.8973C4.1009 26.8051 4.04841 26.7199 4.00049 26.63C4.00049 26.3466 4.00049 26.0632 4.00049 25.7774Z" fill="#FF6636"/>
<path d="M27.142 31.4967C28.2762 32.1396 29.3078 32.9185 30.1088 33.9508C30.6542 34.6536 31.1449 35.4094 31.5763 36.1883C32.0601 37.0593 31.7063 38.0847 30.8596 38.5179C30.0198 38.9465 29.043 38.6355 28.5866 37.7529C27.5025 35.6652 25.8571 34.3126 23.5726 33.7757C20.4688 33.0475 17.1391 34.5615 15.6055 37.3957C15.5325 37.5294 15.4663 37.6677 15.391 37.8013C14.9163 38.6401 13.9509 38.9396 13.1248 38.5087C12.3054 38.0801 11.97 37.0916 12.3899 36.2321C13.3438 34.2665 14.7702 32.7411 16.6348 31.6304C16.7055 31.5889 16.7763 31.5497 16.8744 31.4921C15.254 29.8031 14.4986 27.7914 14.7223 25.4618C14.914 23.4709 15.8063 21.8233 17.3217 20.5237C20.1265 18.1157 24.401 18.2793 27.0849 20.8831C29.7893 23.5054 30.2937 28.2408 27.1442 31.499L27.142 31.4967ZM18.0611 26.1992C18.0588 28.3675 19.8458 30.1741 21.9933 30.1764C24.1409 30.1787 25.9301 28.3767 25.9324 26.2061C25.9347 24.0354 24.15 22.2312 22.0002 22.2289C19.8526 22.2265 18.0634 24.0285 18.0611 26.1992Z" fill="#FF6636"/>
<path d="M36.3301 22.2886C37.3183 22.8324 38.2038 23.5053 38.9615 24.3394C39.2057 24.609 39.4453 24.8879 39.6598 25.1828C40.219 25.9524 40.0729 26.9848 39.3403 27.5539C38.6009 28.1277 37.5762 28.0217 36.9897 27.2659C35.9627 25.9432 34.6687 25.0561 33.0392 24.6782C32.868 24.639 32.6969 24.6044 32.5234 24.5745C31.4417 24.3809 30.741 23.2311 31.0628 22.1688C31.2636 21.5075 31.7361 21.1595 32.3682 20.9567C33.4705 20.6019 34.1301 19.8322 34.3126 18.6755C34.5249 17.3321 33.7604 16.0555 32.4892 15.5946C31.2408 15.143 29.8555 15.6384 29.1595 16.7859C29.0864 16.9058 29.0248 17.0348 28.9518 17.1569C28.4862 17.9496 27.5277 18.2354 26.7244 17.8229C25.9119 17.4058 25.5741 16.4334 25.9507 15.5831C27.0142 13.1843 29.7734 11.6681 32.3545 12.0621C35.0977 12.4792 37.1152 14.3803 37.6378 17.1178C37.9778 18.9013 37.567 20.5396 36.5058 22.0098C36.4579 22.0766 36.4077 22.1411 36.3575 22.208C36.3506 22.2172 36.3506 22.231 36.3301 22.2886Z" fill="#FF6636"/>
</g>
</svg>
