<svg width="44" height="44" viewBox="0 0 44 44" fill="none" xmlns="http://www.w3.org/2000/svg">
<mask id="mask0_21_5695" style="mask-type:alpha" maskUnits="userSpaceOnUse" x="0" y="0" width="44" height="44">
<rect y="6.10352e-05" width="44" height="44" fill="#D9D9D9"/>
</mask>
<g mask="url(#mask0_21_5695)">
<path d="M17.4 38.0001C17.9523 38.0001 18.4 37.5523 18.4 37.0001V28.0589C18.4 27.5066 18.8477 27.0589 19.4 27.0589H24.6C25.1523 27.0589 25.6 27.5066 25.6 28.0589V37.0001C25.6 37.5523 26.0477 38.0001 26.6 38.0001H33.6C34.1523 38.0001 34.6 37.5523 34.6 37.0001V24.4118C34.6 23.8595 35.0477 23.4118 35.6 23.4118H37.419C38.3323 23.4118 38.7677 22.2882 38.0928 21.6729L22.6738 7.61437C22.292 7.26631 21.708 7.26631 21.3262 7.61437L5.90724 21.6729C5.23234 22.2882 5.66768 23.4118 6.581 23.4118H8.4C8.95228 23.4118 9.4 23.8595 9.4 24.4118V37.0001C9.4 37.5523 9.84771 38.0001 10.4 38.0001H17.4Z" fill="#CCCCCC"/>
</g>
</svg>
