<svg width="44" height="44" viewBox="0 0 44 44" fill="none" xmlns="http://www.w3.org/2000/svg">
<mask id="mask0_21_6582" style="mask-type:alpha" maskUnits="userSpaceOnUse" x="0" y="0" width="44" height="44">
<rect width="44" height="44" fill="#D9D9D9"/>
</mask>
<g mask="url(#mask0_21_6582)">
<path d="M9.85388 20.2864H5C4.44772 20.2864 4 20.7341 4 21.2864V38.1345C4 38.6868 4.44771 39.1345 5 39.1345H9.85388C10.4062 39.1345 10.8539 38.6868 10.8539 38.1345V21.2864C10.8539 20.7341 10.4062 20.2864 9.85388 20.2864Z" fill="#FF6636"/>
<path d="M28.859 6.19951C29.3415 6.57947 30.0625 6.57947 30.5449 6.19951C31.6005 5.36827 32.949 4.86523 34.3283 4.86523C37.4983 4.86523 39.9828 7.34977 39.9828 10.5197C39.9828 14.244 35.4113 18.5339 30.3748 23.1035C29.9935 23.4495 29.4109 23.4489 29.0301 23.1023C23.9933 18.5173 19.4211 14.2278 19.4211 10.5197C19.4211 7.34977 21.9057 4.86523 25.0756 4.86523C26.4549 4.86523 27.8035 5.36827 28.859 6.19951Z" fill="#FF6636"/>
<path d="M36.5561 30.5672H24.7314C24.6192 30.5672 24.5077 30.5483 24.4017 30.5113L21.7766 29.5944C21.3372 29.4409 21.1058 28.96 21.2599 28.5209C21.4168 28.0742 21.9111 27.8446 22.3536 28.0131L24.39 28.7883C24.5036 28.8316 24.6241 28.8537 24.7457 28.8537H29.3938C30.5076 28.8537 31.4157 27.9456 31.4157 26.8318C31.4157 25.9922 30.8845 25.2383 30.0963 24.9299L17.8257 20.3495C17.7138 20.3078 17.5954 20.2864 17.476 20.2864H15.281C14.7287 20.2864 14.281 20.7341 14.281 21.2864V34.9855C14.281 35.433 14.5783 35.826 15.0088 35.9477L25.9596 39.0453C26.1647 39.1033 26.3829 39.0942 26.5825 39.0195L39.3446 34.2397C39.7382 34.0922 40.0117 33.7104 39.9239 33.2993C39.5921 31.7447 38.218 30.5672 36.5561 30.5672Z" fill="#FF6636"/>
</g>
</svg>
