<svg xmlns="http://www.w3.org/2000/svg" viewBox="0 0 64 64"><rect width="64" height="64" x="-.01" y=".07" fill="none"/><polygon fill="#d8953d" points="13 56 7.99 51 13 51 13 56"/><polygon fill="#d8953d" points="51 56 56.01 51 51 51 51 56"/><polygon fill="#b2b2b2" points="51 13 43.01 13 43.01 5.01 51 13"/><path fill="#f1f1f1" d="M43,5H14.59A1.59,1.59,0,0,0,13,6.59v51a1.6,1.6,0,0,0,1.59,1.6H49.41A1.6,1.6,0,0,0,51,57.54V13H43Z"/><path fill="none" stroke="#231f20" stroke-linecap="round" stroke-linejoin="round" stroke-width="2" d="M43,5H14.59A1.59,1.59,0,0,0,13,6.59v51a1.6,1.6,0,0,0,1.59,1.6H49.41A1.6,1.6,0,0,0,51,57.54V13H43Z"/><polygon fill="none" stroke="#231f20" stroke-linecap="round" stroke-linejoin="round" stroke-width="2" points="51 13 43.01 13 43.01 5.01 51 13"/><polygon fill="none" stroke="#231f20" stroke-linecap="round" stroke-linejoin="round" stroke-width="2" points="13 56 7.99 51 13 51 13 56"/><polygon fill="none" stroke="#231f20" stroke-linecap="round" stroke-linejoin="round" stroke-width="2" points="51 56 56.01 51 51 51 51 56"/><path fill="#fcbf63" d="M9,33H55a1,1,0,0,1,1,1V51a0,0,0,0,1,0,0H8a0,0,0,0,1,0,0V34A1,1,0,0,1,9,33Z"/><path fill="none" stroke="#231f20" stroke-linecap="round" stroke-linejoin="round" stroke-width="2" d="M9,33H55a1,1,0,0,1,1,1V51a0,0,0,0,1,0,0H8a0,0,0,0,1,0,0V34A1,1,0,0,1,9,33Z"/><path fill="#fff" d="M31.85 44.58H28.78l-.51 1.49H26.19l3-8.12h2.27l3 8.12h-2.1zm-.51-1.51l-1-3-1 3zM37.2 37.89v8.18h-2V37.89z"/><rect width="5.54" height="5.54" x="29.23" y="18.95" fill="none" stroke="#fcbf63" stroke-linecap="round" stroke-linejoin="round" stroke-width="2"/><circle cx="21.83" cy="22.06" r="2.77" fill="none" stroke="#fcbf63" stroke-linecap="round" stroke-linejoin="round" stroke-width="2"/><line x1="24.6" x2="29.23" y1="22.06" y2="22.06" fill="none" stroke="#fcbf63" stroke-linecap="round" stroke-linejoin="round" stroke-width="2"/><circle cx="42.17" cy="22.06" r="2.77" fill="none" stroke="#fcbf63" stroke-linecap="round" stroke-linejoin="round" stroke-width="2"/><line x1="34.77" x2="39.4" y1="22.06" y2="22.06" fill="none" stroke="#fcbf63" stroke-linecap="round" stroke-linejoin="round" stroke-width="2"/></svg>