<svg xmlns="http://www.w3.org/2000/svg" viewBox="0 0 64 64"><rect width="64" height="64" x="-.01" y=".07" fill="none"/><polygon fill="#136c99" points="13 56 7.99 51 13 51 13 56"/><polygon fill="#136c99" points="51 56 56.01 51 51 51 51 56"/><polygon fill="#b2b2b2" points="51 13 43.01 13 43.01 5.01 51 13"/><path fill="#f1f1f1" d="M43,5H14.59A1.59,1.59,0,0,0,13,6.59v51a1.6,1.6,0,0,0,1.59,1.6H49.41A1.6,1.6,0,0,0,51,57.54V13H43Z"/><path fill="none" stroke="#231f20" stroke-linecap="round" stroke-linejoin="round" stroke-width="2" d="M43,5H14.59A1.59,1.59,0,0,0,13,6.59v51a1.6,1.6,0,0,0,1.59,1.6H49.41A1.6,1.6,0,0,0,51,57.54V13H43Z"/><polygon fill="none" stroke="#231f20" stroke-linecap="round" stroke-linejoin="round" stroke-width="2" points="51 13 43.01 13 43.01 5.01 51 13"/><polygon fill="none" stroke="#231f20" stroke-linecap="round" stroke-linejoin="round" stroke-width="2" points="13 56 7.99 51 13 51 13 56"/><polygon fill="none" stroke="#231f20" stroke-linecap="round" stroke-linejoin="round" stroke-width="2" points="51 56 56.01 51 51 51 51 56"/><path fill="#2594d7" d="M9,33H55a1,1,0,0,1,1,1V51a0,0,0,0,1,0,0H8a0,0,0,0,1,0,0V34A1,1,0,0,1,9,33Z"/><path fill="none" stroke="#231f20" stroke-linecap="round" stroke-linejoin="round" stroke-width="2" d="M9,33H55a1,1,0,0,1,1,1V51a0,0,0,0,1,0,0H8a0,0,0,0,1,0,0V34A1,1,0,0,1,9,33Z"/><path fill="#fff" d="M27.64 38.63A3.74 3.74 0 0 1 29 40.85h-2.1a2 2 0 0 0-.71-.89A2 2 0 0 0 25 39.64a1.71 1.71 0 0 0-1.39.64 2.53 2.53 0 0 0-.54 1.7 2.5 2.5 0 0 0 .54 1.69A1.73 1.73 0 0 0 25 44.3 2 2 0 0 0 26.16 44a1.92 1.92 0 0 0 .71-.88H29a3.75 3.75 0 0 1-1.33 2.21 4 4 0 0 1-2.58.83A4.08 4.08 0 0 1 23 45.61a3.61 3.61 0 0 1-1.4-1.47A4.71 4.71 0 0 1 21.08 42a4.78 4.78 0 0 1 .49-2.17A3.61 3.61 0 0 1 23 38.34a4.08 4.08 0 0 1 2.09-.53A4 4 0 0 1 27.64 38.63zM35.62 45a2.36 2.36 0 0 1-1 .87 3.51 3.51 0 0 1-1.55.32 3.64 3.64 0 0 1-2.27-.67 2.43 2.43 0 0 1-1-1.87H32a1.11 1.11 0 0 0 .33.73 1 1 0 0 0 .72.26.85.85 0 0 0 .61-.21.75.75 0 0 0 .22-.55.7.7 0 0 0-.21-.52 1.52 1.52 0 0 0-.5-.34c-.2-.09-.48-.2-.83-.32A9.92 9.92 0 0 1 31 42.14a2.19 2.19 0 0 1-.84-.74 2.08 2.08 0 0 1-.36-1.27 2.11 2.11 0 0 1 .38-1.26 2.26 2.26 0 0 1 1-.82 3.68 3.68 0 0 1 1.5-.28 3.28 3.28 0 0 1 2.16.65 2.45 2.45 0 0 1 .91 1.78H33.66a1.12 1.12 0 0 0-.29-.65.9.9 0 0 0-.64-.23.82.82 0 0 0-.56.18.76.76 0 0 0 0 1 1.7 1.7 0 0 0 .48.33l.83.32a8.46 8.46 0 0 1 1.29.53 2.42 2.42 0 0 1 .85.75 2.19 2.19 0 0 1 .36 1.3A2.25 2.25 0 0 1 35.62 45zM42.6 45a2.39 2.39 0 0 1-1 .87 3.45 3.45 0 0 1-1.55.32 3.66 3.66 0 0 1-2.27-.67 2.43 2.43 0 0 1-1-1.87h2.11a1.15 1.15 0 0 0 .32.73 1.05 1.05 0 0 0 .73.26.84.84 0 0 0 .6-.21.71.71 0 0 0 .22-.55.73.73 0 0 0-.2-.52A1.69 1.69 0 0 0 40.1 43c-.2-.09-.48-.2-.83-.32A9.92 9.92 0 0 1 38 42.14a2.35 2.35 0 0 1-.84-.74 2.08 2.08 0 0 1-.35-1.27 2.11 2.11 0 0 1 .37-1.26 2.32 2.32 0 0 1 1-.82 3.75 3.75 0 0 1 1.5-.28 3.32 3.32 0 0 1 2.17.65 2.44 2.44 0 0 1 .9 1.78H40.64a1.13 1.13 0 0 0-.3-.65.9.9 0 0 0-.64-.23.84.84 0 0 0-.56.18.68.68 0 0 0-.22.55.73.73 0 0 0 .19.49 1.7 1.7 0 0 0 .48.33c.2.08.47.19.84.32a8.74 8.74 0 0 1 1.28.53 2.45 2.45 0 0 1 .86.75 2.19 2.19 0 0 1 .35 1.3A2.33 2.33 0 0 1 42.6 45z"/><path fill="#2594d7" d="M25.74 20.42a2.86 2.86 0 0 1 .81.72 2.38 2.38 0 0 1 .4 1 8.53 8.53 0 0 1 .12 1.58c0 .48 0 .83 0 1.06a1.43 1.43 0 0 0 .14.52.43.43 0 0 0 .23.23 1.9 1.9 0 0 0 .48.11.64.64 0 0 1 .45.27.93.93 0 0 1 .19.61c0 .59-.36.88-1.07.88a2.54 2.54 0 0 1-1.19-.27 2 2 0 0 1-.8-.79 2.29 2.29 0 0 1-.29-1.16c0-.74 0-1.33 0-1.78a5.55 5.55 0 0 0-.06-.86 1.82 1.82 0 0 0-.33-.74 2.19 2.19 0 0 0-.56-.46 2.24 2.24 0 0 1-.49-.39.79.79 0 0 1-.15-.54.89.89 0 0 1 .43-.81 4.32 4.32 0 0 0 .74-.56 1.25 1.25 0 0 0 .32-.59 3.79 3.79 0 0 0 .1-.79c0-.28 0-1 0-2.05a2.18 2.18 0 0 1 .63-1.6 2.26 2.26 0 0 1 1.65-.6c.71 0 1.07.28 1.07.86a1 1 0 0 1-.18.62.66.66 0 0 1-.46.26 1.36 1.36 0 0 0-.59.18.61.61 0 0 0-.22.45 10.14 10.14 0 0 0-.07 1.3A12 12 0 0 1 27 18.63a2.59 2.59 0 0 1-.39 1A2.82 2.82 0 0 1 25.74 20.42zM37.43 19.65a2.59 2.59 0 0 1-.39-1 12 12 0 0 1-.11-1.54 10.14 10.14 0 0 0-.07-1.3.61.61 0 0 0-.22-.45 1.36 1.36 0 0 0-.59-.18.66.66 0 0 1-.46-.26 1 1 0 0 1-.18-.62c0-.58.36-.86 1.07-.86a2.26 2.26 0 0 1 1.65.6 2.18 2.18 0 0 1 .63 1.6c0 1.09 0 1.77.05 2.05a3.79 3.79 0 0 0 .1.79 1.25 1.25 0 0 0 .32.59 4.32 4.32 0 0 0 .74.56.89.89 0 0 1 .43.81.79.79 0 0 1-.15.54 2.24 2.24 0 0 1-.49.39 2.19 2.19 0 0 0-.56.46 1.82 1.82 0 0 0-.33.74 5.55 5.55 0 0 0-.06.86c0 .45 0 1-.05 1.78a2.29 2.29 0 0 1-.29 1.16 2 2 0 0 1-.8.79 2.54 2.54 0 0 1-1.19.27c-.71 0-1.07-.29-1.07-.88a.93.93 0 0 1 .19-.61.64.64 0 0 1 .45-.27 1.9 1.9 0 0 0 .48-.11.43.43 0 0 0 .23-.23 1.43 1.43 0 0 0 .14-.52c0-.23 0-.58 0-1.06a8.53 8.53 0 0 1 .12-1.58 2.38 2.38 0 0 1 .4-1 2.86 2.86 0 0 1 .81-.72A2.82 2.82 0 0 1 37.43 19.65z"/></svg>