<svg xmlns="http://www.w3.org/2000/svg" viewBox="0 0 64 64"><rect width="64" height="64" fill="none"/><polygon fill="#c1487f" points="13 56 7.99 51 13 51 13 56"/><polygon fill="#c1487f" points="51 56 56.01 51 51 51 51 56"/><polygon fill="#b2b2b2" points="51 13 43.01 13 43.01 5.01 51 13"/><path fill="#f1f1f1" d="M43,5H14.59A1.59,1.59,0,0,0,13,6.59v51a1.6,1.6,0,0,0,1.59,1.6H49.41A1.6,1.6,0,0,0,51,57.54V13H43Z"/><path fill="none" stroke="#231f20" stroke-linecap="round" stroke-linejoin="round" stroke-width="2" d="M43,5H14.59A1.59,1.59,0,0,0,13,6.59v51a1.6,1.6,0,0,0,1.59,1.6H49.41A1.6,1.6,0,0,0,51,57.54V13H43Z"/><polygon fill="none" stroke="#231f20" stroke-linecap="round" stroke-linejoin="round" stroke-width="2" points="51 13 43.01 13 43.01 5.01 51 13"/><polygon fill="none" stroke="#231f20" stroke-linecap="round" stroke-linejoin="round" stroke-width="2" points="13 56 7.99 51 13 51 13 56"/><polygon fill="none" stroke="#231f20" stroke-linecap="round" stroke-linejoin="round" stroke-width="2" points="51 56 56.01 51 51 51 51 56"/><path fill="#ef73a0" d="M9,33H55a1,1,0,0,1,1,1V51a0,0,0,0,1,0,0H8a0,0,0,0,1,0,0V34A1,1,0,0,1,9,33Z"/><path fill="none" stroke="#231f20" stroke-linecap="round" stroke-linejoin="round" stroke-width="2" d="M9,33H55a1,1,0,0,1,1,1V51a0,0,0,0,1,0,0H8a0,0,0,0,1,0,0V34A1,1,0,0,1,9,33Z"/><path fill="#fff" d="M26.94 38.56a3.77 3.77 0 0 1 1.32 2.23H26.17a2 2 0 0 0-.71-.9 2 2 0 0 0-1.14-.32 1.71 1.71 0 0 0-1.4.64 2.53 2.53 0 0 0-.53 1.7 2.5 2.5 0 0 0 .53 1.69 1.73 1.73 0 0 0 1.4.63 2 2 0 0 0 1.14-.32 2 2 0 0 0 .71-.88h2.09a3.78 3.78 0 0 1-1.32 2.21 4 4 0 0 1-2.59.83 4.08 4.08 0 0 1-2.09-.53 3.52 3.52 0 0 1-1.39-1.47 4.59 4.59 0 0 1-.5-2.16 4.66 4.66 0 0 1 .5-2.17 3.52 3.52 0 0 1 1.39-1.47 4.45 4.45 0 0 1 4.68.29zM34.91 44.89a2.3 2.3 0 0 1-1 .87 3.45 3.45 0 0 1-1.55.32 3.64 3.64 0 0 1-2.27-.67 2.43 2.43 0 0 1-1-1.87h2.1a1.16 1.16 0 0 0 .33.73 1.05 1.05 0 0 0 .73.26.84.84 0 0 0 .6-.21.75.75 0 0 0 .22-.55.73.73 0 0 0-.2-.52 1.69 1.69 0 0 0-.51-.34c-.2-.09-.48-.2-.83-.32a9.92 9.92 0 0 1-1.27-.52 2.27 2.27 0 0 1-.84-.74 2.08 2.08 0 0 1-.35-1.27 2.11 2.11 0 0 1 .37-1.26 2.26 2.26 0 0 1 1-.82A3.75 3.75 0 0 1 32 37.7a3.32 3.32 0 0 1 2.17.65 2.47 2.47 0 0 1 .9 1.78H33a1.13 1.13 0 0 0-.3-.65.9.9 0 0 0-.64-.23.84.84 0 0 0-.56.18.68.68 0 0 0-.22.55.73.73 0 0 0 .19.49 1.7 1.7 0 0 0 .48.33c.2.08.47.19.84.32a8.74 8.74 0 0 1 1.28.53 2.34 2.34 0 0 1 .85.75 2.19 2.19 0 0 1 .36 1.3A2.25 2.25 0 0 1 34.91 44.89zM37.87 37.82l2 6.16 2-6.16H44L41.14 46H38.59l-2.84-8.18z"/><rect width="8.2" height="5.4" x="29.16" y="23.02" fill="none" stroke="#ef73a0" stroke-linecap="round" stroke-linejoin="round" stroke-width="2" transform="rotate(180 33.26 25.715)"/><rect width="11.51" height="5.4" x="17.65" y="17.62" fill="none" stroke="#ef73a0" stroke-linecap="round" stroke-linejoin="round" stroke-width="2"/><rect width="11.51" height="5.4" x="17.65" y="12.22" fill="none" stroke="#ef73a0" stroke-linecap="round" stroke-linejoin="round" stroke-width="2"/><rect width="8.2" height="5.4" x="29.16" y="12.22" fill="none" stroke="#ef73a0" stroke-linecap="round" stroke-linejoin="round" stroke-width="2" transform="rotate(180 33.26 14.92)"/><rect width="8.2" height="5.4" x="29.16" y="17.62" fill="none" stroke="#ef73a0" stroke-linecap="round" stroke-linejoin="round" stroke-width="2" transform="rotate(180 33.26 20.315)"/><rect width="11.51" height="5.4" x="17.65" y="23.02" fill="none" stroke="#ef73a0" stroke-linecap="round" stroke-linejoin="round" stroke-width="2"/><rect width="8.73" height="5.4" x="37.36" y="17.62" fill="none" stroke="#ef73a0" stroke-linecap="round" stroke-linejoin="round" stroke-width="2"/><rect width="8.73" height="5.4" x="37.36" y="23.02" fill="none" stroke="#ef73a0" stroke-linecap="round" stroke-linejoin="round" stroke-width="2"/></svg>