<svg xmlns="http://www.w3.org/2000/svg" enable-background="new 0 0 60 60" viewBox="0 0 60 60" id="file"><polygon fill="#e7eef9" points="46 53 14 53 14 7 38 7 46 15"></polygon><path d="M45.9998894,54h-32c-0.5522461,0-1-0.4477539-1-1V7c0-0.5522461,0.4477539-1,1-1h24
					c0.265625,0,0.5195313,0.1054688,0.7070313,0.2929688l8,8c0.1875,0.1875,0.2929688,0.4418945,0.2929688,0.7070313v38
					C46.9998894,53.5522461,46.5526237,54,45.9998894,54z M14.9998903,52h30V15.4140625L37.5858269,8H14.9998903V52z"></path><g><polygon fill="#c4e0ff" points="46 15 38 15 38 7"></polygon><path d="M45.9998894,16h-8c-0.5527344,0-1-0.4477539-1-1V7c0-0.4042969,0.2431641-0.769043,0.6171875-0.9238281
					c0.3740234-0.1542969,0.8037109-0.0688477,1.0898438,0.2167969l8,8
					c0.2861328,0.2861328,0.3720703,0.7158203,0.2167969,1.0898438C46.7694206,15.7563477,46.4041862,16,45.9998894,16z
					 M38.9998894,14h4.5859375l-4.5859375-4.5859375V14z"></path></g></svg>