<svg xmlns="http://www.w3.org/2000/svg" viewBox="0 0 64 64"><rect width="64" height="64" fill="none"/><rect width="63.93" height="63.93" fill="none"/><polygon fill="#1d80b2" points="13 56 7.99 51 13 51 13 56"/><polygon fill="#1d80b2" points="51 56 56.01 51 51 51 51 56"/><polygon fill="#b2b2b2" points="51 13 43.01 13 43.01 5.01 51 13"/><path fill="#f1f1f1" d="M43,5H14.59A1.59,1.59,0,0,0,13,6.59v51a1.6,1.6,0,0,0,1.59,1.6H49.41A1.6,1.6,0,0,0,51,57.54V13H43Z"/><path fill="none" stroke="#231f20" stroke-linecap="round" stroke-linejoin="round" stroke-width="2" d="M43,5H14.59A1.59,1.59,0,0,0,13,6.59v51a1.6,1.6,0,0,0,1.59,1.6H49.41A1.6,1.6,0,0,0,51,57.54V13H43Z"/><polygon fill="none" stroke="#231f20" stroke-linecap="round" stroke-linejoin="round" stroke-width="2" points="51 13 43.01 13 43.01 5.01 51 13"/><polygon fill="none" stroke="#231f20" stroke-linecap="round" stroke-linejoin="round" stroke-width="2" points="13 56 7.99 51 13 51 13 56"/><polygon fill="none" stroke="#231f20" stroke-linecap="round" stroke-linejoin="round" stroke-width="2" points="51 56 56.01 51 51 51 51 56"/><path fill="#2598de" d="M9,33H55a1,1,0,0,1,1,1V51a0,0,0,0,1,0,0H8a0,0,0,0,1,0,0V34A1,1,0,0,1,9,33Z"/><path fill="none" stroke="#231f20" stroke-linecap="round" stroke-linejoin="round" stroke-width="2" d="M9,33H55a1,1,0,0,1,1,1V51a0,0,0,0,1,0,0H8a0,0,0,0,1,0,0V34A1,1,0,0,1,9,33Z"/><path fill="#fff" d="M26.35 44a3.69 3.69 0 0 1-1.48 1.45 4.74 4.74 0 0 1-2.28.52H19.51V37.82h3.08a4.8 4.8 0 0 1 2.28.51 3.6 3.6 0 0 1 1.48 1.44 4.3 4.3 0 0 1 .51 2.13A4.36 4.36 0 0 1 26.35 44zm-2.13-.41a2.64 2.64 0 0 0 0-3.45 2.5 2.5 0 0 0-1.8-.61h-.94v4.67h.94A2.5 2.5 0 0 0 24.22 43.62zM34 38.24a3.85 3.85 0 0 1 1.48 1.49A4.27 4.27 0 0 1 36 41.88a4.35 4.35 0 0 1-.55 2.17A4 4 0 0 1 34 45.54a4.3 4.3 0 0 1-4.17 0 3.88 3.88 0 0 1-1.49-1.49 4.24 4.24 0 0 1-.55-2.17 4.17 4.17 0 0 1 .55-2.15 3.81 3.81 0 0 1 1.49-1.49 4.33 4.33 0 0 1 4.19 0zm-3.65 1.93a2.85 2.85 0 0 0 0 3.42 2 2 0 0 0 1.55.64 1.94 1.94 0 0 0 1.53-.64A2.41 2.41 0 0 0 34 41.88a2.49 2.49 0 0 0-.57-1.71 2.21 2.21 0 0 0-3.09 0zM43.42 38.57a3.68 3.68 0 0 1 1.33 2.22H42.66a1.91 1.91 0 0 0-1.85-1.22 1.71 1.71 0 0 0-1.4.64 2.53 2.53 0 0 0-.54 1.7 2.5 2.5 0 0 0 .54 1.69 1.73 1.73 0 0 0 1.4.63A1.93 1.93 0 0 0 42.66 43h2.09a3.75 3.75 0 0 1-1.33 2.21 4 4 0 0 1-2.58.83 4.08 4.08 0 0 1-2.09-.53 3.61 3.61 0 0 1-1.4-1.47 4.71 4.71 0 0 1-.49-2.16 4.78 4.78 0 0 1 .49-2.17 3.61 3.61 0 0 1 1.4-1.47 4.08 4.08 0 0 1 2.09-.53A4 4 0 0 1 43.42 38.57z"/><line x1="17.99" x2="37.09" y1="13" y2="13" fill="none" stroke="#2598de" stroke-linecap="round" stroke-linejoin="round" stroke-width="2"/><line x1="34.88" x2="46.44" y1="19.61" y2="19.61" fill="none" stroke="#2598de" stroke-linecap="round" stroke-linejoin="round" stroke-width="2"/><line x1="17.99" x2="31.25" y1="19.61" y2="19.61" fill="none" stroke="#2598de" stroke-linecap="round" stroke-linejoin="round" stroke-width="2"/><line x1="42.71" x2="46.44" y1="26.22" y2="26.22" fill="none" stroke="#2598de" stroke-linecap="round" stroke-linejoin="round" stroke-width="2"/><line x1="17.99" x2="37.94" y1="26.22" y2="26.22" fill="none" stroke="#2598de" stroke-linecap="round" stroke-linejoin="round" stroke-width="2"/></svg>