<svg xmlns="http://www.w3.org/2000/svg" viewBox="0 0 64 64"><rect width="64" height="64" fill="none"/><polygon fill="#bc4226" points="13 56 7.99 51 13 51 13 56"/><polygon fill="#bc4226" points="51 56 56.01 51 51 51 51 56"/><polygon fill="#b2b2b2" points="51 13 43.01 13 43.01 5.01 51 13"/><path fill="#f1f1f1" d="M43,5H14.59A1.59,1.59,0,0,0,13,6.59v51a1.6,1.6,0,0,0,1.59,1.6H49.41A1.6,1.6,0,0,0,51,57.54V13H43Z"/><path fill="none" stroke="#231f20" stroke-linecap="round" stroke-linejoin="round" stroke-width="2" d="M43,5H14.59A1.59,1.59,0,0,0,13,6.59v51a1.6,1.6,0,0,0,1.59,1.6H49.41A1.6,1.6,0,0,0,51,57.54V13H43Z"/><polygon fill="none" stroke="#231f20" stroke-linecap="round" stroke-linejoin="round" stroke-width="2" points="51 13 43.01 13 43.01 5.01 51 13"/><polygon fill="none" stroke="#231f20" stroke-linecap="round" stroke-linejoin="round" stroke-width="2" points="13 56 7.99 51 13 51 13 56"/><polygon fill="none" stroke="#231f20" stroke-linecap="round" stroke-linejoin="round" stroke-width="2" points="51 56 56.01 51 51 51 51 56"/><path fill="#e86741" d="M9,33H55a1,1,0,0,1,1,1V51a0,0,0,0,1,0,0H8a0,0,0,0,1,0,0V34A1,1,0,0,1,9,33Z"/><path fill="none" stroke="#231f20" stroke-linecap="round" stroke-linejoin="round" stroke-width="2" d="M9,33H55a1,1,0,0,1,1,1V51a0,0,0,0,1,0,0H8a0,0,0,0,1,0,0V34A1,1,0,0,1,9,33Z"/><path fill="#fff" d="M24.14 37.82V46h-2V42.59h-3.1V46h-2V37.82h2V41h3.1V37.82zM31.38 37.82V39.4H29.16V46h-2V39.4H25V37.82zM41.4 37.88V46h-2V40.92L37.67 46H36l-1.77-5.09V46h-2V37.88h2.41l2.21 5.66L39 37.88zM44.74 44.49h2.64V46H42.77V37.82h2z"/><path fill="#e86741" d="M28 24.19a2.76 2.76 0 0 1 .17.35.84.84 0 0 1 .08.33.74.74 0 0 1-.27.59 1 1 0 0 1-.7.24 1.5 1.5 0 0 1-.56-.1c-.32-.22-.66-.47-1-.76L24.59 24l-1.48-1.1-1.33-1a1 1 0 0 1-.35-.68 1 1 0 0 1 .47-.79h0l.46-.35.87-.68 1.06-.83 1.06-.84.86-.67a4.69 4.69 0 0 1 .47-.34 1.48 1.48 0 0 1 .55-.13 1 1 0 0 1 .71.25.83.83 0 0 1 .26.6 1 1 0 0 1-.24.68c-.24.19-.54.44-.91.72l-1.14.87-1.05.82-.85.67 4 3zM36 24.17l4-3-.85-.67-1-.82L37 18.86c-.37-.28-.67-.53-.91-.72a1 1 0 0 1-.24-.68.83.83 0 0 1 .26-.6 1 1 0 0 1 .71-.25 1.48 1.48 0 0 1 .55.13 4.69 4.69 0 0 1 .47.34l.86.67 1.06.84 1.06.83.87.68.46.35h0a1 1 0 0 1 .47.79 1 1 0 0 1-.35.68l-1.33 1L39.41 24l-1.13.85c-.36.29-.7.54-1 .76a1.5 1.5 0 0 1-.56.1 1 1 0 0 1-.7-.24.74.74 0 0 1-.27-.59.84.84 0 0 1 .08-.33 2.76 2.76 0 0 1 .17-.35z"/></svg>