<svg xmlns="http://www.w3.org/2000/svg" viewBox="0 0 64 64"><rect width="64" height="64" fill="none"/><polygon fill="#0d725a" points="13 56 7.99 51 13 51 13 56"/><polygon fill="#0d725a" points="51 56 56.01 51 51 51 51 56"/><polygon fill="#b2b2b2" points="51 13 43.01 13 43.01 5.01 51 13"/><path fill="#f1f1f1" d="M43,5H14.59A1.59,1.59,0,0,0,13,6.59v51a1.6,1.6,0,0,0,1.59,1.6H49.41A1.6,1.6,0,0,0,51,57.54V13H43Z"/><path fill="none" stroke="#231f20" stroke-linecap="round" stroke-linejoin="round" stroke-width="2" d="M43,5H14.59A1.59,1.59,0,0,0,13,6.59v51a1.6,1.6,0,0,0,1.59,1.6H49.41A1.6,1.6,0,0,0,51,57.54V13H43Z"/><polygon fill="none" stroke="#231f20" stroke-linecap="round" stroke-linejoin="round" stroke-width="2" points="51 13 43.01 13 43.01 5.01 51 13"/><polygon fill="none" stroke="#231f20" stroke-linecap="round" stroke-linejoin="round" stroke-width="2" points="13 56 7.99 51 13 51 13 56"/><polygon fill="none" stroke="#231f20" stroke-linecap="round" stroke-linejoin="round" stroke-width="2" points="51 56 56.01 51 51 51 51 56"/><polygon fill="none" stroke="#2a9f85" stroke-linecap="round" stroke-linejoin="round" stroke-width="2" points="32.29 28.01 24.86 20.42 17.43 28.01 32.29 28.01"/><polygon fill="none" stroke="#2a9f85" stroke-linecap="round" stroke-linejoin="round" stroke-width="2" points="29.08 24.73 36.29 17.39 46.49 28.01 32.29 28.01 29.08 24.73"/><circle cx="25.52" cy="14.3" r="2.3" fill="none" stroke="#2a9f85" stroke-linecap="round" stroke-linejoin="round" stroke-width="2"/><path fill="#2a9f85" d="M9,33H55a1,1,0,0,1,1,1V51a0,0,0,0,1,0,0H8a0,0,0,0,1,0,0V34A1,1,0,0,1,9,33Z"/><path fill="none" stroke="#231f20" stroke-linecap="round" stroke-linejoin="round" stroke-width="2" d="M9,33H55a1,1,0,0,1,1,1V51a0,0,0,0,1,0,0H8a0,0,0,0,1,0,0V34A1,1,0,0,1,9,33Z"/><path fill="#fff" d="M26.57 37.82v5.59a2.7 2.7 0 0 1-.7 2 2.66 2.66 0 0 1-1.94.69 2.94 2.94 0 0 1-2.13-.76A2.89 2.89 0 0 1 21 43.14H23c0 .77.29 1.15.87 1.15s.75-.29.75-.88V37.82zM29.85 43.13V46h-2V37.82h3.21a3.08 3.08 0 0 1 2.21.73 2.55 2.55 0 0 1 .77 2 2.63 2.63 0 0 1-.34 1.35 2.42 2.42 0 0 1-1 .94 3.57 3.57 0 0 1-1.63.34zm2.2-2.63c0-.72-.4-1.08-1.19-1.08h-1v2.13h1C31.65 41.55 32.05 41.2 32.05 40.5zM41.39 38.5a3.23 3.23 0 0 1 1.24 2h-2.1a1.64 1.64 0 0 0-.63-.7 2 2 0 0 0-1-.26 1.9 1.9 0 0 0-1.5.63 2.45 2.45 0 0 0-.57 1.71 2.52 2.52 0 0 0 .59 1.79 2.24 2.24 0 0 0 1.7.62 2 2 0 0 0 2-1.49h-2.5V41.41h4.15v2a3.91 3.91 0 0 1-2 2.33 4.18 4.18 0 0 1-1.81.38 4.29 4.29 0 0 1-2.16-.53 3.55 3.55 0 0 1-1.43-1.47 4.59 4.59 0 0 1-.5-2.16 4.66 4.66 0 0 1 .5-2.17 3.59 3.59 0 0 1 1.42-1.47 4.28 4.28 0 0 1 2.15-.53A4 4 0 0 1 41.39 38.5z"/></svg>