<svg xmlns="http://www.w3.org/2000/svg" viewBox="0 0 64 64"><rect width="64" height="64" fill="none"/><polygon fill="#a56423" points="13 56 7.99 51 13 51 13 56"/><polygon fill="#a56423" points="51 56 56.01 51 51 51 51 56"/><polygon fill="#b2b2b2" points="51 13 43.01 13 43.01 5.01 51 13"/><path fill="#f1f1f1" d="M43,5H14.59A1.59,1.59,0,0,0,13,6.59v51a1.6,1.6,0,0,0,1.59,1.6H49.41A1.6,1.6,0,0,0,51,57.54V13H43Z"/><path fill="none" stroke="#231f20" stroke-linecap="round" stroke-linejoin="round" stroke-width="2" d="M43,5H14.59A1.59,1.59,0,0,0,13,6.59v51a1.6,1.6,0,0,0,1.59,1.6H49.41A1.6,1.6,0,0,0,51,57.54V13H43Z"/><polygon fill="none" stroke="#231f20" stroke-linecap="round" stroke-linejoin="round" stroke-width="2" points="51 13 43.01 13 43.01 5.01 51 13"/><polygon fill="none" stroke="#231f20" stroke-linecap="round" stroke-linejoin="round" stroke-width="2" points="13 56 7.99 51 13 51 13 56"/><polygon fill="none" stroke="#231f20" stroke-linecap="round" stroke-linejoin="round" stroke-width="2" points="51 56 56.01 51 51 51 51 56"/><path fill="#ecad5c" d="M9,33H55a1,1,0,0,1,1,1V51a0,0,0,0,1,0,0H8a0,0,0,0,1,0,0V34A1,1,0,0,1,9,33Z"/><path fill="none" stroke="#231f20" stroke-linecap="round" stroke-linejoin="round" stroke-width="2" d="M9,33H55a1,1,0,0,1,1,1V51a0,0,0,0,1,0,0H8a0,0,0,0,1,0,0V34A1,1,0,0,1,9,33Z"/><path fill="#fff" d="M31.06 37.82v5.59a2.66 2.66 0 0 1-.7 2 2.62 2.62 0 0 1-1.93.69 2.91 2.91 0 0 1-2.13-.76 2.86 2.86 0 0 1-.79-2.18h2c0 .77.29 1.15.86 1.15s.76-.29.76-.88V37.82zM37.91 44.89a2.3 2.3 0 0 1-1 .87 3.45 3.45 0 0 1-1.55.32 3.64 3.64 0 0 1-2.27-.67 2.43 2.43 0 0 1-1-1.87h2.1a1.16 1.16 0 0 0 .33.73 1.05 1.05 0 0 0 .73.26.84.84 0 0 0 .6-.21.75.75 0 0 0 .22-.55.73.73 0 0 0-.2-.52 1.69 1.69 0 0 0-.51-.34c-.2-.09-.48-.2-.83-.32a9.92 9.92 0 0 1-1.27-.52 2.27 2.27 0 0 1-.84-.74 2.08 2.08 0 0 1-.35-1.27 2.11 2.11 0 0 1 .37-1.26 2.26 2.26 0 0 1 1-.82A3.75 3.75 0 0 1 35 37.7a3.32 3.32 0 0 1 2.17.65 2.47 2.47 0 0 1 .9 1.78H36a1.13 1.13 0 0 0-.3-.65.9.9 0 0 0-.64-.23.84.84 0 0 0-.56.18.68.68 0 0 0-.22.55.73.73 0 0 0 .19.49 1.7 1.7 0 0 0 .48.33c.2.08.47.19.84.32a8.74 8.74 0 0 1 1.28.53 2.34 2.34 0 0 1 .85.75 2.19 2.19 0 0 1 .36 1.3A2.25 2.25 0 0 1 37.91 44.89z"/><path fill="#ecad5c" d="M31.43 17.09h1.14a.44.44 0 0 1 .44.44v1.11a.44.44 0 0 1-.44.44H31.43a.44.44 0 0 1-.44-.44V17.53A.44.44 0 0 1 31.43 17.09zM31.43 20.76h1.14a.45.45 0 0 1 .44.45v3.7a.45.45 0 0 1-.44.45H31.43a.45.45 0 0 1-.44-.45v-3.7A.45.45 0 0 1 31.43 20.76zM24.5 20.42a2.61 2.61 0 0 1 .81.72 2.38 2.38 0 0 1 .41 1 8.53 8.53 0 0 1 .12 1.58c0 .48 0 .83 0 1.06a1.45 1.45 0 0 0 .13.52.48.48 0 0 0 .24.23 1.91 1.91 0 0 0 .47.11.64.64 0 0 1 .46.27 1 1 0 0 1 .18.61c0 .59-.35.88-1.07.88a2.5 2.5 0 0 1-1.18-.27 2 2 0 0 1-.81-.79A2.4 2.4 0 0 1 24 25.19c0-.74 0-1.33 0-1.78a6.57 6.57 0 0 0-.07-.86 1.7 1.7 0 0 0-.32-.74 2.38 2.38 0 0 0-.56-.46 2.34 2.34 0 0 1-.5-.39.85.85 0 0 1-.14-.54.9.9 0 0 1 .42-.81 4.49 4.49 0 0 0 .75-.56 1.24 1.24 0 0 0 .31-.59 3.76 3.76 0 0 0 .11-.79c0-.28 0-1 0-2.05a2.22 2.22 0 0 1 .64-1.6 2.25 2.25 0 0 1 1.64-.6c.72 0 1.07.28 1.07.86a1 1 0 0 1-.18.62.64.64 0 0 1-.46.26 1.41 1.41 0 0 0-.59.18.68.68 0 0 0-.22.45c0 .22 0 .66-.06 1.3a10.24 10.24 0 0 1-.12 1.54 2.44 2.44 0 0 1-.38 1A2.75 2.75 0 0 1 24.5 20.42zM38.66 19.65a2.44 2.44 0 0 1-.38-1 10.24 10.24 0 0 1-.12-1.54c0-.64 0-1.08-.06-1.3a.68.68 0 0 0-.22-.45 1.41 1.41 0 0 0-.59-.18.64.64 0 0 1-.46-.26 1 1 0 0 1-.18-.62c0-.58.35-.86 1.07-.86a2.25 2.25 0 0 1 1.64.6 2.22 2.22 0 0 1 .64 1.6c0 1.09 0 1.77 0 2.05a3.76 3.76 0 0 0 .11.79 1.24 1.24 0 0 0 .31.59 4.49 4.49 0 0 0 .75.56.9.9 0 0 1 .42.81.85.85 0 0 1-.14.54 2.34 2.34 0 0 1-.5.39 2.38 2.38 0 0 0-.56.46 1.7 1.7 0 0 0-.32.74 6.57 6.57 0 0 0-.07.86c0 .45 0 1 0 1.78a2.4 2.4 0 0 1-.29 1.16 2 2 0 0 1-.81.79 2.5 2.5 0 0 1-1.18.27c-.72 0-1.07-.29-1.07-.88a1 1 0 0 1 .18-.61.64.64 0 0 1 .46-.27 1.91 1.91 0 0 0 .47-.11.48.48 0 0 0 .24-.23 1.45 1.45 0 0 0 .13-.52c0-.23 0-.58 0-1.06a8.53 8.53 0 0 1 .12-1.58 2.38 2.38 0 0 1 .41-1 2.61 2.61 0 0 1 .81-.72A2.75 2.75 0 0 1 38.66 19.65z"/></svg>