<svg xmlns="http://www.w3.org/2000/svg" viewBox="0 0 64 64"><rect width="64" height="64" fill="none"/><polygon fill="#6a4e7c" points="13 56 7.99 51 13 51 13 56"/><polygon fill="#6a4e7c" points="51 56 56.01 51 51 51 51 56"/><polygon fill="#b2b2b2" points="51 13 43.01 13 43.01 5.01 51 13"/><path fill="#f1f1f1" d="M43,5H14.59A1.59,1.59,0,0,0,13,6.59v51a1.6,1.6,0,0,0,1.59,1.6H49.41A1.6,1.6,0,0,0,51,57.54V13H43Z"/><path fill="none" stroke="#231f20" stroke-linecap="round" stroke-linejoin="round" stroke-width="2" d="M43,5H14.59A1.59,1.59,0,0,0,13,6.59v51a1.6,1.6,0,0,0,1.59,1.6H49.41A1.6,1.6,0,0,0,51,57.54V13H43Z"/><polygon fill="none" stroke="#231f20" stroke-linecap="round" stroke-linejoin="round" stroke-width="2" points="51 13 43.01 13 43.01 5.01 51 13"/><polygon fill="none" stroke="#231f20" stroke-linecap="round" stroke-linejoin="round" stroke-width="2" points="13 56 7.99 51 13 51 13 56"/><polygon fill="none" stroke="#231f20" stroke-linecap="round" stroke-linejoin="round" stroke-width="2" points="51 56 56.01 51 51 51 51 56"/><path fill="#9679a6" d="M9,33H55a1,1,0,0,1,1,1V51a0,0,0,0,1,0,0H8a0,0,0,0,1,0,0V34A1,1,0,0,1,9,33Z"/><path fill="none" stroke="#231f20" stroke-linecap="round" stroke-linejoin="round" stroke-width="2" d="M9,33H55a1,1,0,0,1,1,1V51a0,0,0,0,1,0,0H8a0,0,0,0,1,0,0V34A1,1,0,0,1,9,33Z"/><path fill="#fff" d="M22.19 37.82v5.59a2.42 2.42 0 0 1-2.64 2.67 2.94 2.94 0 0 1-2.13-.76 2.89 2.89 0 0 1-.78-2.18h1.95c0 .77.29 1.15.87 1.15s.75-.29.75-.88V37.82zM29 44.89a2.36 2.36 0 0 1-1 .87 3.53 3.53 0 0 1-1.56.32 3.63 3.63 0 0 1-2.26-.67 2.4 2.4 0 0 1-1-1.87h2.1a1.11 1.11 0 0 0 .33.73 1 1 0 0 0 .72.26.81.81 0 0 0 .6-.21.71.71 0 0 0 .22-.55.69.69 0 0 0-.2-.52 1.52 1.52 0 0 0-.5-.34c-.2-.09-.48-.2-.83-.32a9.92 9.92 0 0 1-1.27-.52 2.29 2.29 0 0 1-.85-.74 2.14 2.14 0 0 1-.35-1.27 2.18 2.18 0 0 1 .37-1.26 2.34 2.34 0 0 1 1-.82 3.67 3.67 0 0 1 1.49-.28 3.3 3.3 0 0 1 2.17.65 2.45 2.45 0 0 1 .91 1.78H27.08a1.19 1.19 0 0 0-.29-.65.92.92 0 0 0-.65-.23.86.86 0 0 0-.56.18.71.71 0 0 0-.21.55.69.69 0 0 0 .19.49 1.7 1.7 0 0 0 .48.33l.83.32a8.91 8.91 0 0 1 1.29.53 2.42 2.42 0 0 1 .85.75 2.19 2.19 0 0 1 .36 1.3A2.25 2.25 0 0 1 29 44.89zM36.45 38.24a3.81 3.81 0 0 1 1.49 1.49 4.55 4.55 0 0 1 0 4.32 3.88 3.88 0 0 1-1.49 1.49 4.3 4.3 0 0 1-4.17 0 4 4 0 0 1-1.5-1.49 4.34 4.34 0 0 1-.54-2.17 4.26 4.26 0 0 1 .54-2.15 3.9 3.9 0 0 1 1.5-1.49 4.08 4.08 0 0 1 2.08-.54A4.16 4.16 0 0 1 36.45 38.24zm-3.64 1.93a2.85 2.85 0 0 0 0 3.42 2.17 2.17 0 0 0 3.08 0 2.41 2.41 0 0 0 .58-1.71 2.49 2.49 0 0 0-.57-1.71 2.21 2.21 0 0 0-3.09 0zM46.85 46h-2l-3.31-5v5h-2V37.82h2l3.31 5.07V37.82h2z"/><path fill="#9679a6" d="M27.87 22.92H29a.45.45 0 0 1 .45.45v1.09a.45.45 0 0 1-.45.45H27.87a.45.45 0 0 1-.45-.45V23.37A.45.45 0 0 1 27.87 22.92zM31.43 22.92h1.14a.44.44 0 0 1 .44.44v1.11a.44.44 0 0 1-.44.44H31.43a.44.44 0 0 1-.44-.44V23.36A.44.44 0 0 1 31.43 22.92zM35 22.92h1.13a.44.44 0 0 1 .44.44v1.11a.44.44 0 0 1-.44.44H35a.44.44 0 0 1-.44-.44v-1.1A.45.45 0 0 1 35 22.92zM23.39 21.42a2.61 2.61 0 0 1 .81.72 2.38 2.38 0 0 1 .41 1 8.53 8.53 0 0 1 .12 1.58c0 .48 0 .83 0 1.06a1.45 1.45 0 0 0 .13.52.48.48 0 0 0 .24.23 1.91 1.91 0 0 0 .47.11.64.64 0 0 1 .46.27 1 1 0 0 1 .18.61c0 .59-.35.88-1.07.88A2.53 2.53 0 0 1 24 28.14a2 2 0 0 1-.81-.79 2.4 2.4 0 0 1-.29-1.16c0-.74 0-1.33 0-1.78a6.57 6.57 0 0 0-.07-.86 1.7 1.7 0 0 0-.32-.74 2.38 2.38 0 0 0-.56-.46 2 2 0 0 1-.49-.39.79.79 0 0 1-.15-.54.9.9 0 0 1 .42-.81 4.49 4.49 0 0 0 .75-.56 1.24 1.24 0 0 0 .31-.59 3.76 3.76 0 0 0 .11-.79c0-.28 0-1 0-2.05a2.22 2.22 0 0 1 .64-1.6 2.25 2.25 0 0 1 1.64-.6c.72 0 1.07.28 1.07.86a1 1 0 0 1-.17.62.68.68 0 0 1-.47.26 1.41 1.41 0 0 0-.59.18.68.68 0 0 0-.22.45c0 .22-.05.66-.06 1.3a12 12 0 0 1-.11 1.54 2.59 2.59 0 0 1-.39 1A2.75 2.75 0 0 1 23.39 21.42zM39.77 20.65a2.59 2.59 0 0 1-.39-1 12 12 0 0 1-.11-1.54c0-.64 0-1.08-.06-1.3a.68.68 0 0 0-.22-.45 1.41 1.41 0 0 0-.59-.18.68.68 0 0 1-.47-.26 1 1 0 0 1-.17-.62c0-.58.35-.86 1.07-.86a2.25 2.25 0 0 1 1.64.6 2.22 2.22 0 0 1 .64 1.6c0 1.09 0 1.77 0 2.05a3.76 3.76 0 0 0 .11.79 1.24 1.24 0 0 0 .31.59 4.49 4.49 0 0 0 .75.56.9.9 0 0 1 .42.81.79.79 0 0 1-.15.54 2 2 0 0 1-.49.39 2.38 2.38 0 0 0-.56.46 1.7 1.7 0 0 0-.32.74 6.57 6.57 0 0 0-.07.86c0 .45 0 1 0 1.78a2.4 2.4 0 0 1-.29 1.16 2 2 0 0 1-.81.79 2.53 2.53 0 0 1-1.18.27c-.72 0-1.07-.29-1.07-.88a1 1 0 0 1 .18-.61.64.64 0 0 1 .46-.27 1.91 1.91 0 0 0 .47-.11.48.48 0 0 0 .24-.23 1.45 1.45 0 0 0 .13-.52c0-.23 0-.58 0-1.06a8.53 8.53 0 0 1 .12-1.58 2.38 2.38 0 0 1 .41-1 2.61 2.61 0 0 1 .81-.72A2.75 2.75 0 0 1 39.77 20.65z"/></svg>