<svg xmlns="http://www.w3.org/2000/svg" viewBox="0 0 64 64"><rect width="64" height="64" fill="none"/><polygon fill="#513977" points="13 56 7.99 51 13 51 13 56"/><polygon fill="#513977" points="51 56 56.01 51 51 51 51 56"/><polygon fill="#b2b2b2" points="51 13 43.01 13 43.01 5.01 51 13"/><path fill="#f1f1f1" d="M43,5H14.59A1.59,1.59,0,0,0,13,6.59v51a1.6,1.6,0,0,0,1.59,1.6H49.41A1.6,1.6,0,0,0,51,57.54V13H43Z"/><path fill="none" stroke="#231f20" stroke-linecap="round" stroke-linejoin="round" stroke-width="2" d="M43,5H14.59A1.59,1.59,0,0,0,13,6.59v51a1.6,1.6,0,0,0,1.59,1.6H49.41A1.6,1.6,0,0,0,51,57.54V13H43Z"/><polygon fill="none" stroke="#231f20" stroke-linecap="round" stroke-linejoin="round" stroke-width="2" points="51 13 43.01 13 43.01 5.01 51 13"/><polygon fill="none" stroke="#231f20" stroke-linecap="round" stroke-linejoin="round" stroke-width="2" points="13 56 7.99 51 13 51 13 56"/><polygon fill="none" stroke="#231f20" stroke-linecap="round" stroke-linejoin="round" stroke-width="2" points="51 56 56.01 51 51 51 51 56"/><path fill="#7d6897" d="M9,33H55a1,1,0,0,1,1,1V51a0,0,0,0,1,0,0H8a0,0,0,0,1,0,0V34A1,1,0,0,1,9,33Z"/><path fill="none" stroke="#231f20" stroke-linecap="round" stroke-linejoin="round" stroke-width="2" d="M9,33H55a1,1,0,0,1,1,1V51a0,0,0,0,1,0,0H8a0,0,0,0,1,0,0V34A1,1,0,0,1,9,33Z"/><path fill="#fff" d="M29.52 37.88V46h-2V40.92L25.78 46H24.07L22.3 40.91V46h-2V37.88h2.41L25 43.54l2.16-5.66zM32.86 43.13V46h-2V37.82h3.21a3.12 3.12 0 0 1 2.22.73 2.55 2.55 0 0 1 .76 2 2.63 2.63 0 0 1-.34 1.35 2.42 2.42 0 0 1-1 .94 3.54 3.54 0 0 1-1.63.34zm2.2-2.63c0-.72-.4-1.08-1.19-1.08h-1v2.13h1C34.66 41.55 35.06 41.2 35.06 40.5zM42.32 37.76a2.11 2.11 0 0 1 1.25 2A2 2 0 0 1 43.16 41a1.86 1.86 0 0 1-1 .61v.06a2 2 0 0 1 1.59 2 2.51 2.51 0 0 1-.32 1.26 2.13 2.13 0 0 1-.95.85 3.23 3.23 0 0 1-1.48.31 3.39 3.39 0 0 1-2.24-.69 2.83 2.83 0 0 1-.9-2.12h1.93a1.36 1.36 0 0 0 .31.86 1 1 0 0 0 .81.31.9.9 0 0 0 .67-.26.85.85 0 0 0 .25-.65c0-.68-.49-1-1.46-1H40V40.91h.36c.87 0 1.31-.29 1.31-.93a.89.89 0 0 0-.23-.65.82.82 0 0 0-.61-.22.81.81 0 0 0-.65.28 1.21 1.21 0 0 0-.28.76H37.94a2.76 2.76 0 0 1 .81-2 3 3 0 0 1 2.1-.69A3.33 3.33 0 0 1 42.32 37.76z"/><line x1="31.8" x2="30.76" y1="11.2" y2="24.83" fill="none" stroke="#7d6897" stroke-linecap="round" stroke-linejoin="round" stroke-width="2"/><path fill="none" stroke="#7d6897" stroke-linecap="round" stroke-linejoin="round" stroke-width="2" d="M30.56 23.09s-5.69-.66-6.37 3S32.13 29.5 30.56 23.09zM31.8 11.2a7.34 7.34 0 0 1 6.61 7.23s-3.7-3.58-6.88-3.62z"/></svg>