<svg xmlns="http://www.w3.org/2000/svg" viewBox="0 0 64 64"><rect width="64" height="64" fill="none"/><polygon fill="#ad2337" points="13 56 7.99 51 13 51 13 56"/><polygon fill="#ad2337" points="51 56 56.01 51 51 51 51 56"/><polygon fill="#b2b2b2" points="51 13 43.01 13 43.01 5.01 51 13"/><path fill="#f1f1f1" d="M43,5H14.59A1.59,1.59,0,0,0,13,6.59v51a1.6,1.6,0,0,0,1.59,1.6H49.41A1.6,1.6,0,0,0,51,57.54V13H43Z"/><path fill="none" stroke="#231f20" stroke-linecap="round" stroke-linejoin="round" stroke-width="2" d="M43,5H14.59A1.59,1.59,0,0,0,13,6.59v51a1.6,1.6,0,0,0,1.59,1.6H49.41A1.6,1.6,0,0,0,51,57.54V13H43Z"/><polygon fill="none" stroke="#231f20" stroke-linecap="round" stroke-linejoin="round" stroke-width="2" points="51 13 43.01 13 43.01 5.01 51 13"/><polygon fill="none" stroke="#231f20" stroke-linecap="round" stroke-linejoin="round" stroke-width="2" points="13 56 7.99 51 13 51 13 56"/><polygon fill="none" stroke="#231f20" stroke-linecap="round" stroke-linejoin="round" stroke-width="2" points="51 56 56.01 51 51 51 51 56"/><path fill="#f15668" d="M9,33H55a1,1,0,0,1,1,1V51a0,0,0,0,1,0,0H8a0,0,0,0,1,0,0V34A1,1,0,0,1,9,33Z"/><path fill="none" stroke="#231f20" stroke-linecap="round" stroke-linejoin="round" stroke-width="2" d="M9,33H55a1,1,0,0,1,1,1V51a0,0,0,0,1,0,0H8a0,0,0,0,1,0,0V34A1,1,0,0,1,9,33Z"/><path fill="#fff" d="M29.13 37.88V46h-2V40.92L25.4 46H23.69l-1.77-5.09V46h-2V37.88h2.42l2.2 5.66 2.17-5.66zM32.47 43.13V46h-2V37.82h3.2a3.12 3.12 0 0 1 2.22.73 2.55 2.55 0 0 1 .76 2 2.63 2.63 0 0 1-.34 1.35 2.36 2.36 0 0 1-1 .94 3.54 3.54 0 0 1-1.63.34zm2.2-2.63c0-.72-.4-1.08-1.19-1.08h-1v2.13h1C34.27 41.55 34.67 41.2 34.67 40.5zM37.48 44.5V42.84l3.74-5.12h2.12v5.05h1V44.5h-1V46h-2V44.5zm4-4.49l-2 2.76h2z"/><polygon fill="none" stroke="#f15668" stroke-linecap="round" stroke-linejoin="round" stroke-width="2" points="25.93 14.44 25.93 20.42 25.93 26.39 38.07 20.42 25.93 14.44"/></svg>