<svg xmlns="http://www.w3.org/2000/svg" viewBox="0 0 64 64"><rect width="64" height="64" fill="none"/><polygon fill="#a3313a" points="13 56 7.99 51 13 51 13 56"/><polygon fill="#a3313a" points="51 56 56.01 51 51 51 51 56"/><polygon fill="#b2b2b2" points="51 13 43.01 13 43.01 5.01 51 13"/><path fill="#f1f1f1" d="M43,5H14.59A1.59,1.59,0,0,0,13,6.59v51a1.6,1.6,0,0,0,1.59,1.6H49.41A1.6,1.6,0,0,0,51,57.54V13H43Z"/><path fill="none" stroke="#231f20" stroke-linecap="round" stroke-linejoin="round" stroke-width="2" d="M43,5H14.59A1.59,1.59,0,0,0,13,6.59v51a1.6,1.6,0,0,0,1.59,1.6H49.41A1.6,1.6,0,0,0,51,57.54V13H43Z"/><polygon fill="none" stroke="#231f20" stroke-linecap="round" stroke-linejoin="round" stroke-width="2" points="51 13 43.01 13 43.01 5.01 51 13"/><polygon fill="none" stroke="#231f20" stroke-linecap="round" stroke-linejoin="round" stroke-width="2" points="13 56 7.99 51 13 51 13 56"/><polygon fill="none" stroke="#231f20" stroke-linecap="round" stroke-linejoin="round" stroke-width="2" points="51 56 56.01 51 51 51 51 56"/><path fill="#c84d52" d="M9,33H55a1,1,0,0,1,1,1V51a0,0,0,0,1,0,0H8a0,0,0,0,1,0,0V34A1,1,0,0,1,9,33Z"/><path fill="none" stroke="#231f20" stroke-linecap="round" stroke-linejoin="round" stroke-width="2" d="M9,33H55a1,1,0,0,1,1,1V51a0,0,0,0,1,0,0H8a0,0,0,0,1,0,0V34A1,1,0,0,1,9,33Z"/><path fill="#fff" d="M23.67 43.13V46h-2V37.82h3.2a3.09 3.09 0 0 1 2.22.73 2.55 2.55 0 0 1 .77 2 2.73 2.73 0 0 1-.34 1.35 2.39 2.39 0 0 1-1 .94 3.51 3.51 0 0 1-1.63.34zm2.2-2.63q0-1.08-1.2-1.08h-1v2.13h1Q25.87 41.55 25.87 40.5zM35.69 44a3.63 3.63 0 0 1-1.48 1.45 4.7 4.7 0 0 1-2.27.52H28.85V37.82h3.09a4.75 4.75 0 0 1 2.27.51 3.54 3.54 0 0 1 1.48 1.44 4.3 4.3 0 0 1 .51 2.13A4.36 4.36 0 0 1 35.69 44zm-2.13-.41a2.64 2.64 0 0 0 0-3.45 2.5 2.5 0 0 0-1.8-.61h-.93v4.67h.93A2.5 2.5 0 0 0 33.56 43.62zM42.66 37.82V39.4H39.3v1.79h2.59v1.5H39.3V46h-2V37.82z"/><path fill="none" stroke="#c84d52" stroke-miterlimit="10" stroke-width="2" d="M32.9,10.53a5.14,5.14,0,0,1-.2,2.06c-.89,3.07-3.87,14.26-6.12,15.85-3.21,2.28-4.88-.31-3.17-2.15S35.44,22,38.73,22c4.28,0,3.73,3.79,1.3,3.56-2.74-.26-9.59-4.93-10-13.81C29.85,8.59,32.59,8,32.9,10.53Z"/></svg>