<svg xmlns="http://www.w3.org/2000/svg" viewBox="0 0 64 64"><rect width="64" height="64" x="-.01" y=".07" fill="none"/><polygon fill="#4c821e" points="13 56 7.99 51 13 51 13 56"/><polygon fill="#4c821e" points="51 56 56.01 51 51 51 51 56"/><polygon fill="#b2b2b2" points="51 13 43.01 13 43.01 5.01 51 13"/><path fill="#f1f1f1" d="M43,5H14.59A1.59,1.59,0,0,0,13,6.59v51a1.6,1.6,0,0,0,1.59,1.6H49.41A1.6,1.6,0,0,0,51,57.54V13H43Z"/><path fill="none" stroke="#231f20" stroke-linecap="round" stroke-linejoin="round" stroke-width="2" d="M43,5H14.59A1.59,1.59,0,0,0,13,6.59v51a1.6,1.6,0,0,0,1.59,1.6H49.41A1.6,1.6,0,0,0,51,57.54V13H43Z"/><polygon fill="none" stroke="#231f20" stroke-linecap="round" stroke-linejoin="round" stroke-width="2" points="51 13 43.01 13 43.01 5.01 51 13"/><polygon fill="none" stroke="#231f20" stroke-linecap="round" stroke-linejoin="round" stroke-width="2" points="13 56 7.99 51 13 51 13 56"/><polygon fill="none" stroke="#231f20" stroke-linecap="round" stroke-linejoin="round" stroke-width="2" points="51 56 56.01 51 51 51 51 56"/><path fill="#689a42" d="M9,33H55a1,1,0,0,1,1,1V51a0,0,0,0,1,0,0H8a0,0,0,0,1,0,0V34A1,1,0,0,1,9,33Z"/><path fill="none" stroke="#231f20" stroke-linecap="round" stroke-linejoin="round" stroke-width="2" d="M9,33H55a1,1,0,0,1,1,1V51a0,0,0,0,1,0,0H8a0,0,0,0,1,0,0V34A1,1,0,0,1,9,33Z"/><path fill="#fff" d="M22.35 43.2v2.87h-2V37.89h3.2a3.12 3.12 0 0 1 2.22.73 2.55 2.55 0 0 1 .76 2 2.63 2.63 0 0 1-.34 1.35 2.36 2.36 0 0 1-1 .94 3.54 3.54 0 0 1-1.63.34zm2.2-2.63c0-.72-.4-1.08-1.19-1.08h-1v2.13h1C24.15 41.62 24.55 41.27 24.55 40.57zM34.8 46.07h-2l-3.31-5v5h-2V37.89h2L32.82 43V37.89h2zM42.52 38.57a3.23 3.23 0 0 1 1.24 2h-2.1a1.64 1.64 0 0 0-.63-.7 2 2 0 0 0-1-.26 1.9 1.9 0 0 0-1.5.63A2.45 2.45 0 0 0 37.93 42a2.52 2.52 0 0 0 .59 1.79 2.24 2.24 0 0 0 1.7.62 2 2 0 0 0 2-1.49h-2.5V41.48h4.15v2a3.91 3.91 0 0 1-2 2.33 4.18 4.18 0 0 1-1.81.38 4.29 4.29 0 0 1-2.16-.53 3.61 3.61 0 0 1-1.43-1.47 4.47 4.47 0 0 1-.5-2.16 4.54 4.54 0 0 1 .5-2.17 3.65 3.65 0 0 1 1.42-1.47A4.28 4.28 0 0 1 40 37.81 4 4 0 0 1 42.52 38.57z"/><polygon fill="none" stroke="#689a42" stroke-linecap="round" stroke-linejoin="round" stroke-width="2" points="32.29 28.01 24.86 20.42 17.43 28.01 32.29 28.01"/><polygon fill="none" stroke="#689a42" stroke-linecap="round" stroke-linejoin="round" stroke-width="2" points="29.08 24.73 36.29 17.39 46.49 28.01 32.29 28.01 29.08 24.73"/><circle cx="25.52" cy="14.3" r="2.3" fill="none" stroke="#689a42" stroke-linecap="round" stroke-linejoin="round" stroke-width="2"/></svg>