<svg xmlns="http://www.w3.org/2000/svg" viewBox="0 0 64 64"><rect width="64" height="64" fill="none"/><polygon fill="#c14d33" points="13 56 7.99 51 13 51 13 56"/><polygon fill="#c14d33" points="51 56 56.01 51 51 51 51 56"/><polygon fill="#b2b2b2" points="51 13 43.01 13 43.01 5.01 51 13"/><path fill="#f1f1f1" d="M43,5H14.59A1.59,1.59,0,0,0,13,6.59v51a1.6,1.6,0,0,0,1.59,1.6H49.41A1.6,1.6,0,0,0,51,57.54V13H43Z"/><path fill="none" stroke="#231f20" stroke-linecap="round" stroke-linejoin="round" stroke-width="2" d="M43,5H14.59A1.59,1.59,0,0,0,13,6.59v51a1.6,1.6,0,0,0,1.59,1.6H49.41A1.6,1.6,0,0,0,51,57.54V13H43Z"/><polygon fill="none" stroke="#231f20" stroke-linecap="round" stroke-linejoin="round" stroke-width="2" points="51 13 43.01 13 43.01 5.01 51 13"/><polygon fill="none" stroke="#231f20" stroke-linecap="round" stroke-linejoin="round" stroke-width="2" points="13 56 7.99 51 13 51 13 56"/><polygon fill="none" stroke="#231f20" stroke-linecap="round" stroke-linejoin="round" stroke-width="2" points="51 56 56.01 51 51 51 51 56"/><path fill="#ea6f41" d="M9,33H55a1,1,0,0,1,1,1V51a0,0,0,0,1,0,0H8a0,0,0,0,1,0,0V34A1,1,0,0,1,9,33Z"/><path fill="none" stroke="#231f20" stroke-linecap="round" stroke-linejoin="round" stroke-width="2" d="M9,33H55a1,1,0,0,1,1,1V51a0,0,0,0,1,0,0H8a0,0,0,0,1,0,0V34A1,1,0,0,1,9,33Z"/><path fill="#fff" d="M24.15 43.13V46h-2V37.82h3.21a3.08 3.08 0 0 1 2.21.73 2.55 2.55 0 0 1 .77 2A2.73 2.73 0 0 1 28 41.85a2.39 2.39 0 0 1-1 .94 3.49 3.49 0 0 1-1.62.34zm2.2-2.63q0-1.08-1.2-1.08h-1v2.13h1Q26.35 41.55 26.35 40.5zM31.31 43.13V46h-2V37.82h3.2a3.12 3.12 0 0 1 2.22.73 2.55 2.55 0 0 1 .77 2 2.64 2.64 0 0 1-.35 1.35 2.31 2.31 0 0 1-1 .94 3.54 3.54 0 0 1-1.63.34zM33.5 40.5c0-.72-.39-1.08-1.19-1.08h-1v2.13h1C33.11 41.55 33.5 41.2 33.5 40.5zM42.36 37.82V39.4H40.14V46h-2V39.4H36V37.82z"/><rect width="20.17" height="9.28" x="21.91" y="16.35" fill="none" stroke="#ea6f41" stroke-linecap="round" stroke-linejoin="round" stroke-width="2"/><line x1="32" x2="32" y1="13.22" y2="16.35" fill="none" stroke="#ea6f41" stroke-linecap="round" stroke-linejoin="round" stroke-width="2"/><line x1="27.01" x2="25.02" y1="25.63" y2="29.28" fill="none" stroke="#ea6f41" stroke-linecap="round" stroke-linejoin="round" stroke-width="2"/><line x1="36.99" x2="38.98" y1="25.63" y2="29.28" fill="none" stroke="#ea6f41" stroke-linecap="round" stroke-linejoin="round" stroke-width="2"/></svg>