<svg xmlns="http://www.w3.org/2000/svg" viewBox="0 0 64 64"><rect width="64" height="64" fill="none"/><polygon fill="#2e6593" points="13 56 7.99 51 13 51 13 56"/><polygon fill="#2e6593" points="51 56 56.01 51 51 51 51 56"/><polygon fill="#b2b2b2" points="51 13 43.01 13 43.01 5.01 51 13"/><path fill="#f1f1f1" d="M43,5H14.59A1.59,1.59,0,0,0,13,6.59v51a1.6,1.6,0,0,0,1.59,1.6H49.41A1.6,1.6,0,0,0,51,57.54V13H43Z"/><path fill="none" stroke="#231f20" stroke-linecap="round" stroke-linejoin="round" stroke-width="2" d="M43,5H14.59A1.59,1.59,0,0,0,13,6.59v51a1.6,1.6,0,0,0,1.59,1.6H49.41A1.6,1.6,0,0,0,51,57.54V13H43Z"/><polygon fill="none" stroke="#231f20" stroke-linecap="round" stroke-linejoin="round" stroke-width="2" points="51 13 43.01 13 43.01 5.01 51 13"/><polygon fill="none" stroke="#231f20" stroke-linecap="round" stroke-linejoin="round" stroke-width="2" points="13 56 7.99 51 13 51 13 56"/><polygon fill="none" stroke="#231f20" stroke-linecap="round" stroke-linejoin="round" stroke-width="2" points="51 56 56.01 51 51 51 51 56"/><path fill="#5c8bc0" d="M9,33H55a1,1,0,0,1,1,1V51a0,0,0,0,1,0,0H8a0,0,0,0,1,0,0V34A1,1,0,0,1,9,33Z"/><path fill="none" stroke="#231f20" stroke-linecap="round" stroke-linejoin="round" stroke-width="2" d="M9,33H55a1,1,0,0,1,1,1V51a0,0,0,0,1,0,0H8a0,0,0,0,1,0,0V34A1,1,0,0,1,9,33Z"/><path fill="#fff" d="M23.36 43.13V46h-2V37.82h3.2a3.12 3.12 0 0 1 2.22.73 2.55 2.55 0 0 1 .77 2 2.64 2.64 0 0 1-.35 1.35 2.31 2.31 0 0 1-1 .94 3.51 3.51 0 0 1-1.63.34zm2.19-2.63c0-.72-.39-1.08-1.19-1.08h-1v2.13h1C25.16 41.55 25.55 41.2 25.55 40.5zM34.08 44.89a2.36 2.36 0 0 1-1 .87 3.51 3.51 0 0 1-1.55.32 3.64 3.64 0 0 1-2.27-.67 2.43 2.43 0 0 1-1-1.87h2.1a1.11 1.11 0 0 0 .33.73 1 1 0 0 0 .72.26.85.85 0 0 0 .61-.21.75.75 0 0 0 .22-.55.7.7 0 0 0-.21-.52 1.52 1.52 0 0 0-.5-.34c-.2-.09-.48-.2-.83-.32a9.92 9.92 0 0 1-1.27-.52 2.19 2.19 0 0 1-.84-.74 2.08 2.08 0 0 1-.36-1.27 2.18 2.18 0 0 1 .37-1.26 2.34 2.34 0 0 1 1-.82 3.68 3.68 0 0 1 1.5-.28 3.29 3.29 0 0 1 2.16.65 2.45 2.45 0 0 1 .91 1.78H32.12a1.19 1.19 0 0 0-.29-.65.9.9 0 0 0-.64-.23.86.86 0 0 0-.57.18.71.71 0 0 0-.21.55.69.69 0 0 0 .19.49 1.7 1.7 0 0 0 .48.33l.83.32a8.46 8.46 0 0 1 1.29.53 2.42 2.42 0 0 1 .85.75 2.19 2.19 0 0 1 .36 1.3A2.25 2.25 0 0 1 34.08 44.89zM42.35 44a3.63 3.63 0 0 1-1.48 1.45A4.67 4.67 0 0 1 38.6 46H35.51V37.82H38.6a4.8 4.8 0 0 1 2.28.51 3.52 3.52 0 0 1 1.47 1.44 4.3 4.3 0 0 1 .51 2.13A4.36 4.36 0 0 1 42.35 44zm-2.13-.41a2.64 2.64 0 0 0 0-3.45 2.5 2.5 0 0 0-1.8-.61h-.93v4.67h.93A2.5 2.5 0 0 0 40.22 43.62z"/><path fill="none" stroke="#5c8bc0" stroke-linecap="round" stroke-linejoin="round" stroke-width="2" d="M31.31,22.89a3.36,3.36,0,0,0-3-1.76,3.31,3.31,0,0,0-2.56.95c-1.28,1.63.64,5.15-1.85,6.57,0,0,6.08-.5,7.29-2.8A3.3,3.3,0,0,0,31.31,22.89Z"/><path fill="none" stroke="#5c8bc0" stroke-linecap="round" stroke-linejoin="round" stroke-width="2" d="M39.78,15.48l-8,7.67L29.65,21l7.57-8.08a.9.9,0,0,1,1.31,0l1.26,1.26A.91.91,0,0,1,39.78,15.48Z"/><line x1="31.77" x2="33.93" y1="18.77" y2="20.92" fill="none" stroke="#5c8bc0" stroke-linecap="round" stroke-linejoin="round" stroke-width="2"/></svg>