<svg xmlns="http://www.w3.org/2000/svg" viewBox="0 0 64 64"><rect width="64" height="64" fill="none"/><polygon fill="#af5325" points="13 56 7.99 51 13 51 13 56"/><polygon fill="#af5325" points="51 56 56.01 51 51 51 51 56"/><polygon fill="#b2b2b2" points="51 13 43.01 13 43.01 5.01 51 13"/><path fill="#f1f1f1" d="M43,5H14.59A1.59,1.59,0,0,0,13,6.59v51a1.6,1.6,0,0,0,1.59,1.6H49.41A1.6,1.6,0,0,0,51,57.54V13H43Z"/><path fill="none" stroke="#231f20" stroke-linecap="round" stroke-linejoin="round" stroke-width="2" d="M43,5H14.59A1.59,1.59,0,0,0,13,6.59v51a1.6,1.6,0,0,0,1.59,1.6H49.41A1.6,1.6,0,0,0,51,57.54V13H43Z"/><polygon fill="none" stroke="#231f20" stroke-linecap="round" stroke-linejoin="round" stroke-width="2" points="51 13 43.01 13 43.01 5.01 51 13"/><polygon fill="none" stroke="#231f20" stroke-linecap="round" stroke-linejoin="round" stroke-width="2" points="13 56 7.99 51 13 51 13 56"/><polygon fill="none" stroke="#231f20" stroke-linecap="round" stroke-linejoin="round" stroke-width="2" points="51 56 56.01 51 51 51 51 56"/><path fill="#e17e3d" d="M9,33H55a1,1,0,0,1,1,1V51a0,0,0,0,1,0,0H8a0,0,0,0,1,0,0V34A1,1,0,0,1,9,33Z"/><path fill="none" stroke="#231f20" stroke-linecap="round" stroke-linejoin="round" stroke-width="2" d="M9,33H55a1,1,0,0,1,1,1V51a0,0,0,0,1,0,0H8a0,0,0,0,1,0,0V34A1,1,0,0,1,9,33Z"/><path fill="#fff" d="M26.13 44.89a2.36 2.36 0 0 1-1 .87 3.51 3.51 0 0 1-1.55.32 3.64 3.64 0 0 1-2.27-.67 2.43 2.43 0 0 1-1-1.87h2.1a1.11 1.11 0 0 0 .33.73 1 1 0 0 0 .72.26.81.81 0 0 0 .6-.21.72.72 0 0 0 .23-.55.7.7 0 0 0-.21-.52 1.52 1.52 0 0 0-.5-.34c-.2-.09-.48-.2-.83-.32a9.92 9.92 0 0 1-1.27-.52 2.19 2.19 0 0 1-.84-.74 2.08 2.08 0 0 1-.36-1.27 2.18 2.18 0 0 1 .37-1.26 2.34 2.34 0 0 1 1-.82 3.67 3.67 0 0 1 1.49-.28 3.3 3.3 0 0 1 2.17.65 2.45 2.45 0 0 1 .91 1.78H24.17a1.12 1.12 0 0 0-.29-.65.92.92 0 0 0-.65-.23.86.86 0 0 0-.56.18.71.71 0 0 0-.21.55.69.69 0 0 0 .19.49 1.7 1.7 0 0 0 .48.33l.83.32a8.46 8.46 0 0 1 1.29.53 2.42 2.42 0 0 1 .85.75 2.19 2.19 0 0 1 .36 1.3A2.25 2.25 0 0 1 26.13 44.89zM29.09 37.82l2 6.16 2-6.16H35.2L32.36 46H29.8L27 37.82zM42.33 38.5a3.17 3.17 0 0 1 1.23 2H41.47a1.6 1.6 0 0 0-.64-.7 2.13 2.13 0 0 0-2.53.37 2.45 2.45 0 0 0-.56 1.71 2.48 2.48 0 0 0 .59 1.79 2.21 2.21 0 0 0 1.69.62 2.1 2.1 0 0 0 1.24-.38A2 2 0 0 0 42 42.83H39.52V41.41h4.15v2a4.07 4.07 0 0 1-.74 1.33 4 4 0 0 1-1.3 1 4.22 4.22 0 0 1-1.81.38 4.33 4.33 0 0 1-2.17-.53 3.59 3.59 0 0 1-1.42-1.47 4.48 4.48 0 0 1-.51-2.16 4.54 4.54 0 0 1 .51-2.17 3.59 3.59 0 0 1 1.42-1.47 4.24 4.24 0 0 1 2.14-.53A4.06 4.06 0 0 1 42.33 38.5z"/><rect width="4.95" height="4.95" x="29.53" y="15.95" fill="none" stroke="#e17e3d" stroke-linecap="round" stroke-linejoin="round" stroke-width="2"/><circle cx="22.92" cy="18.72" r="2.47" fill="none" stroke="#e17e3d" stroke-linecap="round" stroke-linejoin="round" stroke-width="2"/><line x1="25.39" x2="29.53" y1="18.72" y2="18.72" fill="none" stroke="#e17e3d" stroke-linecap="round" stroke-linejoin="round" stroke-width="2"/><circle cx="41.08" cy="18.72" r="2.47" fill="none" stroke="#e17e3d" stroke-linecap="round" stroke-linejoin="round" stroke-width="2"/><line x1="34.47" x2="38.61" y1="18.72" y2="18.72" fill="none" stroke="#e17e3d" stroke-linecap="round" stroke-linejoin="round" stroke-width="2"/><path fill="none" stroke="#e17e3d" stroke-linecap="round" stroke-linejoin="round" stroke-width="2" d="M25.1,28.59a6.9,6.9,0,0,1,13.8,0"/></svg>