<svg xmlns="http://www.w3.org/2000/svg" viewBox="0 0 64 64"><rect width="64" height="64" fill="none"/><polygon fill="#536363" points="13 56 7.99 51 13 51 13 56"/><polygon fill="#536363" points="51 56 56.01 51 51 51 51 56"/><polygon fill="#b2b2b2" points="51 13 43.01 13 43.01 5.01 51 13"/><path fill="#f1f1f1" d="M43,5H14.59A1.59,1.59,0,0,0,13,6.59v51a1.6,1.6,0,0,0,1.59,1.6H49.41A1.6,1.6,0,0,0,51,57.54V13H43Z"/><path fill="none" stroke="#231f20" stroke-linecap="round" stroke-linejoin="round" stroke-width="2" d="M43,5H14.59A1.59,1.59,0,0,0,13,6.59v51a1.6,1.6,0,0,0,1.59,1.6H49.41A1.6,1.6,0,0,0,51,57.54V13H43Z"/><polygon fill="none" stroke="#231f20" stroke-linecap="round" stroke-linejoin="round" stroke-width="2" points="51 13 43.01 13 43.01 5.01 51 13"/><polygon fill="none" stroke="#231f20" stroke-linecap="round" stroke-linejoin="round" stroke-width="2" points="13 56 7.99 51 13 51 13 56"/><polygon fill="none" stroke="#231f20" stroke-linecap="round" stroke-linejoin="round" stroke-width="2" points="51 56 56.01 51 51 51 51 56"/><path fill="#96a5a5" d="M9,33H55a1,1,0,0,1,1,1V51a0,0,0,0,1,0,0H8a0,0,0,0,1,0,0V34A1,1,0,0,1,9,33Z"/><path fill="none" stroke="#231f20" stroke-linecap="round" stroke-linejoin="round" stroke-width="2" d="M9,33H55a1,1,0,0,1,1,1V51a0,0,0,0,1,0,0H8a0,0,0,0,1,0,0V34A1,1,0,0,1,9,33Z"/><path fill="#fff" d="M27.81 37.82V39.4H25.59V46h-2V39.4H21.41V37.82zM33.61 46l-1.73-2.54L30.4 46H28.14l2.61-4.21-2.69-4H30.4l1.68 2.47 1.45-2.47h2.25L33.2 41.94 36 46zM42.59 37.82V39.4H40.37V46h-2V39.4H36.19V37.82z"/><line x1="23.31" x2="37.09" y1="13" y2="13" fill="none" stroke="#96a5a5" stroke-linecap="round" stroke-linejoin="round" stroke-width="2"/><line x1="17.99" x2="20.47" y1="13" y2="13" fill="none" stroke="#96a5a5" stroke-linecap="round" stroke-linejoin="round" stroke-width="2"/><line x1="34.88" x2="46.44" y1="19.61" y2="19.61" fill="none" stroke="#96a5a5" stroke-linecap="round" stroke-linejoin="round" stroke-width="2"/><line x1="17.99" x2="31.25" y1="19.61" y2="19.61" fill="none" stroke="#96a5a5" stroke-linecap="round" stroke-linejoin="round" stroke-width="2"/><line x1="42.71" x2="46.44" y1="26.22" y2="26.22" fill="none" stroke="#96a5a5" stroke-linecap="round" stroke-linejoin="round" stroke-width="2"/><line x1="25.43" x2="39.47" y1="26.22" y2="26.22" fill="none" stroke="#96a5a5" stroke-linecap="round" stroke-linejoin="round" stroke-width="2"/><line x1="17.99" x2="21.77" y1="26.22" y2="26.22" fill="none" stroke="#96a5a5" stroke-linecap="round" stroke-linejoin="round" stroke-width="2"/></svg>