<svg xmlns="http://www.w3.org/2000/svg" viewBox="0 0 64 64"><rect width="64" height="64" fill="none"/><polygon fill="#108c57" points="13 56 7.99 51 13 51 13 56"/><polygon fill="#108c57" points="51 56 56.01 51 51 51 51 56"/><polygon fill="#b2b2b2" points="51 13 43.01 13 43.01 5.01 51 13"/><path fill="#f1f1f1" d="M43,5H14.59A1.59,1.59,0,0,0,13,6.59v51a1.6,1.6,0,0,0,1.59,1.6H49.41A1.6,1.6,0,0,0,51,57.54V13H43Z"/><path fill="none" stroke="#231f20" stroke-linecap="round" stroke-linejoin="round" stroke-width="2" d="M43,5H14.59A1.59,1.59,0,0,0,13,6.59v51a1.6,1.6,0,0,0,1.59,1.6H49.41A1.6,1.6,0,0,0,51,57.54V13H43Z"/><polygon fill="none" stroke="#231f20" stroke-linecap="round" stroke-linejoin="round" stroke-width="2" points="51 13 43.01 13 43.01 5.01 51 13"/><polygon fill="none" stroke="#231f20" stroke-linecap="round" stroke-linejoin="round" stroke-width="2" points="13 56 7.99 51 13 51 13 56"/><polygon fill="none" stroke="#231f20" stroke-linecap="round" stroke-linejoin="round" stroke-width="2" points="51 56 56.01 51 51 51 51 56"/><path fill="#95cba3" d="M9,33H55a1,1,0,0,1,1,1V51a0,0,0,0,1,0,0H8a0,0,0,0,1,0,0V34A1,1,0,0,1,9,33Z"/><path fill="none" stroke="#231f20" stroke-linecap="round" stroke-linejoin="round" stroke-width="2" d="M9,33H55a1,1,0,0,1,1,1V51a0,0,0,0,1,0,0H8a0,0,0,0,1,0,0V34A1,1,0,0,1,9,33Z"/><path fill="#fff" d="M27.36 46l-1.73-2.54L24.15 46H21.89l2.61-4.21-2.69-4h2.34l1.68 2.47 1.45-2.47h2.25L27 41.94 29.7 46zM32.45 44.49h2.63V46H30.47V37.82h2zM41.54 44.89a2.36 2.36 0 0 1-1 .87 3.53 3.53 0 0 1-1.56.32 3.63 3.63 0 0 1-2.26-.67 2.4 2.4 0 0 1-1-1.87h2.1a1.11 1.11 0 0 0 .33.73 1 1 0 0 0 .72.26.81.81 0 0 0 .6-.21.71.71 0 0 0 .22-.55.69.69 0 0 0-.2-.52 1.52 1.52 0 0 0-.5-.34c-.2-.09-.48-.2-.84-.32A10.34 10.34 0 0 1 37 42.07a2.29 2.29 0 0 1-.85-.74 2.14 2.14 0 0 1-.35-1.27 2.18 2.18 0 0 1 .37-1.26 2.34 2.34 0 0 1 1-.82 3.67 3.67 0 0 1 1.49-.28 3.3 3.3 0 0 1 2.17.65 2.45 2.45 0 0 1 .91 1.78H39.58a1.19 1.19 0 0 0-.29-.65.92.92 0 0 0-.65-.23.84.84 0 0 0-.56.18.71.71 0 0 0-.21.55.69.69 0 0 0 .19.49 1.7 1.7 0 0 0 .48.33l.83.32a8.29 8.29 0 0 1 1.28.53 2.36 2.36 0 0 1 .86.75 2.19 2.19 0 0 1 .36 1.3A2.25 2.25 0 0 1 41.54 44.89z"/><rect width="8.2" height="5.4" x="29.16" y="23.02" fill="none" stroke="#95cba3" stroke-linecap="round" stroke-linejoin="round" stroke-width="2" transform="rotate(180 33.26 25.715)"/><rect width="11.51" height="5.4" x="17.65" y="17.62" fill="none" stroke="#95cba3" stroke-linecap="round" stroke-linejoin="round" stroke-width="2"/><rect width="11.51" height="5.4" x="17.65" y="12.22" fill="none" stroke="#95cba3" stroke-linecap="round" stroke-linejoin="round" stroke-width="2"/><rect width="8.2" height="5.4" x="29.16" y="12.22" fill="none" stroke="#95cba3" stroke-linecap="round" stroke-linejoin="round" stroke-width="2" transform="rotate(180 33.26 14.92)"/><rect width="8.2" height="5.4" x="29.16" y="17.62" fill="none" stroke="#95cba3" stroke-linecap="round" stroke-linejoin="round" stroke-width="2" transform="rotate(180 33.26 20.315)"/><rect width="11.51" height="5.4" x="17.65" y="23.02" fill="none" stroke="#95cba3" stroke-linecap="round" stroke-linejoin="round" stroke-width="2"/><rect width="8.73" height="5.4" x="37.36" y="17.62" fill="none" stroke="#95cba3" stroke-linecap="round" stroke-linejoin="round" stroke-width="2"/><rect width="8.73" height="5.4" x="37.36" y="23.02" fill="none" stroke="#95cba3" stroke-linecap="round" stroke-linejoin="round" stroke-width="2"/></svg>