<svg xmlns="http://www.w3.org/2000/svg" viewBox="0 0 64 64"><rect width="64" height="64" fill="none"/><polygon fill="#ba6d20" points="13 56 7.99 51 13 51 13 56"/><polygon fill="#ba6d20" points="51 56 56.01 51 51 51 51 56"/><polygon fill="#b2b2b2" points="51 13 43.01 13 43.01 5.01 51 13"/><path fill="#f1f1f1" d="M43,5H14.59A1.59,1.59,0,0,0,13,6.59v51a1.6,1.6,0,0,0,1.59,1.6H49.41A1.6,1.6,0,0,0,51,57.54V13H43Z"/><path fill="none" stroke="#231f20" stroke-linecap="round" stroke-linejoin="round" stroke-width="2" d="M43,5H14.59A1.59,1.59,0,0,0,13,6.59v51a1.6,1.6,0,0,0,1.59,1.6H49.41A1.6,1.6,0,0,0,51,57.54V13H43Z"/><polygon fill="none" stroke="#231f20" stroke-linecap="round" stroke-linejoin="round" stroke-width="2" points="51 13 43.01 13 43.01 5.01 51 13"/><polygon fill="none" stroke="#231f20" stroke-linecap="round" stroke-linejoin="round" stroke-width="2" points="13 56 7.99 51 13 51 13 56"/><polygon fill="none" stroke="#231f20" stroke-linecap="round" stroke-linejoin="round" stroke-width="2" points="51 56 56.01 51 51 51 51 56"/><path fill="#ee9b40" d="M9,33H55a1,1,0,0,1,1,1V51a0,0,0,0,1,0,0H8a0,0,0,0,1,0,0V34A1,1,0,0,1,9,33Z"/><path fill="none" stroke="#231f20" stroke-linecap="round" stroke-linejoin="round" stroke-width="2" d="M9,33H55a1,1,0,0,1,1,1V51a0,0,0,0,1,0,0H8a0,0,0,0,1,0,0V34A1,1,0,0,1,9,33Z"/><path fill="#fff" d="M25.57 46l-1.73-2.54L22.36 46H20.1l2.61-4.21-2.7-4h2.35L24 40.29l1.44-2.47h2.26l-2.58 4.12L27.91 46zM37.87 37.88V46h-2V40.92L34.13 46H32.42l-1.77-5.09V46h-2V37.88h2.41l2.21 5.66 2.16-5.66zM41.21 44.49h2.64V46H39.23V37.82h2z"/><path fill="#ee9b40" d="M25.67 24.19c.07.13.13.24.18.35a1 1 0 0 1 .07.33.74.74 0 0 1-.27.59 1 1 0 0 1-.7.24 1.5 1.5 0 0 1-.56-.1c-.32-.22-.66-.47-1-.76L22.24 24l-1.47-1.1-1.34-1a.87.87 0 0 1 .13-1.47h0L20 20.1l.87-.68 1.06-.83L23 17.75l.85-.67a4.69 4.69 0 0 1 .47-.34 1.49 1.49 0 0 1 .56-.13 1 1 0 0 1 .7.25.8.8 0 0 1 .27.6 1 1 0 0 1-.25.68c-.24.19-.54.44-.91.72l-1.14.87-1.05.82-.85.67 4 3zM38.37 24.17l4-3-.85-.67-1-.82-1.14-.87c-.37-.28-.67-.53-.91-.72a1 1 0 0 1-.25-.68.8.8 0 0 1 .27-.6 1 1 0 0 1 .7-.25 1.49 1.49 0 0 1 .56.13 4.69 4.69 0 0 1 .47.34l.85.67 1.07.84 1.06.83.87.68.45.35h0a.87.87 0 0 1 .13 1.47l-1.34 1L41.76 24l-1.13.85c-.36.29-.7.54-1 .76a1.5 1.5 0 0 1-.56.1 1 1 0 0 1-.7-.24.74.74 0 0 1-.27-.59 1 1 0 0 1 .07-.33c.05-.11.11-.22.18-.35zM34.13 13.81a1.13 1.13 0 0 1 .95-.58 1 1 0 0 1 .68.24.86.86 0 0 1 .29.67.88.88 0 0 1-.06.33l-4 9.17c-.36.82-.72 1.66-1.09 2.52s-.74 1.69-1.1 2.52a1.22 1.22 0 0 1-.46.4 1.37 1.37 0 0 1-.49.11 1 1 0 0 1-.67-.23.86.86 0 0 1-.28-.7A1.87 1.87 0 0 1 28 28l3.93-9.06c.35-.84.73-1.7 1.11-2.57z"/></svg>