<svg xmlns="http://www.w3.org/2000/svg" viewBox="0 0 64 64"><rect width="64" height="64" fill="none"/><polygon fill="#8c5c31" points="13 56 7.99 51 13 51 13 56"/><polygon fill="#8c5c31" points="51 56 56.01 51 51 51 51 56"/><polygon fill="#b2b2b2" points="51 13 43.01 13 43.01 5.01 51 13"/><path fill="#f1f1f1" d="M43,5H14.59A1.59,1.59,0,0,0,13,6.59v51a1.6,1.6,0,0,0,1.59,1.6H49.41A1.6,1.6,0,0,0,51,57.54V13H43Z"/><path fill="none" stroke="#231f20" stroke-linecap="round" stroke-linejoin="round" stroke-width="2" d="M43,5H14.59A1.59,1.59,0,0,0,13,6.59v51a1.6,1.6,0,0,0,1.59,1.6H49.41A1.6,1.6,0,0,0,51,57.54V13H43Z"/><polygon fill="none" stroke="#231f20" stroke-linecap="round" stroke-linejoin="round" stroke-width="2" points="51 13 43.01 13 43.01 5.01 51 13"/><polygon fill="none" stroke="#231f20" stroke-linecap="round" stroke-linejoin="round" stroke-width="2" points="13 56 7.99 51 13 51 13 56"/><polygon fill="none" stroke="#231f20" stroke-linecap="round" stroke-linejoin="round" stroke-width="2" points="51 56 56.01 51 51 51 51 56"/><path fill="#c3996b" d="M9,33H55a1,1,0,0,1,1,1V51a0,0,0,0,1,0,0H8a0,0,0,0,1,0,0V34A1,1,0,0,1,9,33Z"/><path fill="none" stroke="#231f20" stroke-linecap="round" stroke-linejoin="round" stroke-width="2" d="M9,33H55a1,1,0,0,1,1,1V51a0,0,0,0,1,0,0H8a0,0,0,0,1,0,0V34A1,1,0,0,1,9,33Z"/><path fill="#fff" d="M26 44.4h3.61V46h-5.8V44.5l3.55-5.09H23.89V37.82h5.74v1.51zM32.84 37.82V46h-2V37.82zM36.19 43.13V46h-2V37.82h3.2a3.12 3.12 0 0 1 2.22.73 2.55 2.55 0 0 1 .76 2 2.63 2.63 0 0 1-.34 1.35 2.31 2.31 0 0 1-1 .94 3.54 3.54 0 0 1-1.63.34zm2.19-2.63c0-.72-.39-1.08-1.19-1.08h-1v2.13h1C38 41.55 38.38 41.2 38.38 40.5z"/><path fill="none" stroke="#c3996b" stroke-linecap="round" stroke-linejoin="round" stroke-width="2" d="M29.42,23.33h5.16a0,0,0,0,1,0,0v3.16a2,2,0,0,1-2,2H31.42a2,2,0,0,1-2-2V23.33a0,0,0,0,1,0,0Z"/><line x1="29.42" x2="34.58" y1="19.61" y2="19.61" fill="none" stroke="#c3996b" stroke-linecap="round" stroke-linejoin="round" stroke-width="2"/><line x1="29.42" x2="34.58" y1="15.49" y2="15.49" fill="none" stroke="#c3996b" stroke-linecap="round" stroke-linejoin="round" stroke-width="2"/><line x1="29.42" x2="34.58" y1="11.37" y2="11.37" fill="none" stroke="#c3996b" stroke-linecap="round" stroke-linejoin="round" stroke-width="2"/><line x1="32" x2="32" y1="9" y2="23.33" fill="none" stroke="#c3996b" stroke-linecap="round" stroke-linejoin="round" stroke-width="2"/></svg>