<svg width="390" height="60" viewBox="0 0 390 60" fill="none" xmlns="http://www.w3.org/2000/svg">
<rect width="390" height="60" fill="#C0C0C0"/>
<rect x="370.05" y="0.05" width="9.9" height="9.9" fill="#F7F7F7" stroke="black" stroke-width="0.1"/>
<rect x="380.05" y="0.05" width="9.9" height="9.9" fill="#F7F7F7" stroke="black" stroke-width="0.1"/>
<path d="M371.656 7H371.105L372.658 2.75781H373.215L374.768 7H374.211L373.789 5.80469H372.084L371.656 7ZM372.242 5.3418H373.625L372.951 3.44336H372.916L372.242 5.3418ZM376.48 7H375.162V2.75781H376.533C377.769 2.75781 378.502 3.55469 378.502 4.87305C378.502 6.19727 377.769 7 376.48 7ZM375.689 6.53125H376.445C377.488 6.53125 377.986 5.9043 377.986 4.87305C377.986 3.84766 377.488 3.22656 376.498 3.22656H375.689V6.53125Z" fill="black"/>
<line x1="387.192" y1="2.94962" x2="382.949" y2="7.19226" stroke="black" stroke-width="0.2"/>
<line x1="382.949" y1="2.8082" x2="387.192" y2="7.05084" stroke="black" stroke-width="0.2"/>
</svg>
