<svg width="27" height="27" viewBox="0 0 27 27" fill="none" xmlns="http://www.w3.org/2000/svg">
<path d="M26.6618 3.33735C26.6618 3.33809 26.6621 3.3388 26.6626 3.33933C26.8787 3.55648 27 3.85034 27 4.15668C27 4.46341 26.8784 4.75763 26.6618 4.97485L25.6582 5.97931C24.8773 6.76088 23.6105 6.76118 22.8293 5.97999L21.0217 4.17269C20.2408 3.39189 20.2405 2.12594 21.021 1.34476L22.0257 0.339306C22.243 0.122049 22.5378 0 22.8451 0C23.1524 0 23.4472 0.122049 23.6645 0.339306L26.661 3.33537C26.6615 3.33589 26.6618 3.33661 26.6618 3.33735ZM21.1911 10.4453C21.9721 9.66416 21.972 8.39785 21.1909 7.61686L19.3833 5.80945C18.6022 5.02849 17.3359 5.02853 16.5549 5.80956L2.17601 20.1887C2.04843 20.3163 1.95239 20.4718 1.89552 20.643L0.0294761 26.2381C-0.00436589 26.3401 -0.00917094 26.4495 0.0155985 26.5541C0.040368 26.6587 0.0937364 26.7543 0.169738 26.8303C0.245739 26.9063 0.341378 26.9596 0.445967 26.9844C0.550556 27.0092 0.659972 27.0044 0.761987 26.9705L6.35781 25.1047C6.5288 25.0485 6.68436 24.9533 6.81216 24.8266L21.1911 10.4453Z" fill="white"/>
</svg>
