<svg width="16" height="16" viewBox="0 0 16 16" fill="none" xmlns="http://www.w3.org/2000/svg">
<path d="M8 16C12.4182 16 16 12.4182 16 8C16 3.58172 12.4182 0 8 0C3.58172 0 0 3.58172 0 8C0 9.45712 0.389576 10.8233 1.07026 12L0.4 15.6L4 14.9298C5.1767 15.6104 6.54288 16 8 16Z" fill="#DDDDDD"/>
<path d="M11.7905 9.0271C12.2617 9.0271 12.6438 8.645 12.6438 8.17383C12.6438 7.70265 12.2617 7.32056 11.7905 7.32056C11.3193 7.32056 10.9373 7.70265 10.9373 8.17383C10.9373 8.645 11.3193 9.0271 11.7905 9.0271Z" fill="black"/>
<path d="M8.37768 9.0271C8.84886 9.0271 9.23095 8.645 9.23095 8.17383C9.23095 7.70265 8.84886 7.32056 8.37768 7.32056C7.90651 7.32056 7.52441 7.70265 7.52441 8.17383C7.52441 8.645 7.90651 9.0271 8.37768 9.0271Z" fill="black"/>
<path d="M4.9646 9.0271C5.43584 9.0271 5.81787 8.645 5.81787 8.17383C5.81787 7.70265 5.43584 7.32056 4.9646 7.32056C4.49335 7.32056 4.11133 7.70265 4.11133 8.17383C4.11133 8.645 4.49335 9.0271 4.9646 9.0271Z" fill="black"/>
</svg>
