<svg width="20" height="20" viewBox="0 0 20 20" fill="none" xmlns="http://www.w3.org/2000/svg">
<path d="M10 20C15.5228 20 20 15.5228 20 10C20 4.47715 15.5228 0 10 0C4.47715 0 0 4.47715 0 10C0 11.8214 0.48697 13.5291 1.33782 15L0.5 19.5L5 18.6622C6.47087 19.513 8.1786 20 10 20Z" fill="#9C9C9C"/>
<path d="M14.7382 11.2836C15.3272 11.2836 15.8048 10.8059 15.8048 10.217C15.8048 9.62801 15.3272 9.15039 14.7382 9.15039C14.1492 9.15039 13.6716 9.62801 13.6716 10.217C13.6716 10.8059 14.1492 11.2836 14.7382 11.2836Z" fill="#F6F6F6"/>
<path d="M10.4721 11.2836C11.0611 11.2836 11.5387 10.8059 11.5387 10.217C11.5387 9.62801 11.0611 9.15039 10.4721 9.15039C9.88314 9.15039 9.40552 9.62801 9.40552 10.217C9.40552 10.8059 9.88314 11.2836 10.4721 11.2836Z" fill="#F6F6F6"/>
<path d="M6.20575 11.2836C6.7948 11.2836 7.27233 10.8059 7.27233 10.217C7.27233 9.62801 6.7948 9.15039 6.20575 9.15039C5.61669 9.15039 5.13916 9.62801 5.13916 10.217C5.13916 10.8059 5.61669 11.2836 6.20575 11.2836Z" fill="#F6F6F6"/>
</svg>
