<svg width="7" height="9" viewBox="0 0 7 9" fill="none" xmlns="http://www.w3.org/2000/svg">
<g clip-path="url(#clip0_2280_287)">
<path d="M6.74297 1.72119L5.21354 0.246387C5.04948 0.0881836 4.82708 -0.00146484 4.59557 -0.00146484H0.875C0.391927 0.000292968 0 0.378223 0 0.844043V8.15654C0 8.62236 0.391927 9.00029 0.875 9.00029H6.125C6.60807 9.00029 7 8.62236 7 8.15654V2.31885C7 2.09561 6.90703 1.87939 6.74297 1.72119ZM6.33099 2.12021C6.36927 2.15713 6.39479 2.20107 6.40755 2.25029H4.66667V0.571582C4.71771 0.583887 4.76328 0.608496 4.80156 0.64541L6.33099 2.12021ZM6.125 8.43779H0.875C0.714583 8.43779 0.583333 8.31123 0.583333 8.15654V0.844043C0.583333 0.689355 0.714583 0.562793 0.875 0.562793H4.08333V2.39092C4.08333 2.62471 4.27839 2.81279 4.52083 2.81279H6.41667V8.15654C6.41667 8.31123 6.28542 8.43779 6.125 8.43779ZM5.25 4.14873V4.28935C5.25 4.40537 5.15156 4.50029 5.03125 4.50029H1.96875C1.84844 4.50029 1.75 4.40537 1.75 4.28935V4.14873C1.75 4.03271 1.84844 3.93779 1.96875 3.93779H5.03125C5.15156 3.93779 5.25 4.03271 5.25 4.14873ZM5.25 5.27373V5.41435C5.25 5.53037 5.15156 5.62529 5.03125 5.62529H1.96875C1.84844 5.62529 1.75 5.53037 1.75 5.41435V5.27373C1.75 5.15771 1.84844 5.06279 1.96875 5.06279H5.03125C5.15156 5.06279 5.25 5.15771 5.25 5.27373ZM5.25 6.39873V6.53935C5.25 6.65537 5.15156 6.75029 5.03125 6.75029H1.96875C1.84844 6.75029 1.75 6.65537 1.75 6.53935V6.39873C1.75 6.28271 1.84844 6.18779 1.96875 6.18779H5.03125C5.15156 6.18779 5.25 6.28271 5.25 6.39873Z" fill="#2C2C2C"/>
</g>
<defs>
<clipPath id="clip0_2280_287">
<rect width="7" height="9" fill="white"/>
</clipPath>
</defs>
</svg>
