<svg width="43" height="14" viewBox="0 0 43 14" fill="none" xmlns="http://www.w3.org/2000/svg">
<path d="M4.45312 7.07422V8.89062C5.41406 8.83789 6.38672 8.75586 7.30078 8.62109L7.38281 9.44141C5.00391 9.875 2.46094 9.89844 0.585938 9.89844L0.445312 8.98438C1.28906 8.97852 2.28516 8.97266 3.33984 8.9375V7.07422H4.45312ZM6.80859 2.83203V3.73438H4.45312C4.51172 4.96484 5.50781 6.03125 7.07812 6.45312L6.5625 7.32031C5.30859 6.96289 4.37109 6.20117 3.90234 5.19922C3.43945 6.25391 2.51953 7.05078 1.25391 7.41406L0.726562 6.57031C2.29102 6.125 3.27539 5.02344 3.32812 3.73438H1.00781V2.83203H3.33984V1.57812H4.45312V2.83203H6.80859ZM9.07031 1.49609V12.0195H7.95703V1.49609H9.07031ZM19.1048 1.50781V9.19531H17.9916V1.50781H19.1048ZM19.4213 10.8711V11.7734H12.2377V8.46875H13.3627V10.8711H19.4213ZM14.2181 3.125C14.2064 4.66016 15.1908 6.06641 16.808 6.62891L16.2338 7.51953C15.0209 7.06836 14.1244 6.17773 13.6556 5.03516C13.1927 6.25391 12.2845 7.23242 11.0541 7.70703L10.4564 6.82812C12.1088 6.21875 13.0814 4.70703 13.0814 3.125V2.08203H14.2181V3.125ZM25.7644 2.22266C25.7644 3.53516 27.4519 4.80078 29.4441 5.09375L29.0105 5.97266C27.3464 5.69727 25.8757 4.83594 25.2019 3.65234C24.5339 4.85938 23.0515 5.7207 21.3816 5.99609L20.9597 5.11719C22.9519 4.8125 24.6277 3.58203 24.6277 2.22266V1.76562H25.7644V2.22266ZM30.0066 6.78125V7.68359H25.8347V9.71094H24.7331V7.68359H20.3972V6.78125H30.0066ZM28.9402 10.8711V11.7734H21.5925V8.72656H22.7058V10.8711H28.9402Z" fill="#646464"/>
<path d="M38.7352 9.54454L35.1102 5.86328C34.9633 5.71641 34.9633 5.47891 35.1102 5.33203L35.332 5.11016C35.4789 4.96328 35.7164 4.96328 35.8633 5.11016L39.0008 8.30704L42.1383 5.11328C42.2852 4.96641 42.5227 4.96641 42.6695 5.11328L42.8914 5.33516C43.0383 5.48203 43.0383 5.71953 42.8914 5.86641L39.2664 9.54767C39.1195 9.69142 38.882 9.69142 38.7352 9.54454Z" fill="#646464"/>
</svg>
