<svg width="43" height="14" viewBox="0 0 43 14" fill="none" xmlns="http://www.w3.org/2000/svg">
<path d="M9.09375 1.50781V9.13672H7.98047V1.50781H9.09375ZM9.41016 10.8711V11.7734H2.22656V8.36328H3.35156V10.8711H9.41016ZM3.39844 2.21094C4.98047 2.21094 6.1875 3.28906 6.1875 4.8125C6.1875 6.35938 4.98047 7.42578 3.39844 7.42578C1.81641 7.42578 0.597656 6.35938 0.597656 4.8125C0.597656 3.28906 1.81641 2.21094 3.39844 2.21094ZM3.39844 3.18359C2.41406 3.18359 1.6875 3.85156 1.6875 4.8125C1.6875 5.79688 2.41406 6.45312 3.39844 6.45312C4.35938 6.45312 5.09766 5.79688 5.09766 4.8125C5.09766 3.85156 4.35938 3.18359 3.39844 3.18359ZM19.1283 1.49609V11.9961H18.0033V1.49609H19.1283ZM15.9994 2.62109C15.9994 5.69141 14.6869 8.36328 11.0892 10.0859L10.5033 9.18359C13.2982 7.85352 14.6576 5.96094 14.8744 3.51172H11.0072V2.62109H15.9994ZM25.7644 2.22266C25.7644 3.53516 27.4519 4.80078 29.4441 5.09375L29.0105 5.97266C27.3464 5.69727 25.8757 4.83594 25.2019 3.65234C24.5339 4.85938 23.0515 5.7207 21.3816 5.99609L20.9597 5.11719C22.9519 4.8125 24.6277 3.58203 24.6277 2.22266V1.76562H25.7644V2.22266ZM30.0066 6.78125V7.68359H25.8347V9.71094H24.7331V7.68359H20.3972V6.78125H30.0066ZM28.9402 10.8711V11.7734H21.5925V8.72656H22.7058V10.8711H28.9402Z" fill="#646464"/>
<path d="M38.7352 9.54454L35.1102 5.86328C34.9633 5.71641 34.9633 5.47891 35.1102 5.33203L35.332 5.11016C35.4789 4.96328 35.7164 4.96328 35.8633 5.11016L39.0008 8.30704L42.1383 5.11328C42.2852 4.96641 42.5227 4.96641 42.6695 5.11328L42.8914 5.33516C43.0383 5.48203 43.0383 5.71953 42.8914 5.86641L39.2664 9.54767C39.1195 9.69142 38.882 9.69142 38.7352 9.54454Z" fill="#646464"/>
</svg>
