<svg width="44" height="44" viewBox="0 0 44 44" fill="none" xmlns="http://www.w3.org/2000/svg">
<mask id="mask0_2_272" style="mask-type:alpha" maskUnits="userSpaceOnUse" x="0" y="0" width="44" height="44">
<rect width="44" height="44" fill="#969696"/>
</mask>
<g mask="url(#mask0_2_272)">
<path d="M18.3216 28.6V29.48C18.3216 30.4136 18.7092 31.3089 19.399 31.969C20.0888 32.6291 21.0244 33 22 33C22.9756 33 23.9112 32.6291 24.601 31.969C25.2908 31.3089 25.6784 30.4136 25.6784 29.48V28.6M13.747 18.92C13.7455 17.8763 13.9598 16.8426 14.3777 15.8786C14.7956 14.9146 15.4087 14.0392 16.1817 13.303C16.9548 12.5668 17.8725 11.9843 18.8819 11.5891C19.8913 11.1938 20.9724 10.9937 22.063 11.0002C26.6138 11.0325 30.2539 14.6523 30.2539 19.0194V19.8C30.2539 23.7397 31.1153 26.0259 31.8739 27.2754C31.9556 27.4089 31.9991 27.5607 32 27.7154C32.0008 27.8701 31.9591 28.0223 31.8788 28.1567C31.7986 28.291 31.6828 28.4027 31.543 28.4806C31.4033 28.5584 31.2446 28.5996 31.0829 28.6H12.9171C12.7554 28.5996 12.5967 28.5584 12.4569 28.4805C12.3172 28.4027 12.2013 28.2909 12.1211 28.1566C12.0409 28.0222 11.9991 27.87 12 27.7152C12.0009 27.5605 12.0444 27.4087 12.1262 27.2752C12.8852 26.0256 13.747 23.7395 13.747 19.8L13.747 18.92Z" stroke="black" stroke-width="2" stroke-linecap="round" stroke-linejoin="round"/>
</g>
</svg>
