<svg width="79" height="21" viewBox="0 0 79 21" fill="none" xmlns="http://www.w3.org/2000/svg">
<path d="M1.89844 19.75C1.66406 19.75 1.4375 19.6562 1.21875 19.4688C1.01562 19.2812 0.929688 19.0625 0.960938 18.8125C1.21094 16.3125 1.33594 13.8125 1.33594 11.3125C1.33594 8.8125 1.32812 6.30469 1.3125 3.78906C1.1875 3.60156 1.11719 3.39062 1.10156 3.15625C1.10156 2.90625 1.1875 2.69531 1.35938 2.52344C1.45312 2.24219 1.64062 2.0625 1.92188 1.98438C2.20312 1.90625 2.46875 1.92969 2.71875 2.05469C3.45312 1.89844 4.19531 1.8125 4.94531 1.79688C5.69531 1.76562 6.44531 1.76562 7.19531 1.79688C7.94531 1.8125 8.69531 1.83594 9.44531 1.86719C10.2109 1.88281 10.9688 1.86719 11.7188 1.82031C12.0156 1.80469 12.2344 1.89062 12.375 2.07812C12.5312 2.25 12.6094 2.45312 12.6094 2.6875C12.6094 2.92188 12.5312 3.14844 12.375 3.36719C12.2344 3.57031 12.0156 3.67969 11.7188 3.69531C11.0156 3.74219 10.3047 3.75 9.58594 3.71875C8.86719 3.6875 8.14844 3.66406 7.42969 3.64844C6.71094 3.61719 6 3.60938 5.29688 3.625C4.59375 3.64062 3.89062 3.71875 3.1875 3.85938C3.1875 4.9375 3.1875 6.00781 3.1875 7.07031C3.20312 8.13281 3.21094 9.20312 3.21094 10.2812C3.69531 10.2812 4.1875 10.2734 4.6875 10.2578C5.1875 10.2422 5.67969 10.2344 6.16406 10.2344C6.66406 10.2344 7.15625 10.2578 7.64062 10.3047C8.14062 10.3359 8.63281 10.4062 9.11719 10.5156C9.41406 10.5938 9.60938 10.7422 9.70312 10.9609C9.79688 11.1797 9.8125 11.4062 9.75 11.6406C9.6875 11.8594 9.55469 12.0469 9.35156 12.2031C9.16406 12.3594 8.92188 12.3984 8.625 12.3203C7.73438 12.1172 6.82812 12.0391 5.90625 12.0859C5 12.1328 4.09375 12.1562 3.1875 12.1562C3.15625 13.2656 3.11719 14.375 3.07031 15.4844C3.02344 16.5781 2.94531 17.6875 2.83594 18.8125C2.80469 19.0625 2.70312 19.2812 2.53125 19.4688C2.375 19.6562 2.16406 19.75 1.89844 19.75ZM13.7409 17.8516C13.3816 17.5859 13.0534 17.2891 12.7566 16.9609C12.4753 16.6172 12.2175 16.2578 11.9831 15.8828C11.7644 15.5547 11.5534 15.2031 11.3503 14.8281C11.1472 14.4531 10.9675 14.0703 10.8112 13.6797C10.655 13.2891 10.53 12.8906 10.4362 12.4844C10.3581 12.0781 10.3347 11.6719 10.3659 11.2656C10.4128 10.4688 10.4909 9.6875 10.6003 8.92188C10.7253 8.14062 10.8894 7.375 11.0925 6.625C11.155 6.34375 11.2331 6.03125 11.3269 5.6875C11.4206 5.34375 11.5378 5.01562 11.6784 4.70312C11.8347 4.375 12.0144 4.07812 12.2175 3.8125C12.4206 3.54688 12.6784 3.34375 12.9909 3.20312C13.4597 3 13.9284 2.92969 14.3972 2.99219C14.8659 3.03906 15.3191 3.16406 15.7566 3.36719C16.2097 3.57031 16.6394 3.82031 17.0456 4.11719C17.4519 4.39844 17.8347 4.67969 18.1941 4.96094C18.5222 5.22656 18.8425 5.50781 19.155 5.80469C19.4831 6.08594 19.8191 6.35938 20.1628 6.625C20.5691 6.98438 20.9753 7.34375 21.3816 7.70312C21.8034 8.0625 22.1472 8.47656 22.4128 8.94531C22.7253 9.47656 22.905 10.0156 22.9519 10.5625C22.9987 11.0938 22.9597 11.625 22.8347 12.1562C22.7097 12.6719 22.5144 13.1797 22.2487 13.6797C21.9831 14.1797 21.6941 14.6641 21.3816 15.1328C21.1003 15.5391 20.7722 15.9688 20.3972 16.4219C20.0378 16.875 19.6316 17.2891 19.1784 17.6641C18.7409 18.0391 18.2644 18.3359 17.7487 18.5547C17.2487 18.7734 16.7175 18.8516 16.155 18.7891C15.8269 18.7422 15.5847 18.6172 15.4284 18.4141C15.1316 18.3672 14.8425 18.3047 14.5612 18.2266C14.28 18.1484 14.0066 18.0234 13.7409 17.8516ZM12.2409 11.1016C12.2097 11.4922 12.2253 11.8516 12.2878 12.1797C12.3659 12.5078 12.4909 12.875 12.6628 13.2812C12.8816 13.7344 13.1237 14.1953 13.3894 14.6641C13.655 15.1172 13.9675 15.5312 14.3269 15.9062C14.6394 16.25 14.9987 16.4609 15.405 16.5391C15.6706 16.5859 15.9284 16.6328 16.1784 16.6797C16.4284 16.7109 16.6784 16.7656 16.9284 16.8438C17.0222 16.8125 17.1159 16.7812 17.2097 16.75C17.3034 16.7031 17.3972 16.6406 17.4909 16.5625C17.7566 16.3906 17.9987 16.2031 18.2175 16C18.4362 15.7969 18.6472 15.5859 18.8503 15.3672C19.2409 14.9297 19.6159 14.4531 19.9753 13.9375C20.3503 13.4219 20.6472 12.8906 20.8659 12.3438C21.0847 11.7969 21.1706 11.2812 21.1237 10.7969C21.0769 10.3125 20.8503 9.84375 20.4441 9.39062C20.0691 8.96875 19.655 8.58594 19.2019 8.24219C18.7644 7.88281 18.3347 7.52344 17.9128 7.16406C17.5534 6.85156 17.2019 6.55469 16.8581 6.27344C16.5144 5.99219 16.1394 5.72656 15.7331 5.47656C15.3581 5.22656 14.9909 5.03906 14.6316 4.91406C14.5847 4.89844 14.5378 4.89062 14.4909 4.89062C14.4597 4.875 14.4206 4.85938 14.3737 4.84375L14.0222 4.82031C13.8972 4.85156 13.8191 4.88281 13.7878 4.91406C13.6784 5.03906 13.6159 5.10156 13.6003 5.10156C13.4909 5.28906 13.4206 5.42188 13.3894 5.5C13.3581 5.57812 13.3112 5.70312 13.2487 5.875C13.0925 6.32812 12.9597 6.78906 12.8503 7.25781C12.7409 7.71094 12.6472 8.16406 12.5691 8.61719C12.4909 9.07031 12.4206 9.48438 12.3581 9.85938C12.3112 10.2344 12.2722 10.6484 12.2409 11.1016ZM32.7787 18.4141C32.6537 18.6328 32.4584 18.7812 32.1928 18.8594C31.9428 18.9375 31.7084 18.8984 31.4897 18.7422C31.0678 18.4297 30.6616 18.1094 30.2709 17.7812C29.8803 17.4375 29.4584 17.1328 29.0053 16.8672C28.5991 16.6172 28.1928 16.3906 27.7866 16.1875C27.3803 15.9688 26.9897 15.7188 26.6147 15.4375C26.1616 15.0938 25.7397 14.7188 25.3491 14.3125C25.3334 15.0938 25.3412 15.875 25.3725 16.6562C25.4037 17.4219 25.4506 18.1953 25.5131 18.9766C25.5444 19.2422 25.4584 19.4609 25.2553 19.6328C25.0522 19.8203 24.8334 19.9141 24.5991 19.9141C24.3178 19.9141 24.0991 19.8203 23.9428 19.6328C23.7866 19.4609 23.6928 19.2422 23.6616 18.9766C23.5678 17.8516 23.5131 16.75 23.4975 15.6719C23.4819 14.5781 23.5053 13.4766 23.5678 12.3672C23.4428 12.1953 23.3178 12.0234 23.1928 11.8516C23.0678 11.6641 22.9506 11.4766 22.8412 11.2891C22.7475 11.1016 22.7084 10.9219 22.7241 10.75C22.7553 10.5781 22.8178 10.4297 22.9116 10.3047C23.0209 10.1797 23.1459 10.0781 23.2866 10C23.4428 9.92188 23.6069 9.89062 23.7787 9.90625C23.81 9.54688 23.8491 9.1875 23.8959 8.82812C23.9428 8.45312 23.9897 8.08594 24.0366 7.72656C24.0834 7.47656 24.1225 7.23438 24.1537 7C24.2006 6.75 24.2397 6.5 24.2709 6.25C24.3022 6.125 24.3178 6.00781 24.3178 5.89844C24.3334 5.78906 24.3569 5.67188 24.3881 5.54688C24.3881 5.48438 24.4037 5.40625 24.435 5.3125C24.4506 5.10938 24.4584 4.91406 24.4584 4.72656C24.4584 4.52344 24.4662 4.32031 24.4819 4.11719C24.4975 3.86719 24.5209 3.60156 24.5522 3.32031C24.5991 3.02344 24.6616 2.74219 24.7397 2.47656C24.8334 2.19531 24.9584 1.9375 25.1147 1.70312C25.2709 1.46875 25.4819 1.28906 25.7475 1.16406C25.9975 1.05469 26.2475 0.992187 26.4975 0.976562C26.7631 0.960938 27.0209 0.976562 27.2709 1.02344C27.5366 1.07031 27.7944 1.14062 28.0444 1.23438C28.2944 1.3125 28.5366 1.39844 28.7709 1.49219C29.3178 1.69531 29.8569 1.92969 30.3881 2.19531C30.935 2.44531 31.4194 2.77344 31.8412 3.17969C32.2475 3.58594 32.5991 4.07031 32.8959 4.63281C33.1928 5.17969 33.3256 5.75 33.2944 6.34375C33.2631 6.70312 33.185 7.02344 33.06 7.30469C32.9506 7.57031 32.7944 7.84375 32.5912 8.125C32.0912 8.82812 31.5522 9.5 30.9741 10.1406C30.3959 10.7812 29.7787 11.3672 29.1225 11.8984C28.81 12.1484 28.4662 12.3984 28.0912 12.6484C27.7319 12.8984 27.3491 13.1094 26.9428 13.2812C27.0834 13.4062 27.2241 13.5312 27.3647 13.6562C27.5053 13.7812 27.6537 13.8906 27.81 13.9844C28.2162 14.25 28.6225 14.5 29.0287 14.7344C29.4506 14.9531 29.8569 15.1953 30.2475 15.4609C30.6225 15.7266 30.9897 16.0078 31.3491 16.3047C31.7084 16.6016 32.0678 16.8828 32.4272 17.1484C32.6459 17.2891 32.7866 17.4766 32.8491 17.7109C32.9272 17.9453 32.9037 18.1797 32.7787 18.4141ZM26.4506 11.4531C26.8256 11.25 27.1616 11.0391 27.4584 10.8203C27.7709 10.5859 28.0756 10.3359 28.3725 10.0703C28.685 9.78906 28.9897 9.49219 29.2866 9.17969C29.5834 8.86719 29.8725 8.55469 30.1537 8.24219C30.2631 8.10156 30.3647 7.97656 30.4584 7.86719C30.5522 7.75781 30.6381 7.65625 30.7162 7.5625C30.7944 7.45312 30.8725 7.34375 30.9506 7.23438C31.0444 7.10938 31.1381 6.96875 31.2319 6.8125C31.2631 6.76562 31.2944 6.71875 31.3256 6.67188C31.3569 6.625 31.3881 6.57812 31.4194 6.53125C31.435 6.09375 31.3412 5.6875 31.1381 5.3125C30.8725 4.85938 30.5366 4.49219 30.1303 4.21094C29.7397 3.92969 29.3022 3.69531 28.8178 3.50781C28.5366 3.38281 28.2553 3.27344 27.9741 3.17969C27.6928 3.08594 27.3959 3 27.0834 2.92188C27.0053 2.89062 26.8881 2.85938 26.7319 2.82812C26.6381 2.85938 26.5756 2.90625 26.5444 2.96875C26.4819 3.17188 26.4506 3.3125 26.4506 3.39062C26.435 3.4375 26.4116 3.52344 26.3803 3.64844C26.3647 3.80469 26.3491 3.92969 26.3334 4.02344C26.3334 4.10156 26.3334 4.1875 26.3334 4.28125C26.2866 5.35938 26.1694 6.42188 25.9819 7.46875C25.81 8.51562 25.6694 9.57812 25.56 10.6562C25.5287 10.8281 25.5053 11.0078 25.4897 11.1953C25.4897 11.3672 25.4819 11.5391 25.4662 11.7109C25.6069 11.7266 25.685 11.7266 25.7006 11.7109C25.8725 11.6797 26.0053 11.6484 26.0991 11.6172C26.2084 11.5703 26.3256 11.5156 26.4506 11.4531ZM40.6903 5.42969C40.6591 5.17969 40.62 4.9375 40.5731 4.70312C40.5419 4.46875 40.5184 4.23438 40.5028 4C40.4716 3.71875 40.4637 3.42188 40.4794 3.10938C40.5106 2.79687 40.5731 2.5 40.6669 2.21875C40.7762 1.9375 40.9247 1.6875 41.1122 1.46875C41.2997 1.25 41.5575 1.09375 41.8856 1C42.3856 0.859375 42.8934 0.882812 43.4091 1.07031C43.9247 1.24219 44.4091 1.4375 44.8622 1.65625C45.2997 1.875 45.7294 2.10938 46.1512 2.35938C46.5731 2.60937 47.0106 2.84375 47.4637 3.0625C47.6981 3.17188 47.9325 3.28906 48.1669 3.41406C48.4012 3.53906 48.6044 3.6875 48.7762 3.85938C48.9637 4.01562 49.1122 4.21094 49.2216 4.44531C49.3466 4.66406 49.4169 4.92188 49.4325 5.21875C49.4481 5.53125 49.3934 5.83594 49.2684 6.13281C49.1591 6.42969 49.0419 6.71875 48.9169 7C48.2137 8.5625 47.3153 10.0234 46.2216 11.3828C45.8153 11.8828 45.3544 12.3516 44.8387 12.7891C44.3387 13.2109 43.7684 13.4844 43.1278 13.6094C43.2684 14.5 43.4247 15.375 43.5966 16.2344C43.7841 17.0938 43.995 17.9609 44.2294 18.8359C44.3075 19.1328 44.2684 19.375 44.1122 19.5625C43.9716 19.7656 43.7919 19.8984 43.5731 19.9609C43.3544 20.0234 43.1278 20.0078 42.8934 19.9141C42.6591 19.8203 42.5028 19.625 42.4247 19.3281C41.9247 17.4219 41.5419 15.5156 41.2762 13.6094C41.0106 11.6875 40.8387 9.73438 40.7606 7.75C40.745 7.48438 40.7372 7.22656 40.7372 6.97656C40.7372 6.72656 40.7294 6.46875 40.7137 6.20312C40.7137 6.09375 40.7137 5.99219 40.7137 5.89844C40.7137 5.78906 40.7059 5.6875 40.6903 5.59375V5.42969ZM42.3544 3.15625C42.3387 3.5 42.3544 3.86719 42.4012 4.25781C42.4169 4.42969 42.4247 4.53906 42.4247 4.58594C42.4403 4.63281 42.4481 4.67188 42.4481 4.70312L42.5184 5.125C42.5653 5.59375 42.5887 6.07031 42.5887 6.55469C42.62 7.24219 42.6434 7.92969 42.6591 8.61719C42.6903 9.28906 42.7372 9.96875 42.7997 10.6562C42.8153 10.8438 42.8231 11.0312 42.8231 11.2188C42.8387 11.4062 42.8622 11.5859 42.8934 11.7578C43.0497 11.7109 43.1591 11.6719 43.2216 11.6406C43.2841 11.5938 43.3466 11.5547 43.4091 11.5234C43.5028 11.4609 43.5731 11.4062 43.62 11.3594C44.0106 11.0469 44.3387 10.7344 44.6044 10.4219C44.87 10.1094 45.12 9.78906 45.3544 9.46094C45.87 8.74219 46.3309 8 46.7372 7.23438C46.8153 7.0625 46.8934 6.90625 46.9716 6.76562C47.0497 6.60938 47.1278 6.44531 47.2059 6.27344C47.2372 6.19531 47.2684 6.125 47.2997 6.0625C47.3309 6 47.3622 5.92969 47.3934 5.85156C47.4716 5.66406 47.5262 5.50781 47.5575 5.38281C47.5575 5.27344 47.5341 5.19531 47.4872 5.14844C47.2684 5.02344 47.1044 4.9375 46.995 4.89062C46.5419 4.67188 46.1044 4.45312 45.6825 4.23438C45.2606 4 44.8231 3.75781 44.37 3.50781C44.1512 3.38281 43.9247 3.26562 43.6903 3.15625C43.4716 3.04688 43.2372 2.95313 42.9872 2.875C42.9403 2.85938 42.8856 2.84375 42.8231 2.82812C42.7762 2.8125 42.7294 2.80469 42.6825 2.80469C42.5731 2.78906 42.5106 2.78906 42.495 2.80469C42.4794 2.80469 42.4637 2.80469 42.4481 2.80469C42.4169 2.85156 42.3934 2.89844 42.3778 2.94531C42.3778 2.99219 42.37 3.03125 42.3544 3.0625V3.15625ZM50.2125 18.6953C50.2125 18.9922 50.1109 19.2109 49.9078 19.3516C49.7203 19.5078 49.5094 19.5859 49.275 19.5859C49.0406 19.5859 48.8297 19.5078 48.6422 19.3516C48.4547 19.2109 48.3609 18.9922 48.3609 18.6953C48.3609 17.4766 48.5016 16.3047 48.7828 15.1797C49.0641 14.0547 49.4156 12.9375 49.8375 11.8281C49.7281 11.625 49.6969 11.3984 49.7438 11.1484C49.8375 10.8203 50.0406 10.6172 50.3531 10.5391C50.6656 9.78906 50.9859 9.04688 51.3141 8.3125C51.6578 7.5625 51.9859 6.8125 52.2984 6.0625C52.6109 5.3125 52.9 4.55469 53.1656 3.78906C53.4313 3.02344 53.65 2.24219 53.8219 1.44531C53.8688 1.21094 53.9625 1.00781 54.1031 0.835938C54.2594 0.664062 54.4703 0.578125 54.7359 0.578125C54.9859 0.578125 55.2125 0.671875 55.4156 0.859375C55.6188 1.03125 55.7047 1.25 55.6734 1.51562C55.6266 2.42187 55.6422 3.25781 55.7203 4.02344C55.7984 4.77344 55.9156 5.52344 56.0719 6.27344C56.2281 7.00781 56.4 7.75 56.5875 8.5C56.7906 9.23438 56.9781 9.96875 57.15 10.7031C57.3219 11.4062 57.4781 12.1094 57.6188 12.8125C57.7594 13.5156 57.9859 14.1953 58.2984 14.8516C58.4547 15.1797 58.6188 15.5 58.7906 15.8125C58.9625 16.1094 59.15 16.4141 59.3531 16.7266C59.5406 17.0078 59.7125 17.3047 59.8688 17.6172C60.025 17.9141 60.1344 18.2422 60.1969 18.6016C60.2281 18.8516 60.1891 19.0859 60.0797 19.3047C59.9859 19.5234 59.8063 19.6719 59.5406 19.75C59.3219 19.8125 59.0875 19.7812 58.8375 19.6562C58.5875 19.5312 58.4391 19.3438 58.3922 19.0938C58.3297 18.7344 58.2047 18.4141 58.0172 18.1328C57.8453 17.8516 57.6656 17.5625 57.4781 17.2656C57.2594 16.9219 57.0563 16.5781 56.8688 16.2344C56.6969 15.875 56.5406 15.5078 56.4 15.1328C56.2438 14.7422 56.1109 14.3516 56.0016 13.9609C55.8922 13.5547 55.7906 13.1484 55.6969 12.7422C54.9938 12.6953 54.2984 12.6641 53.6109 12.6484C52.9391 12.6172 52.2594 12.5625 51.5719 12.4844C51.1969 13.4844 50.8766 14.5 50.6109 15.5312C50.3609 16.5625 50.2281 17.6172 50.2125 18.6953ZM52.4156 10.3984C52.3844 10.4453 52.3609 10.5 52.3453 10.5625C52.3453 10.6094 52.3297 10.6562 52.2984 10.7031C52.7984 10.75 53.2906 10.7812 53.775 10.7969C54.2594 10.7969 54.7516 10.8125 55.2516 10.8438C55.0797 10.0938 54.8922 9.35156 54.6891 8.61719C54.5016 7.86719 54.3297 7.10938 54.1734 6.34375C53.8922 7.03125 53.6031 7.71094 53.3063 8.38281C53.0094 9.03906 52.7125 9.71094 52.4156 10.3984ZM63.7659 18.3438C63.6253 18.5469 63.4613 18.6797 63.2738 18.7422C63.0863 18.8047 62.8988 18.8125 62.7113 18.7656C62.5394 18.7031 62.3831 18.6016 62.2425 18.4609C62.1019 18.3047 62.0238 18.1094 62.0081 17.875C61.9769 17.6562 61.9613 17.5156 61.9613 17.4531C61.93 17.3281 61.9066 17.2031 61.8909 17.0781C61.8753 16.9531 61.8519 16.8281 61.8206 16.7031C61.7581 16.3906 61.6956 16.0781 61.6331 15.7656C61.5863 15.4531 61.5238 15.1406 61.4456 14.8281C61.2738 14.0312 61.0941 13.25 60.9066 12.4844C60.7191 11.7031 60.5394 10.9219 60.3675 10.1406C60.1956 9.4375 60.0238 8.73438 59.8519 8.03125C59.68 7.3125 59.5081 6.60156 59.3363 5.89844C59.2738 5.66406 59.2191 5.42969 59.1722 5.19531C59.1253 4.96094 59.0706 4.72656 59.0081 4.49219C58.9769 4.36719 58.9456 4.23438 58.9144 4.09375C58.8831 3.9375 58.8753 3.79688 58.8909 3.67188C58.9222 3.40625 59.0159 3.1875 59.1722 3.01562C59.3441 2.82812 59.5628 2.73438 59.8284 2.73438C60.0628 2.73438 60.2816 2.82812 60.4847 3.01562C60.7034 3.1875 60.7972 3.40625 60.7659 3.67188C60.7816 3.76562 60.7894 3.84375 60.7894 3.90625C60.805 3.96875 60.8284 4.03906 60.8597 4.11719C60.9066 4.36719 60.9534 4.60938 61.0003 4.84375C61.0628 5.07812 61.1175 5.3125 61.1644 5.54688C61.3363 6.28125 61.5081 7.00781 61.68 7.72656C61.8675 8.42969 62.0472 9.14062 62.2191 9.85938C62.3909 10.6406 62.5628 11.4141 62.7347 12.1797C62.9222 12.9453 63.1019 13.7188 63.2738 14.5C63.305 14.6562 63.3363 14.8047 63.3675 14.9453C63.3988 15.0859 63.43 15.2266 63.4613 15.3672C63.9769 14.5703 64.4691 13.7656 64.9378 12.9531C65.4222 12.125 65.8753 11.2812 66.2972 10.4219C66.8128 9.375 67.2738 8.28906 67.68 7.16406C68.0863 6.03906 68.3284 4.89062 68.4066 3.71875C68.4222 3.46875 68.5159 3.26562 68.6878 3.10938C68.8597 2.95313 69.0472 2.85938 69.2503 2.82812C69.4534 2.79687 69.6488 2.83594 69.8363 2.94531C70.0394 3.03906 70.1722 3.21875 70.2347 3.48438C70.5003 4.48438 70.7347 5.5 70.9378 6.53125C71.1566 7.5625 71.3753 8.58594 71.5941 9.60156C71.8284 10.6172 72.0863 11.625 72.3675 12.625C72.6644 13.625 73.0316 14.6016 73.4691 15.5547C73.9222 14.9609 74.3206 14.3438 74.6644 13.7031C75.0081 13.0469 75.2894 12.3516 75.5081 11.6172C75.8831 10.3984 76.1331 9.16406 76.2581 7.91406C76.3988 6.64844 76.5316 5.38281 76.6566 4.11719C76.6878 3.86719 76.7816 3.64844 76.9378 3.46094C77.1097 3.27344 77.3284 3.17969 77.5941 3.17969C77.8284 3.17969 78.0472 3.27344 78.2503 3.46094C78.4691 3.63281 78.5628 3.85156 78.5316 4.11719C78.3909 5.50781 78.2503 6.89062 78.1097 8.26562C77.9691 9.625 77.6878 10.9688 77.2659 12.2969C76.9066 13.375 76.4456 14.3672 75.8831 15.2734C75.3363 16.1797 74.6878 17.0547 73.9378 17.8984C73.7347 18.1172 73.4691 18.2109 73.1409 18.1797C72.8284 18.1328 72.6019 17.9766 72.4613 17.7109C72.0394 16.9609 71.6722 16.1875 71.3597 15.3906C71.0472 14.5938 70.7738 13.7891 70.5394 12.9766C70.305 12.1641 70.0941 11.3438 69.9066 10.5156C69.7191 9.67188 69.5394 8.83594 69.3675 8.00781C68.9613 9.08594 68.5003 10.1484 67.9847 11.1953C67.3753 12.4453 66.7113 13.6641 65.9925 14.8516C65.2738 16.0234 64.5316 17.1875 63.7659 18.3438Z" fill="black"/>
</svg>
